<?xml version="1.0" encoding="utf-8" standalone="no"?>
<!DOCTYPE svg PUBLIC "-//W3C//DTD SVG 1.1//EN"
  "http://www.w3.org/Graphics/SVG/1.1/DTD/svg11.dtd">
<svg height="252pt" version="1.1" viewBox="0 0 432 252" width="432pt" xmlns="http://www.w3.org/2000/svg" xmlns:xlink="http://www.w3.org/1999/xlink">
 <metadata>
  <rdf:RDF xmlns:cc="http://creativecommons.org/ns#" xmlns:dc="http://purl.org/dc/elements/1.1/" xmlns:rdf="http://www.w3.org/1999/02/22-rdf-syntax-ns#">
   <cc:Work>
    <dc:type rdf:resource="http://purl.org/dc/dcmitype/StillImage"/>
    <dc:date>2023-01-10T00:01:36.534601</dc:date>
    <dc:format>image/svg+xml</dc:format>
    <dc:creator>
     <cc:Agent>
      <dc:title>Matplotlib v3.4.3, https://matplotlib.org/</dc:title>
     </cc:Agent>
    </dc:creator>
   </cc:Work>
  </rdf:RDF>
 </metadata>
 <defs>
  <style type="text/css">*{stroke-linecap:butt;stroke-linejoin:round;}</style>
 </defs>
 <g id="figure_1">
  <g id="patch_1">
   <path d="M 0 252 
L 432 252 
L 432 0 
L 0 0 
z
" style="fill:#ffffff;"/>
  </g>
  <g id="axes_1">
   <g id="patch_2">
    <path d="M 57.17 209.68 
L 404.73 209.68 
L 404.73 58.1908 
L 57.17 58.1908 
z
" style="fill:#ffffff;"/>
   </g>
   <g id="PolyCollection_1">
    <defs>
     <path d="M 94.281517 -80.605452 
L 94.010925 -80.605452 
L 93.923977 -81.405326 
L 93.829204 -82.205201 
L 93.73046 -83.005075 
L 93.628771 -83.804949 
L 93.519983 -84.604823 
L 93.394201 -85.404697 
L 93.237749 -86.204571 
L 93.036903 -87.004445 
L 92.781599 -87.804319 
L 92.467295 -88.604193 
L 92.094264 -89.404068 
L 91.664942 -90.203942 
L 91.180669 -91.003816 
L 90.639112 -91.80369 
L 90.033141 -92.603564 
L 89.351476 -93.403438 
L 88.581048 -94.203312 
L 87.710691 -95.003186 
L 86.735214 -95.80306 
L 85.658437 -96.602934 
L 84.493836 -97.402809 
L 83.262382 -98.202683 
L 81.988661 -99.002557 
L 80.697592 -99.802431 
L 79.413818 -100.602305 
L 78.164097 -101.402179 
L 76.980488 -102.202053 
L 75.900838 -103.001927 
L 74.964263 -103.801801 
L 74.202683 -104.601676 
L 73.632584 -105.40155 
L 73.251402 -106.201424 
L 73.039914 -107.001298 
L 72.968182 -107.801172 
L 73.001436 -108.601046 
L 73.104462 -109.40092 
L 73.245996 -110.200794 
L 73.40484 -111.000668 
L 73.576352 -111.800542 
L 73.77493 -112.600417 
L 74.028641 -113.400291 
L 74.366749 -114.200165 
L 74.805879 -115.000039 
L 75.342052 -115.799913 
L 75.95252 -116.599787 
L 76.605883 -117.399661 
L 77.27481 -118.199535 
L 77.945037 -118.999409 
L 78.616708 -119.799283 
L 79.298231 -120.599158 
L 79.996656 -121.399032 
L 80.710354 -122.198906 
L 81.428383 -122.99878 
L 82.136673 -123.798654 
L 82.826714 -124.598528 
L 83.500765 -125.398402 
L 84.170108 -126.198276 
L 84.847571 -126.99815 
L 85.539172 -127.798025 
L 86.239739 -128.597899 
L 86.93432 -129.397773 
L 87.603509 -130.197647 
L 88.229172 -130.997521 
L 88.798048 -131.797395 
L 89.302937 -132.597269 
L 89.742705 -133.397143 
L 90.122126 -134.197017 
L 90.451482 -134.996891 
L 90.745065 -135.796766 
L 91.018149 -136.59664 
L 91.283177 -137.396514 
L 91.546793 -138.196388 
L 91.809166 -138.996262 
L 92.065687 -139.796136 
L 92.309812 -140.59601 
L 92.535444 -141.395884 
L 92.738183 -142.195758 
L 92.915857 -142.995633 
L 93.069022 -143.795507 
L 93.201315 -144.595381 
L 93.318859 -145.395255 
L 93.428251 -146.195129 
L 93.53393 -146.995003 
L 93.636578 -147.794877 
L 93.733674 -148.594751 
L 93.821799 -149.394625 
L 93.899054 -150.194499 
L 93.965988 -150.994374 
L 94.024709 -151.794248 
L 94.077099 -152.594122 
L 94.123506 -153.393996 
L 94.162653 -154.19387 
L 94.192622 -154.993744 
L 94.212168 -155.793618 
L 94.221661 -156.593492 
L 94.223288 -157.393366 
L 94.220552 -158.193241 
L 94.217308 -158.993115 
L 94.216697 -159.792989 
L 94.281517 -159.792989 
L 94.281517 -159.792989 
L 94.281517 -158.993115 
L 94.281517 -158.193241 
L 94.281517 -157.393366 
L 94.281517 -156.593492 
L 94.281517 -155.793618 
L 94.281517 -154.993744 
L 94.281517 -154.19387 
L 94.281517 -153.393996 
L 94.281517 -152.594122 
L 94.281517 -151.794248 
L 94.281517 -150.994374 
L 94.281517 -150.194499 
L 94.281517 -149.394625 
L 94.281517 -148.594751 
L 94.281517 -147.794877 
L 94.281517 -146.995003 
L 94.281517 -146.195129 
L 94.281517 -145.395255 
L 94.281517 -144.595381 
L 94.281517 -143.795507 
L 94.281517 -142.995633 
L 94.281517 -142.195758 
L 94.281517 -141.395884 
L 94.281517 -140.59601 
L 94.281517 -139.796136 
L 94.281517 -138.996262 
L 94.281517 -138.196388 
L 94.281517 -137.396514 
L 94.281517 -136.59664 
L 94.281517 -135.796766 
L 94.281517 -134.996891 
L 94.281517 -134.197017 
L 94.281517 -133.397143 
L 94.281517 -132.597269 
L 94.281517 -131.797395 
L 94.281517 -130.997521 
L 94.281517 -130.197647 
L 94.281517 -129.397773 
L 94.281517 -128.597899 
L 94.281517 -127.798025 
L 94.281517 -126.99815 
L 94.281517 -126.198276 
L 94.281517 -125.398402 
L 94.281517 -124.598528 
L 94.281517 -123.798654 
L 94.281517 -122.99878 
L 94.281517 -122.198906 
L 94.281517 -121.399032 
L 94.281517 -120.599158 
L 94.281517 -119.799283 
L 94.281517 -118.999409 
L 94.281517 -118.199535 
L 94.281517 -117.399661 
L 94.281517 -116.599787 
L 94.281517 -115.799913 
L 94.281517 -115.000039 
L 94.281517 -114.200165 
L 94.281517 -113.400291 
L 94.281517 -112.600417 
L 94.281517 -111.800542 
L 94.281517 -111.000668 
L 94.281517 -110.200794 
L 94.281517 -109.40092 
L 94.281517 -108.601046 
L 94.281517 -107.801172 
L 94.281517 -107.001298 
L 94.281517 -106.201424 
L 94.281517 -105.40155 
L 94.281517 -104.601676 
L 94.281517 -103.801801 
L 94.281517 -103.001927 
L 94.281517 -102.202053 
L 94.281517 -101.402179 
L 94.281517 -100.602305 
L 94.281517 -99.802431 
L 94.281517 -99.002557 
L 94.281517 -98.202683 
L 94.281517 -97.402809 
L 94.281517 -96.602934 
L 94.281517 -95.80306 
L 94.281517 -95.003186 
L 94.281517 -94.203312 
L 94.281517 -93.403438 
L 94.281517 -92.603564 
L 94.281517 -91.80369 
L 94.281517 -91.003816 
L 94.281517 -90.203942 
L 94.281517 -89.404068 
L 94.281517 -88.604193 
L 94.281517 -87.804319 
L 94.281517 -87.004445 
L 94.281517 -86.204571 
L 94.281517 -85.404697 
L 94.281517 -84.604823 
L 94.281517 -83.804949 
L 94.281517 -83.005075 
L 94.281517 -82.205201 
L 94.281517 -81.405326 
L 94.281517 -80.605452 
z
" id="me7bcff3ebf" style="stroke:#4c4c4c;stroke-width:1.5;"/>
    </defs>
    <g clip-path="url(#p0d8f8fe544)">
     <use style="fill:#20df20;stroke:#4c4c4c;stroke-width:1.5;" x="0" xlink:href="#me7bcff3ebf" y="252"/>
    </g>
   </g>
   <g id="PolyCollection_2">
    <defs>
     <path d="M 94.363555 -83.772954 
L 94.281517 -83.772954 
L 94.281517 -84.760161 
L 94.281517 -85.747368 
L 94.281517 -86.734575 
L 94.281517 -87.721782 
L 94.281517 -88.708989 
L 94.281517 -89.696195 
L 94.281517 -90.683402 
L 94.281517 -91.670609 
L 94.281517 -92.657816 
L 94.281517 -93.645023 
L 94.281517 -94.63223 
L 94.281517 -95.619437 
L 94.281517 -96.606644 
L 94.281517 -97.593851 
L 94.281517 -98.581058 
L 94.281517 -99.568265 
L 94.281517 -100.555472 
L 94.281517 -101.542679 
L 94.281517 -102.529886 
L 94.281517 -103.517093 
L 94.281517 -104.5043 
L 94.281517 -105.491506 
L 94.281517 -106.478713 
L 94.281517 -107.46592 
L 94.281517 -108.453127 
L 94.281517 -109.440334 
L 94.281517 -110.427541 
L 94.281517 -111.414748 
L 94.281517 -112.401955 
L 94.281517 -113.389162 
L 94.281517 -114.376369 
L 94.281517 -115.363576 
L 94.281517 -116.350783 
L 94.281517 -117.33799 
L 94.281517 -118.325197 
L 94.281517 -119.312404 
L 94.281517 -120.299611 
L 94.281517 -121.286817 
L 94.281517 -122.274024 
L 94.281517 -123.261231 
L 94.281517 -124.248438 
L 94.281517 -125.235645 
L 94.281517 -126.222852 
L 94.281517 -127.210059 
L 94.281517 -128.197266 
L 94.281517 -129.184473 
L 94.281517 -130.17168 
L 94.281517 -131.158887 
L 94.281517 -132.146094 
L 94.281517 -133.133301 
L 94.281517 -134.120508 
L 94.281517 -135.107715 
L 94.281517 -136.094922 
L 94.281517 -137.082128 
L 94.281517 -138.069335 
L 94.281517 -139.056542 
L 94.281517 -140.043749 
L 94.281517 -141.030956 
L 94.281517 -142.018163 
L 94.281517 -143.00537 
L 94.281517 -143.992577 
L 94.281517 -144.979784 
L 94.281517 -145.966991 
L 94.281517 -146.954198 
L 94.281517 -147.941405 
L 94.281517 -148.928612 
L 94.281517 -149.915819 
L 94.281517 -150.903026 
L 94.281517 -151.890233 
L 94.281517 -152.87744 
L 94.281517 -153.864646 
L 94.281517 -154.851853 
L 94.281517 -155.83906 
L 94.281517 -156.826267 
L 94.281517 -157.813474 
L 94.281517 -158.800681 
L 94.281517 -159.787888 
L 94.281517 -160.775095 
L 94.281517 -161.762302 
L 94.281517 -162.749509 
L 94.281517 -163.736716 
L 94.281517 -164.723923 
L 94.281517 -165.71113 
L 94.281517 -166.698337 
L 94.281517 -167.685544 
L 94.281517 -168.672751 
L 94.281517 -169.659957 
L 94.281517 -170.647164 
L 94.281517 -171.634371 
L 94.281517 -172.621578 
L 94.281517 -173.608785 
L 94.281517 -174.595992 
L 94.281517 -175.583199 
L 94.281517 -176.570406 
L 94.281517 -177.557613 
L 94.281517 -178.54482 
L 94.281517 -179.532027 
L 94.281517 -180.519234 
L 94.281517 -181.506441 
L 94.350644 -181.506441 
L 94.350644 -181.506441 
L 94.345816 -180.519234 
L 94.333265 -179.532027 
L 94.317558 -178.54482 
L 94.303272 -177.557613 
L 94.293027 -176.570406 
L 94.287295 -175.583199 
L 94.285515 -174.595992 
L 94.287355 -173.608785 
L 94.293251 -172.621578 
L 94.303989 -171.634371 
L 94.319614 -170.647164 
L 94.338464 -169.659957 
L 94.357318 -168.672751 
L 94.372853 -167.685544 
L 94.383314 -166.698337 
L 94.388993 -165.71113 
L 94.391464 -164.723923 
L 94.392869 -163.736716 
L 94.395986 -162.749509 
L 94.404283 -161.762302 
L 94.420993 -160.775095 
L 94.44777 -159.787888 
L 94.484333 -158.800681 
L 94.52957 -157.813474 
L 94.583248 -156.826267 
L 94.647044 -155.83906 
L 94.724197 -154.851853 
L 94.817905 -153.864646 
L 94.929338 -152.87744 
L 95.056058 -151.890233 
L 95.191284 -150.903026 
L 95.324537 -149.915819 
L 95.444927 -148.928612 
L 95.547769 -147.941405 
L 95.642419 -146.954198 
L 95.756312 -145.966991 
L 95.930233 -144.979784 
L 96.204233 -143.992577 
L 96.600196 -143.00537 
L 97.111301 -142.018163 
L 97.706097 -141.030956 
L 98.345993 -140.043749 
L 99.005585 -139.056542 
L 99.683367 -138.069335 
L 100.398322 -137.082128 
L 101.178337 -136.094922 
L 102.049126 -135.107715 
L 103.027131 -134.120508 
L 104.115473 -133.133301 
L 105.301747 -132.146094 
L 106.556219 -131.158887 
L 107.829711 -130.17168 
L 109.056748 -129.184473 
L 110.172847 -128.197266 
L 111.141266 -127.210059 
L 111.965894 -126.222852 
L 112.67449 -125.235645 
L 113.290084 -124.248438 
L 113.824176 -123.261231 
L 114.296864 -122.274024 
L 114.752448 -121.286817 
L 115.243547 -120.299611 
L 115.794663 -119.312404 
L 116.377214 -118.325197 
L 116.911803 -117.33799 
L 117.288355 -116.350783 
L 117.391345 -115.363576 
L 117.129419 -114.376369 
L 116.470774 -113.389162 
L 115.469134 -112.401955 
L 114.251565 -111.414748 
L 112.956268 -110.427541 
L 111.653749 -109.440334 
L 110.313936 -108.453127 
L 108.852391 -107.46592 
L 107.218703 -106.478713 
L 105.451892 -105.491506 
L 103.663799 -104.5043 
L 101.98018 -103.517093 
L 100.495264 -102.529886 
L 99.261823 -101.542679 
L 98.297285 -100.555472 
L 97.583889 -99.568265 
L 97.066596 -98.581058 
L 96.665744 -97.593851 
L 96.307071 -96.606644 
L 95.951173 -95.619437 
L 95.60179 -94.63223 
L 95.288659 -93.645023 
L 95.039214 -92.657816 
L 94.859099 -91.670609 
L 94.732157 -90.683402 
L 94.635055 -89.696195 
L 94.55255 -88.708989 
L 94.482341 -87.721782 
L 94.429024 -86.734575 
L 94.39496 -85.747368 
L 94.375935 -84.760161 
L 94.363555 -83.772954 
z
" id="m01f40b7048" style="stroke:#4c4c4c;stroke-width:1.5;"/>
    </defs>
    <g clip-path="url(#p0d8f8fe544)">
     <use style="fill:#20dfdf;stroke:#4c4c4c;stroke-width:1.5;" x="0" xlink:href="#m01f40b7048" y="252"/>
    </g>
   </g>
   <g id="PolyCollection_3">
    <defs>
     <path d="M 152.056086 -82.120344 
L 151.018807 -82.120344 
L 150.668309 -83.040316 
L 150.255718 -83.960287 
L 149.783226 -84.880258 
L 149.254532 -85.800229 
L 148.674258 -86.7202 
L 148.046912 -87.640171 
L 147.375007 -88.560142 
L 146.656496 -89.480114 
L 145.882569 -90.400085 
L 145.037294 -91.320056 
L 144.100182 -92.240027 
L 143.051591 -93.159998 
L 141.879694 -94.079969 
L 140.587215 -94.99994 
L 139.196203 -95.919912 
L 137.749392 -96.839883 
L 136.306984 -97.759854 
L 134.938313 -98.679825 
L 133.709355 -99.599796 
L 132.669162 -100.519767 
L 131.839948 -101.439738 
L 131.215182 -102.35971 
L 130.767241 -103.279681 
L 130.461858 -104.199652 
L 130.273306 -105.119623 
L 130.193736 -106.039594 
L 130.23297 -106.959565 
L 130.40966 -107.879536 
L 130.738603 -108.799508 
L 131.220137 -109.719479 
L 131.835824 -110.63945 
L 132.551176 -111.559421 
L 133.323177 -112.479392 
L 134.108934 -113.399363 
L 134.872401 -114.319334 
L 135.587814 -115.239306 
L 136.2402 -116.159277 
L 136.824301 -117.079248 
L 137.343165 -117.999219 
L 137.80702 -118.91919 
L 138.23234 -119.839161 
L 138.640659 -120.759132 
L 139.056771 -121.679104 
L 139.506192 -122.599075 
L 140.012049 -123.519046 
L 140.591739 -124.439017 
L 141.253905 -125.358988 
L 141.996461 -126.278959 
L 142.806415 -127.19893 
L 143.661878 -128.118902 
L 144.535931 -129.038873 
L 145.401402 -129.958844 
L 146.23516 -130.878815 
L 147.020687 -131.798786 
L 147.74828 -132.718757 
L 148.413124 -133.638728 
L 149.012364 -134.5587 
L 149.542724 -135.478671 
L 149.999866 -136.398642 
L 150.379744 -137.318613 
L 150.681091 -138.238584 
L 150.907634 -139.158555 
L 151.068825 -140.078526 
L 151.178685 -140.998498 
L 151.253238 -141.918469 
L 151.307499 -142.83844 
L 151.353013 -143.758411 
L 151.396611 -144.678382 
L 151.440544 -145.598353 
L 151.483736 -146.518324 
L 151.523551 -147.438296 
L 151.557368 -148.358267 
L 151.583481 -149.278238 
L 151.60123 -150.198209 
L 151.610718 -151.11818 
L 151.612597 -152.038151 
L 151.608226 -152.958122 
L 151.600091 -153.878094 
L 151.592062 -154.798065 
L 151.589083 -155.718036 
L 151.596194 -156.638007 
L 151.617169 -157.557978 
L 151.65331 -158.477949 
L 151.702892 -159.39792 
L 151.761507 -160.317892 
L 151.823171 -161.237863 
L 151.881784 -162.157834 
L 151.932407 -163.077805 
L 151.971972 -163.997776 
L 151.999328 -164.917747 
L 152.01478 -165.837718 
L 152.019496 -166.75769 
L 152.015085 -167.677661 
L 152.003491 -168.597632 
L 151.987128 -169.517603 
L 151.96899 -170.437574 
L 151.952494 -171.357545 
L 151.940954 -172.277516 
L 151.936827 -173.197488 
L 152.056086 -173.197488 
L 152.056086 -173.197488 
L 152.056086 -172.277516 
L 152.056086 -171.357545 
L 152.056086 -170.437574 
L 152.056086 -169.517603 
L 152.056086 -168.597632 
L 152.056086 -167.677661 
L 152.056086 -166.75769 
L 152.056086 -165.837718 
L 152.056086 -164.917747 
L 152.056086 -163.997776 
L 152.056086 -163.077805 
L 152.056086 -162.157834 
L 152.056086 -161.237863 
L 152.056086 -160.317892 
L 152.056086 -159.39792 
L 152.056086 -158.477949 
L 152.056086 -157.557978 
L 152.056086 -156.638007 
L 152.056086 -155.718036 
L 152.056086 -154.798065 
L 152.056086 -153.878094 
L 152.056086 -152.958122 
L 152.056086 -152.038151 
L 152.056086 -151.11818 
L 152.056086 -150.198209 
L 152.056086 -149.278238 
L 152.056086 -148.358267 
L 152.056086 -147.438296 
L 152.056086 -146.518324 
L 152.056086 -145.598353 
L 152.056086 -144.678382 
L 152.056086 -143.758411 
L 152.056086 -142.83844 
L 152.056086 -141.918469 
L 152.056086 -140.998498 
L 152.056086 -140.078526 
L 152.056086 -139.158555 
L 152.056086 -138.238584 
L 152.056086 -137.318613 
L 152.056086 -136.398642 
L 152.056086 -135.478671 
L 152.056086 -134.5587 
L 152.056086 -133.638728 
L 152.056086 -132.718757 
L 152.056086 -131.798786 
L 152.056086 -130.878815 
L 152.056086 -129.958844 
L 152.056086 -129.038873 
L 152.056086 -128.118902 
L 152.056086 -127.19893 
L 152.056086 -126.278959 
L 152.056086 -125.358988 
L 152.056086 -124.439017 
L 152.056086 -123.519046 
L 152.056086 -122.599075 
L 152.056086 -121.679104 
L 152.056086 -120.759132 
L 152.056086 -119.839161 
L 152.056086 -118.91919 
L 152.056086 -117.999219 
L 152.056086 -117.079248 
L 152.056086 -116.159277 
L 152.056086 -115.239306 
L 152.056086 -114.319334 
L 152.056086 -113.399363 
L 152.056086 -112.479392 
L 152.056086 -111.559421 
L 152.056086 -110.63945 
L 152.056086 -109.719479 
L 152.056086 -108.799508 
L 152.056086 -107.879536 
L 152.056086 -106.959565 
L 152.056086 -106.039594 
L 152.056086 -105.119623 
L 152.056086 -104.199652 
L 152.056086 -103.279681 
L 152.056086 -102.35971 
L 152.056086 -101.439738 
L 152.056086 -100.519767 
L 152.056086 -99.599796 
L 152.056086 -98.679825 
L 152.056086 -97.759854 
L 152.056086 -96.839883 
L 152.056086 -95.919912 
L 152.056086 -94.99994 
L 152.056086 -94.079969 
L 152.056086 -93.159998 
L 152.056086 -92.240027 
L 152.056086 -91.320056 
L 152.056086 -90.400085 
L 152.056086 -89.480114 
L 152.056086 -88.560142 
L 152.056086 -87.640171 
L 152.056086 -86.7202 
L 152.056086 -85.800229 
L 152.056086 -84.880258 
L 152.056086 -83.960287 
L 152.056086 -83.040316 
L 152.056086 -82.120344 
z
" id="m811c12b016" style="stroke:#4c4c4c;stroke-width:1.5;"/>
    </defs>
    <g clip-path="url(#p0d8f8fe544)">
     <use style="fill:#20df20;stroke:#4c4c4c;stroke-width:1.5;" x="0" xlink:href="#m811c12b016" y="252"/>
    </g>
   </g>
   <g id="PolyCollection_4">
    <defs>
     <path d="M 152.483294 -85.746904 
L 152.056086 -85.746904 
L 152.056086 -86.600103 
L 152.056086 -87.453302 
L 152.056086 -88.306501 
L 152.056086 -89.1597 
L 152.056086 -90.012899 
L 152.056086 -90.866098 
L 152.056086 -91.719297 
L 152.056086 -92.572496 
L 152.056086 -93.425695 
L 152.056086 -94.278894 
L 152.056086 -95.132093 
L 152.056086 -95.985293 
L 152.056086 -96.838492 
L 152.056086 -97.691691 
L 152.056086 -98.54489 
L 152.056086 -99.398089 
L 152.056086 -100.251288 
L 152.056086 -101.104487 
L 152.056086 -101.957686 
L 152.056086 -102.810885 
L 152.056086 -103.664084 
L 152.056086 -104.517283 
L 152.056086 -105.370482 
L 152.056086 -106.223681 
L 152.056086 -107.07688 
L 152.056086 -107.930079 
L 152.056086 -108.783278 
L 152.056086 -109.636477 
L 152.056086 -110.489676 
L 152.056086 -111.342875 
L 152.056086 -112.196074 
L 152.056086 -113.049273 
L 152.056086 -113.902472 
L 152.056086 -114.755672 
L 152.056086 -115.608871 
L 152.056086 -116.46207 
L 152.056086 -117.315269 
L 152.056086 -118.168468 
L 152.056086 -119.021667 
L 152.056086 -119.874866 
L 152.056086 -120.728065 
L 152.056086 -121.581264 
L 152.056086 -122.434463 
L 152.056086 -123.287662 
L 152.056086 -124.140861 
L 152.056086 -124.99406 
L 152.056086 -125.847259 
L 152.056086 -126.700458 
L 152.056086 -127.553657 
L 152.056086 -128.406856 
L 152.056086 -129.260055 
L 152.056086 -130.113254 
L 152.056086 -130.966453 
L 152.056086 -131.819652 
L 152.056086 -132.672851 
L 152.056086 -133.526051 
L 152.056086 -134.37925 
L 152.056086 -135.232449 
L 152.056086 -136.085648 
L 152.056086 -136.938847 
L 152.056086 -137.792046 
L 152.056086 -138.645245 
L 152.056086 -139.498444 
L 152.056086 -140.351643 
L 152.056086 -141.204842 
L 152.056086 -142.058041 
L 152.056086 -142.91124 
L 152.056086 -143.764439 
L 152.056086 -144.617638 
L 152.056086 -145.470837 
L 152.056086 -146.324036 
L 152.056086 -147.177235 
L 152.056086 -148.030434 
L 152.056086 -148.883633 
L 152.056086 -149.736832 
L 152.056086 -150.590031 
L 152.056086 -151.44323 
L 152.056086 -152.29643 
L 152.056086 -153.149629 
L 152.056086 -154.002828 
L 152.056086 -154.856027 
L 152.056086 -155.709226 
L 152.056086 -156.562425 
L 152.056086 -157.415624 
L 152.056086 -158.268823 
L 152.056086 -159.122022 
L 152.056086 -159.975221 
L 152.056086 -160.82842 
L 152.056086 -161.681619 
L 152.056086 -162.534818 
L 152.056086 -163.388017 
L 152.056086 -164.241216 
L 152.056086 -165.094415 
L 152.056086 -165.947614 
L 152.056086 -166.800813 
L 152.056086 -167.654012 
L 152.056086 -168.507211 
L 152.056086 -169.36041 
L 152.056086 -170.213609 
L 152.385857 -170.213609 
L 152.385857 -170.213609 
L 152.412495 -169.36041 
L 152.424805 -168.507211 
L 152.422967 -167.654012 
L 152.409008 -166.800813 
L 152.386022 -165.947614 
L 152.357395 -165.094415 
L 152.326375 -164.241216 
L 152.296081 -163.388017 
L 152.269784 -162.534818 
L 152.251109 -161.681619 
L 152.243877 -160.82842 
L 152.251478 -159.975221 
L 152.275983 -159.122022 
L 152.317377 -158.268823 
L 152.373367 -157.415624 
L 152.439983 -156.562425 
L 152.512868 -155.709226 
L 152.588775 -154.856027 
L 152.666643 -154.002828 
L 152.747755 -153.149629 
L 152.834974 -152.29643 
L 152.931533 -151.44323 
L 153.040146 -150.590031 
L 153.163047 -149.736832 
L 153.302999 -148.883633 
L 153.464624 -148.030434 
L 153.655114 -147.177235 
L 153.883533 -146.324036 
L 154.158707 -145.470837 
L 154.486495 -144.617638 
L 154.867741 -143.764439 
L 155.297969 -142.91124 
L 155.769111 -142.058041 
L 156.27255 -141.204842 
L 156.802138 -140.351643 
L 157.355812 -139.498444 
L 157.93512 -138.645245 
L 158.542965 -137.792046 
L 159.180796 -136.938847 
L 159.846846 -136.085648 
L 160.536619 -135.232449 
L 161.245678 -134.37925 
L 161.973475 -133.526051 
L 162.726115 -132.672851 
L 163.51624 -131.819652 
L 164.359601 -130.966453 
L 165.269593 -130.113254 
L 166.252071 -129.260055 
L 167.302436 -128.406856 
L 168.405574 -127.553657 
L 169.537684 -126.700458 
L 170.668372 -125.847259 
L 171.761833 -124.99406 
L 172.777224 -124.140861 
L 173.669395 -123.287662 
L 174.391469 -122.434463 
L 174.900077 -121.581264 
L 175.16278 -120.728065 
L 175.165913 -119.874866 
L 174.920401 -119.021667 
L 174.463283 -118.168468 
L 173.853709 -117.315269 
L 173.163649 -116.46207 
L 172.465119 -115.608871 
L 171.81686 -114.755672 
L 171.25377 -113.902472 
L 170.781825 -113.049273 
L 170.379634 -112.196074 
L 170.005875 -111.342875 
L 169.61021 -110.489676 
L 169.144632 -109.636477 
L 168.572668 -108.783278 
L 167.874933 -107.930079 
L 167.050676 -107.07688 
L 166.115722 -106.223681 
L 165.097707 -105.370482 
L 164.029899 -104.517283 
L 162.945178 -103.664084 
L 161.871663 -102.810885 
L 160.830908 -101.957686 
L 159.838479 -101.104487 
L 158.905872 -100.251288 
L 158.042317 -99.398089 
L 157.255509 -98.54489 
L 156.551112 -97.691691 
L 155.931664 -96.838492 
L 155.395698 -95.985293 
L 154.937638 -95.132093 
L 154.548539 -94.278894 
L 154.217377 -93.425695 
L 153.932519 -92.572496 
L 153.683095 -91.719297 
L 153.460093 -90.866098 
L 153.257081 -90.012899 
L 153.070421 -89.1597 
L 152.898936 -88.306501 
L 152.743137 -87.453302 
L 152.604238 -86.600103 
L 152.483294 -85.746904 
z
" id="m0604da1451" style="stroke:#4c4c4c;stroke-width:1.5;"/>
    </defs>
    <g clip-path="url(#p0d8f8fe544)">
     <use style="fill:#20dfdf;stroke:#4c4c4c;stroke-width:1.5;" x="0" xlink:href="#m0604da1451" y="252"/>
    </g>
   </g>
   <g id="PolyCollection_5">
    <defs>
     <path d="M 209.830655 -76.519835 
L 209.146979 -76.519835 
L 209.007572 -77.358195 
L 208.862005 -78.196556 
L 208.71027 -79.034917 
L 208.550411 -79.873278 
L 208.378735 -80.711639 
L 208.190218 -81.549999 
L 207.978863 -82.38836 
L 207.737823 -83.226721 
L 207.459311 -84.065082 
L 207.134505 -84.903443 
L 206.753827 -85.741803 
L 206.307998 -86.580164 
L 205.790062 -87.418525 
L 205.198127 -88.256886 
L 204.538041 -89.095247 
L 203.824821 -89.933607 
L 203.081666 -90.771968 
L 202.335998 -91.610329 
L 201.612985 -92.44869 
L 200.928183 -93.287051 
L 200.281658 -94.125411 
L 199.655929 -94.963772 
L 199.019082 -95.802133 
L 198.332822 -96.640494 
L 197.563457 -97.478855 
L 196.692606 -98.317215 
L 195.724273 -99.155576 
L 194.685916 -99.993937 
L 193.623077 -100.832298 
L 192.58927 -101.670659 
L 191.634376 -102.509019 
L 190.795198 -103.34738 
L 190.090814 -104.185741 
L 189.52346 -105.024102 
L 189.083651 -105.862463 
L 188.756933 -106.700823 
L 188.529591 -107.539184 
L 188.391702 -108.377545 
L 188.337468 -109.215906 
L 188.364032 -110.054267 
L 188.470323 -110.892627 
L 188.656845 -111.730988 
L 188.926224 -112.569349 
L 189.283399 -113.40771 
L 189.734252 -114.246071 
L 190.282239 -115.084431 
L 190.923864 -115.922792 
L 191.644845 -116.761153 
L 192.419014 -117.599514 
L 193.211163 -118.437875 
L 193.983497 -119.276235 
L 194.703847 -120.114596 
L 195.353002 -120.952957 
L 195.928709 -121.791318 
L 196.445071 -122.629679 
L 196.927621 -123.468039 
L 197.40573 -124.3064 
L 197.90473 -125.144761 
L 198.440047 -125.983122 
L 199.01487 -126.821483 
L 199.621665 -127.659843 
L 200.246673 -128.498204 
L 200.875578 -129.336565 
L 201.498264 -130.174926 
L 202.11103 -131.013287 
L 202.715691 -131.851647 
L 203.316318 -132.690008 
L 203.915269 -133.528369 
L 204.510346 -134.36673 
L 205.094182 -135.205091 
L 205.655833 -136.043451 
L 206.183574 -136.881812 
L 206.667546 -137.720173 
L 207.101296 -138.558534 
L 207.481942 -139.396895 
L 207.809387 -140.235255 
L 208.085286 -141.073616 
L 208.312341 -141.911977 
L 208.49414 -142.750338 
L 208.635378 -143.588699 
L 208.742073 -144.427059 
L 208.821426 -145.26542 
L 208.881143 -146.103781 
L 208.928361 -146.942142 
L 208.968556 -147.780503 
L 209.00483 -148.618863 
L 209.0379 -149.457224 
L 209.066796 -150.295585 
L 209.090024 -151.133946 
L 209.106785 -151.972307 
L 209.117872 -152.810667 
L 209.125969 -153.649028 
L 209.135313 -154.487389 
L 209.150824 -155.32575 
L 209.17697 -156.164111 
L 209.216663 -157.002471 
L 209.270504 -157.840832 
L 209.33657 -158.679193 
L 209.410809 -159.517554 
L 209.830655 -159.517554 
L 209.830655 -159.517554 
L 209.830655 -158.679193 
L 209.830655 -157.840832 
L 209.830655 -157.002471 
L 209.830655 -156.164111 
L 209.830655 -155.32575 
L 209.830655 -154.487389 
L 209.830655 -153.649028 
L 209.830655 -152.810667 
L 209.830655 -151.972307 
L 209.830655 -151.133946 
L 209.830655 -150.295585 
L 209.830655 -149.457224 
L 209.830655 -148.618863 
L 209.830655 -147.780503 
L 209.830655 -146.942142 
L 209.830655 -146.103781 
L 209.830655 -145.26542 
L 209.830655 -144.427059 
L 209.830655 -143.588699 
L 209.830655 -142.750338 
L 209.830655 -141.911977 
L 209.830655 -141.073616 
L 209.830655 -140.235255 
L 209.830655 -139.396895 
L 209.830655 -138.558534 
L 209.830655 -137.720173 
L 209.830655 -136.881812 
L 209.830655 -136.043451 
L 209.830655 -135.205091 
L 209.830655 -134.36673 
L 209.830655 -133.528369 
L 209.830655 -132.690008 
L 209.830655 -131.851647 
L 209.830655 -131.013287 
L 209.830655 -130.174926 
L 209.830655 -129.336565 
L 209.830655 -128.498204 
L 209.830655 -127.659843 
L 209.830655 -126.821483 
L 209.830655 -125.983122 
L 209.830655 -125.144761 
L 209.830655 -124.3064 
L 209.830655 -123.468039 
L 209.830655 -122.629679 
L 209.830655 -121.791318 
L 209.830655 -120.952957 
L 209.830655 -120.114596 
L 209.830655 -119.276235 
L 209.830655 -118.437875 
L 209.830655 -117.599514 
L 209.830655 -116.761153 
L 209.830655 -115.922792 
L 209.830655 -115.084431 
L 209.830655 -114.246071 
L 209.830655 -113.40771 
L 209.830655 -112.569349 
L 209.830655 -111.730988 
L 209.830655 -110.892627 
L 209.830655 -110.054267 
L 209.830655 -109.215906 
L 209.830655 -108.377545 
L 209.830655 -107.539184 
L 209.830655 -106.700823 
L 209.830655 -105.862463 
L 209.830655 -105.024102 
L 209.830655 -104.185741 
L 209.830655 -103.34738 
L 209.830655 -102.509019 
L 209.830655 -101.670659 
L 209.830655 -100.832298 
L 209.830655 -99.993937 
L 209.830655 -99.155576 
L 209.830655 -98.317215 
L 209.830655 -97.478855 
L 209.830655 -96.640494 
L 209.830655 -95.802133 
L 209.830655 -94.963772 
L 209.830655 -94.125411 
L 209.830655 -93.287051 
L 209.830655 -92.44869 
L 209.830655 -91.610329 
L 209.830655 -90.771968 
L 209.830655 -89.933607 
L 209.830655 -89.095247 
L 209.830655 -88.256886 
L 209.830655 -87.418525 
L 209.830655 -86.580164 
L 209.830655 -85.741803 
L 209.830655 -84.903443 
L 209.830655 -84.065082 
L 209.830655 -83.226721 
L 209.830655 -82.38836 
L 209.830655 -81.549999 
L 209.830655 -80.711639 
L 209.830655 -79.873278 
L 209.830655 -79.034917 
L 209.830655 -78.196556 
L 209.830655 -77.358195 
L 209.830655 -76.519835 
z
" id="m51ceb7c741" style="stroke:#4c4c4c;stroke-width:1.5;"/>
    </defs>
    <g clip-path="url(#p0d8f8fe544)">
     <use style="fill:#20df20;stroke:#4c4c4c;stroke-width:1.5;" x="0" xlink:href="#m51ceb7c741" y="252"/>
    </g>
   </g>
   <g id="PolyCollection_6">
    <defs>
     <path d="M 209.948682 -79.503713 
L 209.830655 -79.503713 
L 209.830655 -80.407455 
L 209.830655 -81.311196 
L 209.830655 -82.214938 
L 209.830655 -83.11868 
L 209.830655 -84.022422 
L 209.830655 -84.926164 
L 209.830655 -85.829905 
L 209.830655 -86.733647 
L 209.830655 -87.637389 
L 209.830655 -88.541131 
L 209.830655 -89.444873 
L 209.830655 -90.348615 
L 209.830655 -91.252356 
L 209.830655 -92.156098 
L 209.830655 -93.05984 
L 209.830655 -93.963582 
L 209.830655 -94.867324 
L 209.830655 -95.771065 
L 209.830655 -96.674807 
L 209.830655 -97.578549 
L 209.830655 -98.482291 
L 209.830655 -99.386033 
L 209.830655 -100.289774 
L 209.830655 -101.193516 
L 209.830655 -102.097258 
L 209.830655 -103.001 
L 209.830655 -103.904742 
L 209.830655 -104.808484 
L 209.830655 -105.712225 
L 209.830655 -106.615967 
L 209.830655 -107.519709 
L 209.830655 -108.423451 
L 209.830655 -109.327193 
L 209.830655 -110.230934 
L 209.830655 -111.134676 
L 209.830655 -112.038418 
L 209.830655 -112.94216 
L 209.830655 -113.845902 
L 209.830655 -114.749643 
L 209.830655 -115.653385 
L 209.830655 -116.557127 
L 209.830655 -117.460869 
L 209.830655 -118.364611 
L 209.830655 -119.268353 
L 209.830655 -120.172094 
L 209.830655 -121.075836 
L 209.830655 -121.979578 
L 209.830655 -122.88332 
L 209.830655 -123.787062 
L 209.830655 -124.690803 
L 209.830655 -125.594545 
L 209.830655 -126.498287 
L 209.830655 -127.402029 
L 209.830655 -128.305771 
L 209.830655 -129.209513 
L 209.830655 -130.113254 
L 209.830655 -131.016996 
L 209.830655 -131.920738 
L 209.830655 -132.82448 
L 209.830655 -133.728222 
L 209.830655 -134.631963 
L 209.830655 -135.535705 
L 209.830655 -136.439447 
L 209.830655 -137.343189 
L 209.830655 -138.246931 
L 209.830655 -139.150672 
L 209.830655 -140.054414 
L 209.830655 -140.958156 
L 209.830655 -141.861898 
L 209.830655 -142.76564 
L 209.830655 -143.669382 
L 209.830655 -144.573123 
L 209.830655 -145.476865 
L 209.830655 -146.380607 
L 209.830655 -147.284349 
L 209.830655 -148.188091 
L 209.830655 -149.091832 
L 209.830655 -149.995574 
L 209.830655 -150.899316 
L 209.830655 -151.803058 
L 209.830655 -152.7068 
L 209.830655 -153.610542 
L 209.830655 -154.514283 
L 209.830655 -155.418025 
L 209.830655 -156.321767 
L 209.830655 -157.225509 
L 209.830655 -158.129251 
L 209.830655 -159.032992 
L 209.830655 -159.936734 
L 209.830655 -160.840476 
L 209.830655 -161.744218 
L 209.830655 -162.64796 
L 209.830655 -163.551701 
L 209.830655 -164.455443 
L 209.830655 -165.359185 
L 209.830655 -166.262927 
L 209.830655 -167.166669 
L 209.830655 -168.070411 
L 209.830655 -168.974152 
L 210.006236 -168.974152 
L 210.006236 -168.974152 
L 210.033574 -168.070411 
L 210.058536 -167.166669 
L 210.082083 -166.262927 
L 210.106432 -165.359185 
L 210.134991 -164.455443 
L 210.172307 -163.551701 
L 210.223828 -162.64796 
L 210.295072 -161.744218 
L 210.389983 -160.840476 
L 210.508893 -159.936734 
L 210.647127 -159.032992 
L 210.795409 -158.129251 
L 210.942448 -157.225509 
L 211.078728 -156.321767 
L 211.199568 -155.418025 
L 211.305668 -154.514283 
L 211.400845 -153.610542 
L 211.488465 -152.7068 
L 211.569 -151.803058 
L 211.640448 -150.899316 
L 211.701478 -149.995574 
L 211.75541 -149.091832 
L 211.81266 -148.188091 
L 211.89021 -147.284349 
L 212.008299 -146.380607 
L 212.185709 -145.476865 
L 212.435397 -144.573123 
L 212.761898 -143.669382 
L 213.161267 -142.76564 
L 213.623654 -141.861898 
L 214.137692 -140.958156 
L 214.695064 -140.054414 
L 215.293226 -139.150672 
L 215.93488 -138.246931 
L 216.624164 -137.343189 
L 217.361168 -136.439447 
L 218.137243 -135.535705 
L 218.933397 -134.631963 
L 219.722915 -133.728222 
L 220.477851 -132.82448 
L 221.177533 -131.920738 
L 221.816344 -131.016996 
L 222.407987 -130.113254 
L 222.984493 -129.209513 
L 223.589938 -128.305771 
L 224.270345 -127.402029 
L 225.062076 -126.498287 
L 225.9811 -125.594545 
L 227.015576 -124.690803 
L 228.124106 -123.787062 
L 229.241372 -122.88332 
L 230.290917 -121.979578 
L 231.201965 -121.075836 
L 231.924952 -120.172094 
L 232.440495 -119.268353 
L 232.759058 -118.364611 
L 232.912367 -117.460869 
L 232.940482 -116.557127 
L 232.879164 -115.653385 
L 232.750891 -114.749643 
L 232.56083 -113.845902 
L 232.297333 -112.94216 
L 231.935849 -112.038418 
L 231.445085 -111.134676 
L 230.794564 -110.230934 
L 229.962695 -109.327193 
L 228.944037 -108.423451 
L 227.753959 -107.519709 
L 226.428952 -106.615967 
L 225.021893 -105.712225 
L 223.593282 -104.808484 
L 222.200935 -103.904742 
L 220.891122 -103.001 
L 219.693298 -102.097258 
L 218.619079 -101.193516 
L 217.664676 -100.289774 
L 216.815321 -99.386033 
L 216.050374 -98.482291 
L 215.348307 -97.578549 
L 214.691093 -96.674807 
L 214.067394 -95.771065 
L 213.473842 -94.867324 
L 212.913988 -93.963582 
L 212.395345 -93.05984 
L 211.925832 -92.156098 
L 211.511114 -91.252356 
L 211.153631 -90.348615 
L 210.853061 -89.444873 
L 210.607263 -88.541131 
L 210.41284 -87.637389 
L 210.265149 -86.733647 
L 210.158132 -85.829905 
L 210.084484 -84.926164 
L 210.036302 -84.022422 
L 210.005946 -83.11868 
L 209.98673 -82.214938 
L 209.97325 -81.311196 
L 209.961459 -80.407455 
L 209.948682 -79.503713 
z
" id="m44c8b62fa7" style="stroke:#4c4c4c;stroke-width:1.5;"/>
    </defs>
    <g clip-path="url(#p0d8f8fe544)">
     <use style="fill:#20dfdf;stroke:#4c4c4c;stroke-width:1.5;" x="0" xlink:href="#m44c8b62fa7" y="252"/>
    </g>
   </g>
   <g id="PolyCollection_7">
    <defs>
     <path d="M 267.605224 -51.776599 
L 267.333585 -51.776599 
L 267.323032 -52.876483 
L 267.321265 -53.976368 
L 267.322258 -55.076253 
L 267.31714 -56.176138 
L 267.295673 -57.276023 
L 267.247916 -58.375908 
L 267.165545 -59.475793 
L 267.0425 -60.575677 
L 266.874891 -61.675562 
L 266.660416 -62.775447 
L 266.397595 -63.875332 
L 266.085084 -64.975217 
L 265.721102 -66.075102 
L 265.302838 -67.174987 
L 264.825731 -68.274871 
L 264.282747 -69.374756 
L 263.663986 -70.474641 
L 262.957133 -71.574526 
L 262.148993 -72.674411 
L 261.228007 -73.774296 
L 260.187202 -74.874181 
L 259.026844 -75.974065 
L 257.75607 -77.07395 
L 256.393076 -78.173835 
L 254.96378 -79.27372 
L 253.499334 -80.373605 
L 252.033292 -81.47349 
L 250.599447 -82.573375 
L 249.231219 -83.673259 
L 247.962774 -84.773144 
L 246.83103 -85.873029 
L 245.87689 -86.972914 
L 245.143856 -88.072799 
L 244.673072 -89.172684 
L 244.495396 -90.272568 
L 244.622758 -91.372453 
L 245.041989 -92.472338 
L 245.713918 -93.572223 
L 246.578936 -94.672108 
L 247.567857 -95.771993 
L 248.614965 -96.871878 
L 249.669211 -97.971762 
L 250.700355 -99.071647 
L 251.698751 -100.171532 
L 252.669829 -101.271417 
L 253.625961 -102.371302 
L 254.578774 -103.471187 
L 255.534182 -104.571072 
L 256.490858 -105.670956 
L 257.441465 -106.770841 
L 258.375076 -107.870726 
L 259.27926 -108.970611 
L 260.140958 -110.070496 
L 260.946256 -111.170381 
L 261.679872 -112.270266 
L 262.325452 -113.37015 
L 262.86733 -114.470035 
L 263.293677 -115.56992 
L 263.600173 -116.669805 
L 263.792894 -117.76969 
L 263.889226 -118.869575 
L 263.916235 -119.96946 
L 263.906746 -121.069344 
L 263.894201 -122.169229 
L 263.907658 -123.269114 
L 263.96811 -124.368999 
L 264.086705 -125.468884 
L 264.26477 -126.568769 
L 264.495151 -127.668654 
L 264.764384 -128.768538 
L 265.055363 -129.868423 
L 265.35031 -130.968308 
L 265.633726 -132.068193 
L 265.894764 -133.168078 
L 266.128431 -134.267963 
L 266.335224 -135.367848 
L 266.519346 -136.467732 
L 266.68619 -137.567617 
L 266.83998 -138.667502 
L 266.98235 -139.767387 
L 267.112155 -140.867272 
L 267.226297 -141.967157 
L 267.321017 -143.067042 
L 267.393101 -144.166926 
L 267.440653 -145.266811 
L 267.463397 -146.366696 
L 267.462692 -147.466581 
L 267.441433 -148.566466 
L 267.403934 -149.666351 
L 267.355739 -150.766236 
L 267.303209 -151.86612 
L 267.252888 -152.966005 
L 267.210714 -154.06589 
L 267.181312 -155.165775 
L 267.167556 -156.26566 
L 267.170473 -157.365545 
L 267.189411 -158.46543 
L 267.222329 -159.565314 
L 267.266099 -160.665199 
L 267.605224 -160.665199 
L 267.605224 -160.665199 
L 267.605224 -159.565314 
L 267.605224 -158.46543 
L 267.605224 -157.365545 
L 267.605224 -156.26566 
L 267.605224 -155.165775 
L 267.605224 -154.06589 
L 267.605224 -152.966005 
L 267.605224 -151.86612 
L 267.605224 -150.766236 
L 267.605224 -149.666351 
L 267.605224 -148.566466 
L 267.605224 -147.466581 
L 267.605224 -146.366696 
L 267.605224 -145.266811 
L 267.605224 -144.166926 
L 267.605224 -143.067042 
L 267.605224 -141.967157 
L 267.605224 -140.867272 
L 267.605224 -139.767387 
L 267.605224 -138.667502 
L 267.605224 -137.567617 
L 267.605224 -136.467732 
L 267.605224 -135.367848 
L 267.605224 -134.267963 
L 267.605224 -133.168078 
L 267.605224 -132.068193 
L 267.605224 -130.968308 
L 267.605224 -129.868423 
L 267.605224 -128.768538 
L 267.605224 -127.668654 
L 267.605224 -126.568769 
L 267.605224 -125.468884 
L 267.605224 -124.368999 
L 267.605224 -123.269114 
L 267.605224 -122.169229 
L 267.605224 -121.069344 
L 267.605224 -119.96946 
L 267.605224 -118.869575 
L 267.605224 -117.76969 
L 267.605224 -116.669805 
L 267.605224 -115.56992 
L 267.605224 -114.470035 
L 267.605224 -113.37015 
L 267.605224 -112.270266 
L 267.605224 -111.170381 
L 267.605224 -110.070496 
L 267.605224 -108.970611 
L 267.605224 -107.870726 
L 267.605224 -106.770841 
L 267.605224 -105.670956 
L 267.605224 -104.571072 
L 267.605224 -103.471187 
L 267.605224 -102.371302 
L 267.605224 -101.271417 
L 267.605224 -100.171532 
L 267.605224 -99.071647 
L 267.605224 -97.971762 
L 267.605224 -96.871878 
L 267.605224 -95.771993 
L 267.605224 -94.672108 
L 267.605224 -93.572223 
L 267.605224 -92.472338 
L 267.605224 -91.372453 
L 267.605224 -90.272568 
L 267.605224 -89.172684 
L 267.605224 -88.072799 
L 267.605224 -86.972914 
L 267.605224 -85.873029 
L 267.605224 -84.773144 
L 267.605224 -83.673259 
L 267.605224 -82.573375 
L 267.605224 -81.47349 
L 267.605224 -80.373605 
L 267.605224 -79.27372 
L 267.605224 -78.173835 
L 267.605224 -77.07395 
L 267.605224 -75.974065 
L 267.605224 -74.874181 
L 267.605224 -73.774296 
L 267.605224 -72.674411 
L 267.605224 -71.574526 
L 267.605224 -70.474641 
L 267.605224 -69.374756 
L 267.605224 -68.274871 
L 267.605224 -67.174987 
L 267.605224 -66.075102 
L 267.605224 -64.975217 
L 267.605224 -63.875332 
L 267.605224 -62.775447 
L 267.605224 -61.675562 
L 267.605224 -60.575677 
L 267.605224 -59.475793 
L 267.605224 -58.375908 
L 267.605224 -57.276023 
L 267.605224 -56.176138 
L 267.605224 -55.076253 
L 267.605224 -53.976368 
L 267.605224 -52.876483 
L 267.605224 -51.776599 
z
" id="m6aa4a38476" style="stroke:#4c4c4c;stroke-width:1.5;"/>
    </defs>
    <g clip-path="url(#p0d8f8fe544)">
     <use style="fill:#20df20;stroke:#4c4c4c;stroke-width:1.5;" x="0" xlink:href="#m6aa4a38476" y="252"/>
    </g>
   </g>
   <g id="PolyCollection_8">
    <defs>
     <path d="M 267.972025 -61.141385 
L 267.605224 -61.141385 
L 267.605224 -62.124419 
L 267.605224 -63.107453 
L 267.605224 -64.090487 
L 267.605224 -65.07352 
L 267.605224 -66.056554 
L 267.605224 -67.039588 
L 267.605224 -68.022621 
L 267.605224 -69.005655 
L 267.605224 -69.988689 
L 267.605224 -70.971722 
L 267.605224 -71.954756 
L 267.605224 -72.93779 
L 267.605224 -73.920823 
L 267.605224 -74.903857 
L 267.605224 -75.886891 
L 267.605224 -76.869924 
L 267.605224 -77.852958 
L 267.605224 -78.835992 
L 267.605224 -79.819025 
L 267.605224 -80.802059 
L 267.605224 -81.785093 
L 267.605224 -82.768126 
L 267.605224 -83.75116 
L 267.605224 -84.734194 
L 267.605224 -85.717228 
L 267.605224 -86.700261 
L 267.605224 -87.683295 
L 267.605224 -88.666329 
L 267.605224 -89.649362 
L 267.605224 -90.632396 
L 267.605224 -91.61543 
L 267.605224 -92.598463 
L 267.605224 -93.581497 
L 267.605224 -94.564531 
L 267.605224 -95.547564 
L 267.605224 -96.530598 
L 267.605224 -97.513632 
L 267.605224 -98.496665 
L 267.605224 -99.479699 
L 267.605224 -100.462733 
L 267.605224 -101.445766 
L 267.605224 -102.4288 
L 267.605224 -103.411834 
L 267.605224 -104.394867 
L 267.605224 -105.377901 
L 267.605224 -106.360935 
L 267.605224 -107.343969 
L 267.605224 -108.327002 
L 267.605224 -109.310036 
L 267.605224 -110.29307 
L 267.605224 -111.276103 
L 267.605224 -112.259137 
L 267.605224 -113.242171 
L 267.605224 -114.225204 
L 267.605224 -115.208238 
L 267.605224 -116.191272 
L 267.605224 -117.174305 
L 267.605224 -118.157339 
L 267.605224 -119.140373 
L 267.605224 -120.123406 
L 267.605224 -121.10644 
L 267.605224 -122.089474 
L 267.605224 -123.072507 
L 267.605224 -124.055541 
L 267.605224 -125.038575 
L 267.605224 -126.021608 
L 267.605224 -127.004642 
L 267.605224 -127.987676 
L 267.605224 -128.97071 
L 267.605224 -129.953743 
L 267.605224 -130.936777 
L 267.605224 -131.919811 
L 267.605224 -132.902844 
L 267.605224 -133.885878 
L 267.605224 -134.868912 
L 267.605224 -135.851945 
L 267.605224 -136.834979 
L 267.605224 -137.818013 
L 267.605224 -138.801046 
L 267.605224 -139.78408 
L 267.605224 -140.767114 
L 267.605224 -141.750147 
L 267.605224 -142.733181 
L 267.605224 -143.716215 
L 267.605224 -144.699248 
L 267.605224 -145.682282 
L 267.605224 -146.665316 
L 267.605224 -147.648349 
L 267.605224 -148.631383 
L 267.605224 -149.614417 
L 267.605224 -150.597451 
L 267.605224 -151.580484 
L 267.605224 -152.563518 
L 267.605224 -153.546552 
L 267.605224 -154.529585 
L 267.605224 -155.512619 
L 267.605224 -156.495653 
L 267.605224 -157.478686 
L 267.605224 -158.46172 
L 268.060202 -158.46172 
L 268.060202 -158.46172 
L 268.097305 -157.478686 
L 268.129686 -156.495653 
L 268.161096 -155.512619 
L 268.196912 -154.529585 
L 268.243331 -153.546552 
L 268.306339 -152.563518 
L 268.390685 -151.580484 
L 268.499076 -150.597451 
L 268.631766 -149.614417 
L 268.78662 -148.631383 
L 268.959633 -147.648349 
L 269.145776 -146.665316 
L 269.339959 -145.682282 
L 269.537895 -144.699248 
L 269.736672 -143.716215 
L 269.934938 -142.733181 
L 270.132731 -141.750147 
L 270.331062 -140.767114 
L 270.531442 -139.78408 
L 270.735504 -138.801046 
L 270.944806 -137.818013 
L 271.160838 -136.834979 
L 271.385138 -135.851945 
L 271.61946 -134.868912 
L 271.865865 -133.885878 
L 272.126708 -132.902844 
L 272.404461 -131.919811 
L 272.701364 -130.936777 
L 273.018931 -129.953743 
L 273.3574 -128.97071 
L 273.71527 -127.987676 
L 274.089164 -127.004642 
L 274.474206 -126.021608 
L 274.865017 -125.038575 
L 275.25719 -124.055541 
L 275.648907 -123.072507 
L 276.042176 -122.089474 
L 276.44323 -121.10644 
L 276.861792 -120.123406 
L 277.309317 -119.140373 
L 277.796607 -118.157339 
L 278.331423 -117.174305 
L 278.916671 -116.191272 
L 279.549533 -115.208238 
L 280.221554 -114.225204 
L 280.919508 -113.242171 
L 281.626697 -112.259137 
L 282.324506 -111.276103 
L 282.994113 -110.29307 
L 283.618395 -109.310036 
L 284.183959 -108.327002 
L 284.683002 -107.343969 
L 285.11443 -106.360935 
L 285.483595 -105.377901 
L 285.800175 -104.394867 
L 286.074323 -103.411834 
L 286.311821 -102.4288 
L 286.50958 -101.445766 
L 286.652961 -100.462733 
L 286.71607 -99.479699 
L 286.665339 -98.496665 
L 286.465762 -97.513632 
L 286.088329 -96.530598 
L 285.516806 -95.547564 
L 284.752227 -94.564531 
L 283.814108 -93.581497 
L 282.738274 -92.598463 
L 281.572018 -91.61543 
L 280.3678 -90.632396 
L 279.176792 -89.649362 
L 278.043379 -88.666329 
L 277.001236 -87.683295 
L 276.071257 -86.700261 
L 275.261226 -85.717228 
L 274.567016 -84.734194 
L 273.974992 -83.75116 
L 273.465257 -82.768126 
L 273.015326 -81.785093 
L 272.603682 -80.802059 
L 272.21271 -79.819025 
L 271.830509 -78.835992 
L 271.451397 -77.852958 
L 271.075164 -76.869924 
L 270.705475 -75.886891 
L 270.347977 -74.903857 
L 270.008619 -73.920823 
L 269.692534 -72.93779 
L 269.403544 -71.954756 
L 269.144131 -70.971722 
L 268.915608 -69.988689 
L 268.718273 -69.005655 
L 268.55142 -68.022621 
L 268.413257 -67.039588 
L 268.300848 -66.056554 
L 268.210216 -65.07352 
L 268.13666 -64.090487 
L 268.075282 -63.107453 
L 268.021587 -62.124419 
L 267.972025 -61.141385 
z
" id="ma8d3fc98f8" style="stroke:#4c4c4c;stroke-width:1.5;"/>
    </defs>
    <g clip-path="url(#p0d8f8fe544)">
     <use style="fill:#20dfdf;stroke:#4c4c4c;stroke-width:1.5;" x="0" xlink:href="#ma8d3fc98f8" y="252"/>
    </g>
   </g>
   <g id="PolyCollection_9">
    <defs>
     <path d="M 325.379792 -49.205873 
L 312.458181 -49.205873 
L 311.428011 -50.27469 
L 310.404676 -51.343507 
L 309.39922 -52.412325 
L 308.422761 -53.481142 
L 307.486277 -54.549959 
L 306.600389 -55.618776 
L 305.775171 -56.687594 
L 305.019975 -57.756411 
L 304.343281 -58.825228 
L 303.752573 -59.894046 
L 303.254233 -60.962863 
L 302.853471 -62.03168 
L 302.554257 -63.100497 
L 302.359289 -64.169315 
L 302.269965 -65.238132 
L 302.286365 -66.306949 
L 302.407255 -67.375767 
L 302.630093 -68.444584 
L 302.951048 -69.513401 
L 303.365039 -70.582218 
L 303.865782 -71.651036 
L 304.445865 -72.719853 
L 305.096844 -73.78867 
L 305.809362 -74.857487 
L 306.573299 -75.926305 
L 307.377949 -76.995122 
L 308.212221 -78.063939 
L 309.064861 -79.132757 
L 309.924689 -80.201574 
L 310.780844 -81.270391 
L 311.623022 -82.339208 
L 312.441707 -83.408026 
L 313.228374 -84.476843 
L 313.975661 -85.54566 
L 314.6775 -86.614478 
L 315.329199 -87.683295 
L 315.927472 -88.752112 
L 316.470418 -89.820929 
L 316.957445 -90.889747 
L 317.389153 -91.958564 
L 317.767166 -93.027381 
L 318.093951 -94.096199 
L 318.3726 -95.165016 
L 318.606618 -96.233833 
L 318.799708 -97.30265 
L 318.955576 -98.371468 
L 319.077764 -99.440285 
L 319.16951 -100.509102 
L 319.233664 -101.57792 
L 319.272627 -102.646737 
L 319.288356 -103.715554 
L 319.282396 -104.784371 
L 319.255952 -105.853189 
L 319.209997 -106.922006 
L 319.145389 -107.990823 
L 319.063008 -109.059641 
L 318.963886 -110.128458 
L 318.849328 -111.197275 
L 318.721017 -112.266092 
L 318.581078 -113.33491 
L 318.432123 -114.403727 
L 318.27725 -115.472544 
L 318.120006 -116.541361 
L 317.964309 -117.610179 
L 317.814352 -118.678996 
L 317.674462 -119.747813 
L 317.548963 -120.816631 
L 317.442012 -121.885448 
L 317.357451 -122.954265 
L 317.298664 -124.023082 
L 317.268451 -125.0919 
L 317.268932 -126.160717 
L 317.30148 -127.229534 
L 317.366688 -128.298352 
L 317.464369 -129.367169 
L 317.59359 -130.435986 
L 317.752734 -131.504803 
L 317.939588 -132.573621 
L 318.151444 -133.642438 
L 318.385222 -134.711255 
L 318.637589 -135.780073 
L 318.905079 -136.84889 
L 319.184214 -137.917707 
L 319.471601 -138.986524 
L 319.764025 -140.055342 
L 320.058522 -141.124159 
L 320.35243 -142.192976 
L 320.643423 -143.261794 
L 320.92953 -144.330611 
L 321.209134 -145.399428 
L 321.480957 -146.468245 
L 321.744035 -147.537063 
L 321.997682 -148.60588 
L 322.24145 -149.674697 
L 322.475082 -150.743515 
L 322.698473 -151.812332 
L 322.911624 -152.881149 
L 323.114609 -153.949966 
L 323.307536 -155.018784 
L 325.379792 -155.018784 
L 325.379792 -155.018784 
L 325.379792 -153.949966 
L 325.379792 -152.881149 
L 325.379792 -151.812332 
L 325.379792 -150.743515 
L 325.379792 -149.674697 
L 325.379792 -148.60588 
L 325.379792 -147.537063 
L 325.379792 -146.468245 
L 325.379792 -145.399428 
L 325.379792 -144.330611 
L 325.379792 -143.261794 
L 325.379792 -142.192976 
L 325.379792 -141.124159 
L 325.379792 -140.055342 
L 325.379792 -138.986524 
L 325.379792 -137.917707 
L 325.379792 -136.84889 
L 325.379792 -135.780073 
L 325.379792 -134.711255 
L 325.379792 -133.642438 
L 325.379792 -132.573621 
L 325.379792 -131.504803 
L 325.379792 -130.435986 
L 325.379792 -129.367169 
L 325.379792 -128.298352 
L 325.379792 -127.229534 
L 325.379792 -126.160717 
L 325.379792 -125.0919 
L 325.379792 -124.023082 
L 325.379792 -122.954265 
L 325.379792 -121.885448 
L 325.379792 -120.816631 
L 325.379792 -119.747813 
L 325.379792 -118.678996 
L 325.379792 -117.610179 
L 325.379792 -116.541361 
L 325.379792 -115.472544 
L 325.379792 -114.403727 
L 325.379792 -113.33491 
L 325.379792 -112.266092 
L 325.379792 -111.197275 
L 325.379792 -110.128458 
L 325.379792 -109.059641 
L 325.379792 -107.990823 
L 325.379792 -106.922006 
L 325.379792 -105.853189 
L 325.379792 -104.784371 
L 325.379792 -103.715554 
L 325.379792 -102.646737 
L 325.379792 -101.57792 
L 325.379792 -100.509102 
L 325.379792 -99.440285 
L 325.379792 -98.371468 
L 325.379792 -97.30265 
L 325.379792 -96.233833 
L 325.379792 -95.165016 
L 325.379792 -94.096199 
L 325.379792 -93.027381 
L 325.379792 -91.958564 
L 325.379792 -90.889747 
L 325.379792 -89.820929 
L 325.379792 -88.752112 
L 325.379792 -87.683295 
L 325.379792 -86.614478 
L 325.379792 -85.54566 
L 325.379792 -84.476843 
L 325.379792 -83.408026 
L 325.379792 -82.339208 
L 325.379792 -81.270391 
L 325.379792 -80.201574 
L 325.379792 -79.132757 
L 325.379792 -78.063939 
L 325.379792 -76.995122 
L 325.379792 -75.926305 
L 325.379792 -74.857487 
L 325.379792 -73.78867 
L 325.379792 -72.719853 
L 325.379792 -71.651036 
L 325.379792 -70.582218 
L 325.379792 -69.513401 
L 325.379792 -68.444584 
L 325.379792 -67.375767 
L 325.379792 -66.306949 
L 325.379792 -65.238132 
L 325.379792 -64.169315 
L 325.379792 -63.100497 
L 325.379792 -62.03168 
L 325.379792 -60.962863 
L 325.379792 -59.894046 
L 325.379792 -58.825228 
L 325.379792 -57.756411 
L 325.379792 -56.687594 
L 325.379792 -55.618776 
L 325.379792 -54.549959 
L 325.379792 -53.481142 
L 325.379792 -52.412325 
L 325.379792 -51.343507 
L 325.379792 -50.27469 
L 325.379792 -49.205873 
z
" id="m1269d3217c" style="stroke:#4c4c4c;stroke-width:1.5;"/>
    </defs>
    <g clip-path="url(#p0d8f8fe544)">
     <use style="fill:#20df20;stroke:#4c4c4c;stroke-width:1.5;" x="0" xlink:href="#m1269d3217c" y="252"/>
    </g>
   </g>
   <g id="PolyCollection_10">
    <defs>
     <path d="M 333.926025 -49.205873 
L 325.379792 -49.205873 
L 325.379792 -50.392932 
L 325.379792 -51.579992 
L 325.379792 -52.767051 
L 325.379792 -53.954111 
L 325.379792 -55.14117 
L 325.379792 -56.32823 
L 325.379792 -57.51529 
L 325.379792 -58.702349 
L 325.379792 -59.889409 
L 325.379792 -61.076468 
L 325.379792 -62.263528 
L 325.379792 -63.450587 
L 325.379792 -64.637647 
L 325.379792 -65.824706 
L 325.379792 -67.011766 
L 325.379792 -68.198825 
L 325.379792 -69.385885 
L 325.379792 -70.572944 
L 325.379792 -71.760004 
L 325.379792 -72.947064 
L 325.379792 -74.134123 
L 325.379792 -75.321183 
L 325.379792 -76.508242 
L 325.379792 -77.695302 
L 325.379792 -78.882361 
L 325.379792 -80.069421 
L 325.379792 -81.25648 
L 325.379792 -82.44354 
L 325.379792 -83.630599 
L 325.379792 -84.817659 
L 325.379792 -86.004718 
L 325.379792 -87.191778 
L 325.379792 -88.378838 
L 325.379792 -89.565897 
L 325.379792 -90.752957 
L 325.379792 -91.940016 
L 325.379792 -93.127076 
L 325.379792 -94.314135 
L 325.379792 -95.501195 
L 325.379792 -96.688254 
L 325.379792 -97.875314 
L 325.379792 -99.062373 
L 325.379792 -100.249433 
L 325.379792 -101.436493 
L 325.379792 -102.623552 
L 325.379792 -103.810612 
L 325.379792 -104.997671 
L 325.379792 -106.184731 
L 325.379792 -107.37179 
L 325.379792 -108.55885 
L 325.379792 -109.745909 
L 325.379792 -110.932969 
L 325.379792 -112.120028 
L 325.379792 -113.307088 
L 325.379792 -114.494147 
L 325.379792 -115.681207 
L 325.379792 -116.868267 
L 325.379792 -118.055326 
L 325.379792 -119.242386 
L 325.379792 -120.429445 
L 325.379792 -121.616505 
L 325.379792 -122.803564 
L 325.379792 -123.990624 
L 325.379792 -125.177683 
L 325.379792 -126.364743 
L 325.379792 -127.551802 
L 325.379792 -128.738862 
L 325.379792 -129.925922 
L 325.379792 -131.112981 
L 325.379792 -132.300041 
L 325.379792 -133.4871 
L 325.379792 -134.67416 
L 325.379792 -135.861219 
L 325.379792 -137.048279 
L 325.379792 -138.235338 
L 325.379792 -139.422398 
L 325.379792 -140.609457 
L 325.379792 -141.796517 
L 325.379792 -142.983576 
L 325.379792 -144.170636 
L 325.379792 -145.357696 
L 325.379792 -146.544755 
L 325.379792 -147.731815 
L 325.379792 -148.918874 
L 325.379792 -150.105934 
L 325.379792 -151.292993 
L 325.379792 -152.480053 
L 325.379792 -153.667112 
L 325.379792 -154.854172 
L 325.379792 -156.041231 
L 325.379792 -157.228291 
L 325.379792 -158.41535 
L 325.379792 -159.60241 
L 325.379792 -160.78947 
L 325.379792 -161.976529 
L 325.379792 -163.163589 
L 325.379792 -164.350648 
L 325.379792 -165.537708 
L 325.379792 -166.724767 
L 326.697637 -166.724767 
L 326.697637 -166.724767 
L 326.880422 -165.537708 
L 327.082742 -164.350648 
L 327.305201 -163.163589 
L 327.54804 -161.976529 
L 327.811077 -160.78947 
L 328.093659 -159.60241 
L 328.394635 -158.41535 
L 328.712352 -157.228291 
L 329.044675 -156.041231 
L 329.38903 -154.854172 
L 329.742475 -153.667112 
L 330.101791 -152.480053 
L 330.463588 -151.292993 
L 330.824424 -150.105934 
L 331.180926 -148.918874 
L 331.529906 -147.731815 
L 331.868467 -146.544755 
L 332.194085 -145.357696 
L 332.504679 -144.170636 
L 332.798636 -142.983576 
L 333.074821 -141.796517 
L 333.33255 -140.609457 
L 333.571534 -139.422398 
L 333.791808 -138.235338 
L 333.993631 -137.048279 
L 334.177387 -135.861219 
L 334.343477 -134.67416 
L 334.492215 -133.4871 
L 334.623746 -132.300041 
L 334.737974 -131.112981 
L 334.834524 -129.925922 
L 334.912732 -128.738862 
L 334.971665 -127.551802 
L 335.010178 -126.364743 
L 335.027003 -125.177683 
L 335.020855 -123.990624 
L 334.990574 -122.803564 
L 334.935258 -121.616505 
L 334.854421 -120.429445 
L 334.748126 -119.242386 
L 334.617113 -118.055326 
L 334.462894 -116.868267 
L 334.287817 -115.681207 
L 334.095097 -114.494147 
L 333.888796 -113.307088 
L 333.673773 -112.120028 
L 333.455582 -110.932969 
L 333.240351 -109.745909 
L 333.034621 -108.55885 
L 332.845177 -107.37179 
L 332.678863 -106.184731 
L 332.542402 -104.997671 
L 332.442218 -103.810612 
L 332.384284 -102.623552 
L 332.373979 -101.436493 
L 332.41598 -100.249433 
L 332.514164 -99.062373 
L 332.671553 -97.875314 
L 332.890255 -96.688254 
L 333.171445 -95.501195 
L 333.515338 -94.314135 
L 333.921182 -93.127076 
L 334.387244 -91.940016 
L 334.910799 -90.752957 
L 335.488121 -89.565897 
L 336.114467 -88.378838 
L 336.78407 -87.191778 
L 337.490127 -86.004718 
L 338.224813 -84.817659 
L 338.979303 -83.630599 
L 339.743826 -82.44354 
L 340.507751 -81.25648 
L 341.259703 -80.069421 
L 341.98773 -78.882361 
L 342.679508 -77.695302 
L 343.32258 -76.508242 
L 343.90464 -75.321183 
L 344.413832 -74.134123 
L 344.839074 -72.947064 
L 345.170381 -71.760004 
L 345.39918 -70.572944 
L 345.518593 -69.385885 
L 345.523688 -68.198825 
L 345.411672 -67.011766 
L 345.182023 -65.824706 
L 344.836546 -64.637647 
L 344.37936 -63.450587 
L 343.816796 -62.263528 
L 343.157232 -61.076468 
L 342.410853 -59.889409 
L 341.58935 -58.702349 
L 340.705584 -57.51529 
L 339.773203 -56.32823 
L 338.806263 -55.14117 
L 337.818829 -53.954111 
L 336.824607 -52.767051 
L 335.836604 -51.579992 
L 334.866825 -50.392932 
L 333.926025 -49.205873 
z
" id="m449c2f4abe" style="stroke:#4c4c4c;stroke-width:1.5;"/>
    </defs>
    <g clip-path="url(#p0d8f8fe544)">
     <use style="fill:#20dfdf;stroke:#4c4c4c;stroke-width:1.5;" x="0" xlink:href="#m449c2f4abe" y="252"/>
    </g>
   </g>
   <g id="PathCollection_1">
    <defs>
     <path d="M 0 3 
C 0.795609 3 1.55874 2.683901 2.12132 2.12132 
C 2.683901 1.55874 3 0.795609 3 -0 
C 3 -0.795609 2.683901 -1.55874 2.12132 -2.12132 
C 1.55874 -2.683901 0.795609 -3 0 -3 
C -0.795609 -3 -1.55874 -2.683901 -2.12132 -2.12132 
C -2.683901 -1.55874 -3 -0.795609 -3 0 
C -3 0.795609 -2.683901 1.55874 -2.12132 2.12132 
C -1.55874 2.683901 -0.795609 3 0 3 
z
" id="C0_0_72c4370aa9"/>
    </defs>
    <g clip-path="url(#p0d8f8fe544)">
     <use style="fill:#0000ff;stroke:#ffffff;stroke-width:0.48;" x="377.376904" xlink:href="#C0_0_72c4370aa9" y="153.812619"/>
    </g>
    <g clip-path="url(#p0d8f8fe544)">
     <use style="fill:#dc143c;stroke:#ffffff;stroke-width:0.48;" x="377.376904" xlink:href="#C0_0_72c4370aa9" y="167.033495"/>
    </g>
    <g clip-path="url(#p0d8f8fe544)">
     <use style="fill:#008000;stroke:#ffffff;stroke-width:0.48;" x="377.376904" xlink:href="#C0_0_72c4370aa9" y="133.797683"/>
    </g>
    <g clip-path="url(#p0d8f8fe544)">
     <use style="stroke:#ffffff;stroke-width:0.48;" x="377.376904" xlink:href="#C0_0_72c4370aa9" y="136.552032"/>
    </g>
    <g clip-path="url(#p0d8f8fe544)">
     <use style="fill:#ffa500;stroke:#ffffff;stroke-width:0.48;" x="377.376904" xlink:href="#C0_0_72c4370aa9" y="178.234515"/>
    </g>
   </g>
   <g id="PathCollection_2"/>
   <g id="PathCollection_3"/>
   <g id="PathCollection_4"/>
   <g id="PathCollection_5"/>
   <g id="PathCollection_6"/>
   <g id="PathCollection_7">
    <defs>
     <path d="M 0 3 
C 0.795609 3 1.55874 2.683901 2.12132 2.12132 
C 2.683901 1.55874 3 0.795609 3 -0 
C 3 -0.795609 2.683901 -1.55874 2.12132 -2.12132 
C 1.55874 -2.683901 0.795609 -3 0 -3 
C -0.795609 -3 -1.55874 -2.683901 -2.12132 -2.12132 
C -2.683901 -1.55874 -3 -0.795609 -3 0 
C -3 0.795609 -2.683901 1.55874 -2.12132 2.12132 
C -1.55874 2.683901 -0.795609 3 0 3 
z
" id="C1_0_2eba8d2316"/>
    </defs>
    <g clip-path="url(#p0d8f8fe544)">
     <use style="fill:#0000ff;stroke:#ffffff;stroke-width:0.48;" x="388.931818" xlink:href="#C1_0_2eba8d2316" y="164.830016"/>
    </g>
    <g clip-path="url(#p0d8f8fe544)">
     <use style="fill:#dc143c;stroke:#ffffff;stroke-width:0.48;" x="388.931818" xlink:href="#C1_0_2eba8d2316" y="149.818813"/>
    </g>
    <g clip-path="url(#p0d8f8fe544)">
     <use style="fill:#008000;stroke:#ffffff;stroke-width:0.48;" x="388.931818" xlink:href="#C1_0_2eba8d2316" y="147.018558"/>
    </g>
    <g clip-path="url(#p0d8f8fe544)">
     <use style="stroke:#ffffff;stroke-width:0.48;" x="388.931818" xlink:href="#C1_0_2eba8d2316" y="138.709605"/>
    </g>
    <g clip-path="url(#p0d8f8fe544)">
     <use style="fill:#ffa500;stroke:#ffffff;stroke-width:0.48;" x="388.931818" xlink:href="#C1_0_2eba8d2316" y="81.373238"/>
    </g>
   </g>
   <g id="PathCollection_8"/>
   <g id="PathCollection_9"/>
   <g id="PathCollection_10"/>
   <g id="PathCollection_11"/>
   <g id="PathCollection_12"/>
   <g id="patch_3">
    <path clip-path="url(#p0d8f8fe544)" d="M 94.281517 202.794127 
L 94.281517 202.794127 
L 94.281517 202.794127 
L 94.281517 202.794127 
z
" style="fill:#20df20;stroke:#4c4c4c;stroke-linejoin:miter;stroke-width:0.75;"/>
   </g>
   <g id="patch_4">
    <path clip-path="url(#p0d8f8fe544)" d="M 94.281517 202.794127 
L 94.281517 202.794127 
L 94.281517 202.794127 
L 94.281517 202.794127 
z
" style="fill:#20dfdf;stroke:#4c4c4c;stroke-linejoin:miter;stroke-width:0.75;"/>
   </g>
   <g id="matplotlib.axis_1">
    <g id="xtick_1">
     <g id="line2d_1">
      <defs>
       <path d="M 0 0 
L 0 3.5 
" id="m1a1a3f0f4f" style="stroke:#000000;stroke-width:0.8;"/>
      </defs>
      <g>
       <use style="stroke:#000000;stroke-width:0.8;" x="94.281517" xlink:href="#m1a1a3f0f4f" y="209.68"/>
      </g>
     </g>
     <g id="text_1">
      <!-- 0 -->
      <g transform="translate(91.100267 224.278437)scale(0.1 -0.1)">
       <defs>
        <path d="M 2034 4250 
Q 1547 4250 1301 3770 
Q 1056 3291 1056 2328 
Q 1056 1369 1301 889 
Q 1547 409 2034 409 
Q 2525 409 2770 889 
Q 3016 1369 3016 2328 
Q 3016 3291 2770 3770 
Q 2525 4250 2034 4250 
z
M 2034 4750 
Q 2819 4750 3233 4129 
Q 3647 3509 3647 2328 
Q 3647 1150 3233 529 
Q 2819 -91 2034 -91 
Q 1250 -91 836 529 
Q 422 1150 422 2328 
Q 422 3509 836 4129 
Q 1250 4750 2034 4750 
z
" id="DejaVuSans-30" transform="scale(0.015625)"/>
       </defs>
       <use xlink:href="#DejaVuSans-30"/>
      </g>
     </g>
    </g>
    <g id="xtick_2">
     <g id="line2d_2">
      <g>
       <use style="stroke:#000000;stroke-width:0.8;" x="152.056086" xlink:href="#m1a1a3f0f4f" y="209.68"/>
      </g>
     </g>
     <g id="text_2">
      <!-- 1 -->
      <g transform="translate(148.874836 224.278437)scale(0.1 -0.1)">
       <defs>
        <path d="M 794 531 
L 1825 531 
L 1825 4091 
L 703 3866 
L 703 4441 
L 1819 4666 
L 2450 4666 
L 2450 531 
L 3481 531 
L 3481 0 
L 794 0 
L 794 531 
z
" id="DejaVuSans-31" transform="scale(0.015625)"/>
       </defs>
       <use xlink:href="#DejaVuSans-31"/>
      </g>
     </g>
    </g>
    <g id="xtick_3">
     <g id="line2d_3">
      <g>
       <use style="stroke:#000000;stroke-width:0.8;" x="209.830655" xlink:href="#m1a1a3f0f4f" y="209.68"/>
      </g>
     </g>
     <g id="text_3">
      <!-- 2 -->
      <g transform="translate(206.649405 224.278437)scale(0.1 -0.1)">
       <defs>
        <path d="M 1228 531 
L 3431 531 
L 3431 0 
L 469 0 
L 469 531 
Q 828 903 1448 1529 
Q 2069 2156 2228 2338 
Q 2531 2678 2651 2914 
Q 2772 3150 2772 3378 
Q 2772 3750 2511 3984 
Q 2250 4219 1831 4219 
Q 1534 4219 1204 4116 
Q 875 4013 500 3803 
L 500 4441 
Q 881 4594 1212 4672 
Q 1544 4750 1819 4750 
Q 2544 4750 2975 4387 
Q 3406 4025 3406 3419 
Q 3406 3131 3298 2873 
Q 3191 2616 2906 2266 
Q 2828 2175 2409 1742 
Q 1991 1309 1228 531 
z
" id="DejaVuSans-32" transform="scale(0.015625)"/>
       </defs>
       <use xlink:href="#DejaVuSans-32"/>
      </g>
     </g>
    </g>
    <g id="xtick_4">
     <g id="line2d_4">
      <g>
       <use style="stroke:#000000;stroke-width:0.8;" x="267.605224" xlink:href="#m1a1a3f0f4f" y="209.68"/>
      </g>
     </g>
     <g id="text_4">
      <!-- 3 -->
      <g transform="translate(264.423974 224.278437)scale(0.1 -0.1)">
       <defs>
        <path d="M 2597 2516 
Q 3050 2419 3304 2112 
Q 3559 1806 3559 1356 
Q 3559 666 3084 287 
Q 2609 -91 1734 -91 
Q 1441 -91 1130 -33 
Q 819 25 488 141 
L 488 750 
Q 750 597 1062 519 
Q 1375 441 1716 441 
Q 2309 441 2620 675 
Q 2931 909 2931 1356 
Q 2931 1769 2642 2001 
Q 2353 2234 1838 2234 
L 1294 2234 
L 1294 2753 
L 1863 2753 
Q 2328 2753 2575 2939 
Q 2822 3125 2822 3475 
Q 2822 3834 2567 4026 
Q 2313 4219 1838 4219 
Q 1578 4219 1281 4162 
Q 984 4106 628 3988 
L 628 4550 
Q 988 4650 1302 4700 
Q 1616 4750 1894 4750 
Q 2613 4750 3031 4423 
Q 3450 4097 3450 3541 
Q 3450 3153 3228 2886 
Q 3006 2619 2597 2516 
z
" id="DejaVuSans-33" transform="scale(0.015625)"/>
       </defs>
       <use xlink:href="#DejaVuSans-33"/>
      </g>
     </g>
    </g>
    <g id="xtick_5">
     <g id="line2d_5">
      <g>
       <use style="stroke:#000000;stroke-width:0.8;" x="325.379792" xlink:href="#m1a1a3f0f4f" y="209.68"/>
      </g>
     </g>
     <g id="text_5">
      <!-- 4 -->
      <g transform="translate(322.198542 224.278437)scale(0.1 -0.1)">
       <defs>
        <path d="M 2419 4116 
L 825 1625 
L 2419 1625 
L 2419 4116 
z
M 2253 4666 
L 3047 4666 
L 3047 1625 
L 3713 1625 
L 3713 1100 
L 3047 1100 
L 3047 0 
L 2419 0 
L 2419 1100 
L 313 1100 
L 313 1709 
L 2253 4666 
z
" id="DejaVuSans-34" transform="scale(0.015625)"/>
       </defs>
       <use xlink:href="#DejaVuSans-34"/>
      </g>
     </g>
    </g>
    <g id="xtick_6">
     <g id="line2d_6">
      <g>
       <use style="stroke:#000000;stroke-width:0.8;" x="383.154361" xlink:href="#m1a1a3f0f4f" y="209.68"/>
      </g>
     </g>
     <g id="text_6">
      <!-- Patients (L|R) -->
      <g transform="translate(349.705924 224.322187)scale(0.1 -0.1)">
       <defs>
        <path d="M 1259 4147 
L 1259 2394 
L 2053 2394 
Q 2494 2394 2734 2622 
Q 2975 2850 2975 3272 
Q 2975 3691 2734 3919 
Q 2494 4147 2053 4147 
L 1259 4147 
z
M 628 4666 
L 2053 4666 
Q 2838 4666 3239 4311 
Q 3641 3956 3641 3272 
Q 3641 2581 3239 2228 
Q 2838 1875 2053 1875 
L 1259 1875 
L 1259 0 
L 628 0 
L 628 4666 
z
" id="DejaVuSans-50" transform="scale(0.015625)"/>
        <path d="M 2194 1759 
Q 1497 1759 1228 1600 
Q 959 1441 959 1056 
Q 959 750 1161 570 
Q 1363 391 1709 391 
Q 2188 391 2477 730 
Q 2766 1069 2766 1631 
L 2766 1759 
L 2194 1759 
z
M 3341 1997 
L 3341 0 
L 2766 0 
L 2766 531 
Q 2569 213 2275 61 
Q 1981 -91 1556 -91 
Q 1019 -91 701 211 
Q 384 513 384 1019 
Q 384 1609 779 1909 
Q 1175 2209 1959 2209 
L 2766 2209 
L 2766 2266 
Q 2766 2663 2505 2880 
Q 2244 3097 1772 3097 
Q 1472 3097 1187 3025 
Q 903 2953 641 2809 
L 641 3341 
Q 956 3463 1253 3523 
Q 1550 3584 1831 3584 
Q 2591 3584 2966 3190 
Q 3341 2797 3341 1997 
z
" id="DejaVuSans-61" transform="scale(0.015625)"/>
        <path d="M 1172 4494 
L 1172 3500 
L 2356 3500 
L 2356 3053 
L 1172 3053 
L 1172 1153 
Q 1172 725 1289 603 
Q 1406 481 1766 481 
L 2356 481 
L 2356 0 
L 1766 0 
Q 1100 0 847 248 
Q 594 497 594 1153 
L 594 3053 
L 172 3053 
L 172 3500 
L 594 3500 
L 594 4494 
L 1172 4494 
z
" id="DejaVuSans-74" transform="scale(0.015625)"/>
        <path d="M 603 3500 
L 1178 3500 
L 1178 0 
L 603 0 
L 603 3500 
z
M 603 4863 
L 1178 4863 
L 1178 4134 
L 603 4134 
L 603 4863 
z
" id="DejaVuSans-69" transform="scale(0.015625)"/>
        <path d="M 3597 1894 
L 3597 1613 
L 953 1613 
Q 991 1019 1311 708 
Q 1631 397 2203 397 
Q 2534 397 2845 478 
Q 3156 559 3463 722 
L 3463 178 
Q 3153 47 2828 -22 
Q 2503 -91 2169 -91 
Q 1331 -91 842 396 
Q 353 884 353 1716 
Q 353 2575 817 3079 
Q 1281 3584 2069 3584 
Q 2775 3584 3186 3129 
Q 3597 2675 3597 1894 
z
M 3022 2063 
Q 3016 2534 2758 2815 
Q 2500 3097 2075 3097 
Q 1594 3097 1305 2825 
Q 1016 2553 972 2059 
L 3022 2063 
z
" id="DejaVuSans-65" transform="scale(0.015625)"/>
        <path d="M 3513 2113 
L 3513 0 
L 2938 0 
L 2938 2094 
Q 2938 2591 2744 2837 
Q 2550 3084 2163 3084 
Q 1697 3084 1428 2787 
Q 1159 2491 1159 1978 
L 1159 0 
L 581 0 
L 581 3500 
L 1159 3500 
L 1159 2956 
Q 1366 3272 1645 3428 
Q 1925 3584 2291 3584 
Q 2894 3584 3203 3211 
Q 3513 2838 3513 2113 
z
" id="DejaVuSans-6e" transform="scale(0.015625)"/>
        <path d="M 2834 3397 
L 2834 2853 
Q 2591 2978 2328 3040 
Q 2066 3103 1784 3103 
Q 1356 3103 1142 2972 
Q 928 2841 928 2578 
Q 928 2378 1081 2264 
Q 1234 2150 1697 2047 
L 1894 2003 
Q 2506 1872 2764 1633 
Q 3022 1394 3022 966 
Q 3022 478 2636 193 
Q 2250 -91 1575 -91 
Q 1294 -91 989 -36 
Q 684 19 347 128 
L 347 722 
Q 666 556 975 473 
Q 1284 391 1588 391 
Q 1994 391 2212 530 
Q 2431 669 2431 922 
Q 2431 1156 2273 1281 
Q 2116 1406 1581 1522 
L 1381 1569 
Q 847 1681 609 1914 
Q 372 2147 372 2553 
Q 372 3047 722 3315 
Q 1072 3584 1716 3584 
Q 2034 3584 2315 3537 
Q 2597 3491 2834 3397 
z
" id="DejaVuSans-73" transform="scale(0.015625)"/>
        <path id="DejaVuSans-20" transform="scale(0.015625)"/>
        <path d="M 1984 4856 
Q 1566 4138 1362 3434 
Q 1159 2731 1159 2009 
Q 1159 1288 1364 580 
Q 1569 -128 1984 -844 
L 1484 -844 
Q 1016 -109 783 600 
Q 550 1309 550 2009 
Q 550 2706 781 3412 
Q 1013 4119 1484 4856 
L 1984 4856 
z
" id="DejaVuSans-28" transform="scale(0.015625)"/>
        <path d="M 628 4666 
L 1259 4666 
L 1259 531 
L 3531 531 
L 3531 0 
L 628 0 
L 628 4666 
z
" id="DejaVuSans-4c" transform="scale(0.015625)"/>
        <path d="M 1344 4891 
L 1344 -1509 
L 813 -1509 
L 813 4891 
L 1344 4891 
z
" id="DejaVuSans-7c" transform="scale(0.015625)"/>
        <path d="M 2841 2188 
Q 3044 2119 3236 1894 
Q 3428 1669 3622 1275 
L 4263 0 
L 3584 0 
L 2988 1197 
Q 2756 1666 2539 1819 
Q 2322 1972 1947 1972 
L 1259 1972 
L 1259 0 
L 628 0 
L 628 4666 
L 2053 4666 
Q 2853 4666 3247 4331 
Q 3641 3997 3641 3322 
Q 3641 2881 3436 2590 
Q 3231 2300 2841 2188 
z
M 1259 4147 
L 1259 2491 
L 2053 2491 
Q 2509 2491 2742 2702 
Q 2975 2913 2975 3322 
Q 2975 3731 2742 3939 
Q 2509 4147 2053 4147 
L 1259 4147 
z
" id="DejaVuSans-52" transform="scale(0.015625)"/>
        <path d="M 513 4856 
L 1013 4856 
Q 1481 4119 1714 3412 
Q 1947 2706 1947 2009 
Q 1947 1309 1714 600 
Q 1481 -109 1013 -844 
L 513 -844 
Q 928 -128 1133 580 
Q 1338 1288 1338 2009 
Q 1338 2731 1133 3434 
Q 928 4138 513 4856 
z
" id="DejaVuSans-29" transform="scale(0.015625)"/>
       </defs>
       <use xlink:href="#DejaVuSans-50"/>
       <use x="55.802734" xlink:href="#DejaVuSans-61"/>
       <use x="117.082031" xlink:href="#DejaVuSans-74"/>
       <use x="156.291016" xlink:href="#DejaVuSans-69"/>
       <use x="184.074219" xlink:href="#DejaVuSans-65"/>
       <use x="245.597656" xlink:href="#DejaVuSans-6e"/>
       <use x="308.976562" xlink:href="#DejaVuSans-74"/>
       <use x="348.185547" xlink:href="#DejaVuSans-73"/>
       <use x="400.285156" xlink:href="#DejaVuSans-20"/>
       <use x="432.072266" xlink:href="#DejaVuSans-28"/>
       <use x="471.085938" xlink:href="#DejaVuSans-4c"/>
       <use x="526.798828" xlink:href="#DejaVuSans-7c"/>
       <use x="560.490234" xlink:href="#DejaVuSans-52"/>
       <use x="629.972656" xlink:href="#DejaVuSans-29"/>
      </g>
     </g>
    </g>
    <g id="text_7">
     <!-- KL-grade -->
     <g transform="translate(208.624219 238.278437)scale(0.1 -0.1)">
      <defs>
       <path d="M 628 4666 
L 1259 4666 
L 1259 2694 
L 3353 4666 
L 4166 4666 
L 1850 2491 
L 4331 0 
L 3500 0 
L 1259 2247 
L 1259 0 
L 628 0 
L 628 4666 
z
" id="DejaVuSans-4b" transform="scale(0.015625)"/>
       <path d="M 313 2009 
L 1997 2009 
L 1997 1497 
L 313 1497 
L 313 2009 
z
" id="DejaVuSans-2d" transform="scale(0.015625)"/>
       <path d="M 2906 1791 
Q 2906 2416 2648 2759 
Q 2391 3103 1925 3103 
Q 1463 3103 1205 2759 
Q 947 2416 947 1791 
Q 947 1169 1205 825 
Q 1463 481 1925 481 
Q 2391 481 2648 825 
Q 2906 1169 2906 1791 
z
M 3481 434 
Q 3481 -459 3084 -895 
Q 2688 -1331 1869 -1331 
Q 1566 -1331 1297 -1286 
Q 1028 -1241 775 -1147 
L 775 -588 
Q 1028 -725 1275 -790 
Q 1522 -856 1778 -856 
Q 2344 -856 2625 -561 
Q 2906 -266 2906 331 
L 2906 616 
Q 2728 306 2450 153 
Q 2172 0 1784 0 
Q 1141 0 747 490 
Q 353 981 353 1791 
Q 353 2603 747 3093 
Q 1141 3584 1784 3584 
Q 2172 3584 2450 3431 
Q 2728 3278 2906 2969 
L 2906 3500 
L 3481 3500 
L 3481 434 
z
" id="DejaVuSans-67" transform="scale(0.015625)"/>
       <path d="M 2631 2963 
Q 2534 3019 2420 3045 
Q 2306 3072 2169 3072 
Q 1681 3072 1420 2755 
Q 1159 2438 1159 1844 
L 1159 0 
L 581 0 
L 581 3500 
L 1159 3500 
L 1159 2956 
Q 1341 3275 1631 3429 
Q 1922 3584 2338 3584 
Q 2397 3584 2469 3576 
Q 2541 3569 2628 3553 
L 2631 2963 
z
" id="DejaVuSans-72" transform="scale(0.015625)"/>
       <path d="M 2906 2969 
L 2906 4863 
L 3481 4863 
L 3481 0 
L 2906 0 
L 2906 525 
Q 2725 213 2448 61 
Q 2172 -91 1784 -91 
Q 1150 -91 751 415 
Q 353 922 353 1747 
Q 353 2572 751 3078 
Q 1150 3584 1784 3584 
Q 2172 3584 2448 3432 
Q 2725 3281 2906 2969 
z
M 947 1747 
Q 947 1113 1208 752 
Q 1469 391 1925 391 
Q 2381 391 2643 752 
Q 2906 1113 2906 1747 
Q 2906 2381 2643 2742 
Q 2381 3103 1925 3103 
Q 1469 3103 1208 2742 
Q 947 2381 947 1747 
z
" id="DejaVuSans-64" transform="scale(0.015625)"/>
      </defs>
      <use xlink:href="#DejaVuSans-4b"/>
      <use x="65.576172" xlink:href="#DejaVuSans-4c"/>
      <use x="119.539062" xlink:href="#DejaVuSans-2d"/>
      <use x="155.623047" xlink:href="#DejaVuSans-67"/>
      <use x="219.099609" xlink:href="#DejaVuSans-72"/>
      <use x="260.212891" xlink:href="#DejaVuSans-61"/>
      <use x="321.492188" xlink:href="#DejaVuSans-64"/>
      <use x="384.96875" xlink:href="#DejaVuSans-65"/>
     </g>
    </g>
   </g>
   <g id="matplotlib.axis_2">
    <g id="ytick_1">
     <g id="line2d_7">
      <defs>
       <path d="M 0 0 
L -3.5 0 
" id="mc8799ef41d" style="stroke:#000000;stroke-width:0.8;"/>
      </defs>
      <g>
       <use style="stroke:#000000;stroke-width:0.8;" x="57.17" xlink:href="#mc8799ef41d" y="202.794127"/>
      </g>
     </g>
     <g id="text_8">
      <!-- 0 -->
      <g transform="translate(43.8075 206.593346)scale(0.1 -0.1)">
       <use xlink:href="#DejaVuSans-30"/>
      </g>
     </g>
    </g>
    <g id="ytick_2">
     <g id="line2d_8">
      <g>
       <use style="stroke:#000000;stroke-width:0.8;" x="57.17" xlink:href="#mc8799ef41d" y="179.841218"/>
      </g>
     </g>
     <g id="text_9">
      <!-- 250 -->
      <g transform="translate(31.0825 183.640437)scale(0.1 -0.1)">
       <defs>
        <path d="M 691 4666 
L 3169 4666 
L 3169 4134 
L 1269 4134 
L 1269 2991 
Q 1406 3038 1543 3061 
Q 1681 3084 1819 3084 
Q 2600 3084 3056 2656 
Q 3513 2228 3513 1497 
Q 3513 744 3044 326 
Q 2575 -91 1722 -91 
Q 1428 -91 1123 -41 
Q 819 9 494 109 
L 494 744 
Q 775 591 1075 516 
Q 1375 441 1709 441 
Q 2250 441 2565 725 
Q 2881 1009 2881 1497 
Q 2881 1984 2565 2268 
Q 2250 2553 1709 2553 
Q 1456 2553 1204 2497 
Q 953 2441 691 2322 
L 691 4666 
z
" id="DejaVuSans-35" transform="scale(0.015625)"/>
       </defs>
       <use xlink:href="#DejaVuSans-32"/>
       <use x="63.623047" xlink:href="#DejaVuSans-35"/>
       <use x="127.246094" xlink:href="#DejaVuSans-30"/>
      </g>
     </g>
    </g>
    <g id="ytick_3">
     <g id="line2d_9">
      <g>
       <use style="stroke:#000000;stroke-width:0.8;" x="57.17" xlink:href="#mc8799ef41d" y="156.888309"/>
      </g>
     </g>
     <g id="text_10">
      <!-- 500 -->
      <g transform="translate(31.0825 160.687528)scale(0.1 -0.1)">
       <use xlink:href="#DejaVuSans-35"/>
       <use x="63.623047" xlink:href="#DejaVuSans-30"/>
       <use x="127.246094" xlink:href="#DejaVuSans-30"/>
      </g>
     </g>
    </g>
    <g id="ytick_4">
     <g id="line2d_10">
      <g>
       <use style="stroke:#000000;stroke-width:0.8;" x="57.17" xlink:href="#mc8799ef41d" y="133.9354"/>
      </g>
     </g>
     <g id="text_11">
      <!-- 750 -->
      <g transform="translate(31.0825 137.734619)scale(0.1 -0.1)">
       <defs>
        <path d="M 525 4666 
L 3525 4666 
L 3525 4397 
L 1831 0 
L 1172 0 
L 2766 4134 
L 525 4134 
L 525 4666 
z
" id="DejaVuSans-37" transform="scale(0.015625)"/>
       </defs>
       <use xlink:href="#DejaVuSans-37"/>
       <use x="63.623047" xlink:href="#DejaVuSans-35"/>
       <use x="127.246094" xlink:href="#DejaVuSans-30"/>
      </g>
     </g>
    </g>
    <g id="ytick_5">
     <g id="line2d_11">
      <g>
       <use style="stroke:#000000;stroke-width:0.8;" x="57.17" xlink:href="#mc8799ef41d" y="110.982491"/>
      </g>
     </g>
     <g id="text_12">
      <!-- 1000 -->
      <g transform="translate(24.72 114.78171)scale(0.1 -0.1)">
       <use xlink:href="#DejaVuSans-31"/>
       <use x="63.623047" xlink:href="#DejaVuSans-30"/>
       <use x="127.246094" xlink:href="#DejaVuSans-30"/>
       <use x="190.869141" xlink:href="#DejaVuSans-30"/>
      </g>
     </g>
    </g>
    <g id="ytick_6">
     <g id="line2d_12">
      <g>
       <use style="stroke:#000000;stroke-width:0.8;" x="57.17" xlink:href="#mc8799ef41d" y="88.029582"/>
      </g>
     </g>
     <g id="text_13">
      <!-- 1250 -->
      <g transform="translate(24.72 91.828801)scale(0.1 -0.1)">
       <use xlink:href="#DejaVuSans-31"/>
       <use x="63.623047" xlink:href="#DejaVuSans-32"/>
       <use x="127.246094" xlink:href="#DejaVuSans-35"/>
       <use x="190.869141" xlink:href="#DejaVuSans-30"/>
      </g>
     </g>
    </g>
    <g id="ytick_7">
     <g id="line2d_13">
      <g>
       <use style="stroke:#000000;stroke-width:0.8;" x="57.17" xlink:href="#mc8799ef41d" y="65.076673"/>
      </g>
     </g>
     <g id="text_14">
      <!-- 1500 -->
      <g transform="translate(24.72 68.875891)scale(0.1 -0.1)">
       <use xlink:href="#DejaVuSans-31"/>
       <use x="63.623047" xlink:href="#DejaVuSans-35"/>
       <use x="127.246094" xlink:href="#DejaVuSans-30"/>
       <use x="190.869141" xlink:href="#DejaVuSans-30"/>
      </g>
     </g>
    </g>
    <g id="text_15">
     <!-- Medial Joint Line (pixel) -->
     <g transform="translate(18.640313 192.315869)rotate(-90)scale(0.1 -0.1)">
      <defs>
       <path d="M 628 4666 
L 1569 4666 
L 2759 1491 
L 3956 4666 
L 4897 4666 
L 4897 0 
L 4281 0 
L 4281 4097 
L 3078 897 
L 2444 897 
L 1241 4097 
L 1241 0 
L 628 0 
L 628 4666 
z
" id="DejaVuSans-4d" transform="scale(0.015625)"/>
       <path d="M 603 4863 
L 1178 4863 
L 1178 0 
L 603 0 
L 603 4863 
z
" id="DejaVuSans-6c" transform="scale(0.015625)"/>
       <path d="M 628 4666 
L 1259 4666 
L 1259 325 
Q 1259 -519 939 -900 
Q 619 -1281 -91 -1281 
L -331 -1281 
L -331 -750 
L -134 -750 
Q 284 -750 456 -515 
Q 628 -281 628 325 
L 628 4666 
z
" id="DejaVuSans-4a" transform="scale(0.015625)"/>
       <path d="M 1959 3097 
Q 1497 3097 1228 2736 
Q 959 2375 959 1747 
Q 959 1119 1226 758 
Q 1494 397 1959 397 
Q 2419 397 2687 759 
Q 2956 1122 2956 1747 
Q 2956 2369 2687 2733 
Q 2419 3097 1959 3097 
z
M 1959 3584 
Q 2709 3584 3137 3096 
Q 3566 2609 3566 1747 
Q 3566 888 3137 398 
Q 2709 -91 1959 -91 
Q 1206 -91 779 398 
Q 353 888 353 1747 
Q 353 2609 779 3096 
Q 1206 3584 1959 3584 
z
" id="DejaVuSans-6f" transform="scale(0.015625)"/>
       <path d="M 1159 525 
L 1159 -1331 
L 581 -1331 
L 581 3500 
L 1159 3500 
L 1159 2969 
Q 1341 3281 1617 3432 
Q 1894 3584 2278 3584 
Q 2916 3584 3314 3078 
Q 3713 2572 3713 1747 
Q 3713 922 3314 415 
Q 2916 -91 2278 -91 
Q 1894 -91 1617 61 
Q 1341 213 1159 525 
z
M 3116 1747 
Q 3116 2381 2855 2742 
Q 2594 3103 2138 3103 
Q 1681 3103 1420 2742 
Q 1159 2381 1159 1747 
Q 1159 1113 1420 752 
Q 1681 391 2138 391 
Q 2594 391 2855 752 
Q 3116 1113 3116 1747 
z
" id="DejaVuSans-70" transform="scale(0.015625)"/>
       <path d="M 3513 3500 
L 2247 1797 
L 3578 0 
L 2900 0 
L 1881 1375 
L 863 0 
L 184 0 
L 1544 1831 
L 300 3500 
L 978 3500 
L 1906 2253 
L 2834 3500 
L 3513 3500 
z
" id="DejaVuSans-78" transform="scale(0.015625)"/>
      </defs>
      <use xlink:href="#DejaVuSans-4d"/>
      <use x="86.279297" xlink:href="#DejaVuSans-65"/>
      <use x="147.802734" xlink:href="#DejaVuSans-64"/>
      <use x="211.279297" xlink:href="#DejaVuSans-69"/>
      <use x="239.0625" xlink:href="#DejaVuSans-61"/>
      <use x="300.341797" xlink:href="#DejaVuSans-6c"/>
      <use x="328.125" xlink:href="#DejaVuSans-20"/>
      <use x="359.912109" xlink:href="#DejaVuSans-4a"/>
      <use x="389.404297" xlink:href="#DejaVuSans-6f"/>
      <use x="450.585938" xlink:href="#DejaVuSans-69"/>
      <use x="478.369141" xlink:href="#DejaVuSans-6e"/>
      <use x="541.748047" xlink:href="#DejaVuSans-74"/>
      <use x="580.957031" xlink:href="#DejaVuSans-20"/>
      <use x="612.744141" xlink:href="#DejaVuSans-4c"/>
      <use x="668.457031" xlink:href="#DejaVuSans-69"/>
      <use x="696.240234" xlink:href="#DejaVuSans-6e"/>
      <use x="759.619141" xlink:href="#DejaVuSans-65"/>
      <use x="821.142578" xlink:href="#DejaVuSans-20"/>
      <use x="852.929688" xlink:href="#DejaVuSans-28"/>
      <use x="891.943359" xlink:href="#DejaVuSans-70"/>
      <use x="955.419922" xlink:href="#DejaVuSans-69"/>
      <use x="983.203125" xlink:href="#DejaVuSans-78"/>
      <use x="1039.257812" xlink:href="#DejaVuSans-65"/>
      <use x="1100.78125" xlink:href="#DejaVuSans-6c"/>
      <use x="1128.564453" xlink:href="#DejaVuSans-29"/>
     </g>
    </g>
   </g>
   <g id="line2d_14">
    <path clip-path="url(#p0d8f8fe544)" d="M 94.281517 168.227046 
L 94.281517 103.912995 
" style="fill:none;stroke:#4c4c4c;stroke-linecap:square;stroke-width:1.5;"/>
   </g>
   <g id="line2d_15">
    <path clip-path="url(#p0d8f8fe544)" d="M 94.281517 144.126492 
L 94.281517 128.025026 
" style="fill:none;stroke:#4c4c4c;stroke-linecap:square;stroke-width:4.5;"/>
   </g>
   <g id="line2d_16">
    <path clip-path="url(#p0d8f8fe544)" d="M 152.056086 169.879656 
L 152.056086 102.21448 
" style="fill:none;stroke:#4c4c4c;stroke-linecap:square;stroke-width:1.5;"/>
   </g>
   <g id="line2d_17">
    <path clip-path="url(#p0d8f8fe544)" d="M 152.056086 146.284065 
L 152.056086 128.633278 
" style="fill:none;stroke:#4c4c4c;stroke-linecap:square;stroke-width:4.5;"/>
   </g>
   <g id="line2d_18">
    <path clip-path="url(#p0d8f8fe544)" d="M 209.830655 171.440453 
L 209.830655 102.444009 
" style="fill:none;stroke:#4c4c4c;stroke-linecap:square;stroke-width:1.5;"/>
   </g>
   <g id="line2d_19">
    <path clip-path="url(#p0d8f8fe544)" d="M 209.830655 145.572525 
L 209.830655 128.288984 
" style="fill:none;stroke:#4c4c4c;stroke-linecap:square;stroke-width:4.5;"/>
   </g>
   <g id="line2d_20">
    <path clip-path="url(#p0d8f8fe544)" d="M 267.605224 190.858615 
L 267.605224 112.405571 
" style="fill:none;stroke:#4c4c4c;stroke-linecap:square;stroke-width:1.5;"/>
   </g>
   <g id="line2d_21">
    <path clip-path="url(#p0d8f8fe544)" d="M 267.605224 162.856065 
L 267.605224 142.600123 
" style="fill:none;stroke:#4c4c4c;stroke-linecap:square;stroke-width:4.5;"/>
   </g>
   <g id="line2d_22">
    <path clip-path="url(#p0d8f8fe544)" d="M 325.379792 202.794127 
L 325.379792 85.275233 
" style="fill:none;stroke:#4c4c4c;stroke-linecap:square;stroke-width:1.5;"/>
   </g>
   <g id="line2d_23">
    <path clip-path="url(#p0d8f8fe544)" d="M 325.379792 187.599301 
L 325.379792 136.092973 
" style="fill:none;stroke:#4c4c4c;stroke-linecap:square;stroke-width:4.5;"/>
   </g>
   <g id="line2d_24">
    <path clip-path="url(#p0d8f8fe544)" d="M 383.154361 202.794127 
L 383.154361 65.076673 
" style="fill:none;stroke:#000000;stroke-linecap:square;"/>
   </g>
   <g id="patch_5">
    <path d="M 57.17 209.68 
L 57.17 58.1908 
" style="fill:none;stroke:#000000;stroke-linecap:square;stroke-linejoin:miter;stroke-width:0.8;"/>
   </g>
   <g id="patch_6">
    <path d="M 404.73 209.68 
L 404.73 58.1908 
" style="fill:none;stroke:#000000;stroke-linecap:square;stroke-linejoin:miter;stroke-width:0.8;"/>
   </g>
   <g id="patch_7">
    <path d="M 57.17 209.68 
L 404.73 209.68 
" style="fill:none;stroke:#000000;stroke-linecap:square;stroke-linejoin:miter;stroke-width:0.8;"/>
   </g>
   <g id="patch_8">
    <path d="M 57.17 58.1908 
L 404.73 58.1908 
" style="fill:none;stroke:#000000;stroke-linecap:square;stroke-linejoin:miter;stroke-width:0.8;"/>
   </g>
   <g id="PathCollection_13">
    <defs>
     <path d="M 0 1.5 
C 0.397805 1.5 0.77937 1.341951 1.06066 1.06066 
C 1.341951 0.77937 1.5 0.397805 1.5 0 
C 1.5 -0.397805 1.341951 -0.77937 1.06066 -1.06066 
C 0.77937 -1.341951 0.397805 -1.5 0 -1.5 
C -0.397805 -1.5 -0.77937 -1.341951 -1.06066 -1.06066 
C -1.341951 -0.77937 -1.5 -0.397805 -1.5 0 
C -1.5 0.397805 -1.341951 0.77937 -1.06066 1.06066 
C -0.77937 1.341951 -0.397805 1.5 0 1.5 
z
" id="mf099f2c743" style="stroke:#4c4c4c;"/>
    </defs>
    <g clip-path="url(#p0d8f8fe544)">
     <use style="fill:#ffffff;stroke:#4c4c4c;" x="94.281517" xlink:href="#mf099f2c743" y="136.597937"/>
    </g>
   </g>
   <g id="PathCollection_14">
    <g clip-path="url(#p0d8f8fe544)">
     <use style="fill:#ffffff;stroke:#4c4c4c;" x="152.056086" xlink:href="#mf099f2c743" y="137.56196"/>
    </g>
   </g>
   <g id="PathCollection_15">
    <g clip-path="url(#p0d8f8fe544)">
     <use style="fill:#ffffff;stroke:#4c4c4c;" x="209.830655" xlink:href="#mf099f2c743" y="137.470148"/>
    </g>
   </g>
   <g id="PathCollection_16">
    <g clip-path="url(#p0d8f8fe544)">
     <use style="fill:#ffffff;stroke:#4c4c4c;" x="267.605224" xlink:href="#mf099f2c743" y="154.019195"/>
    </g>
   </g>
   <g id="PathCollection_17">
    <g clip-path="url(#p0d8f8fe544)">
     <use style="fill:#ffffff;stroke:#4c4c4c;" x="325.379792" xlink:href="#mf099f2c743" y="176.535999"/>
    </g>
   </g>
   <g id="legend_1">
    <g id="patch_9">
     <path d="M 47.057031 54.644966 
L 414.842969 54.644966 
L 414.842969 22.288716 
L 47.057031 22.288716 
z
" style="fill:#ffffff;opacity:0.8;stroke:#cccccc;stroke-linejoin:miter;"/>
    </g>
    <g id="patch_10">
     <path d="M 51.057031 33.887153 
L 71.057031 33.887153 
L 71.057031 26.887153 
L 51.057031 26.887153 
z
" style="fill:#20df20;stroke:#4c4c4c;stroke-linejoin:miter;stroke-width:0.75;"/>
    </g>
    <g id="text_16">
     <!-- Left Knee -->
     <g transform="translate(79.057031 33.887153)scale(0.1 -0.1)">
      <defs>
       <path d="M 2375 4863 
L 2375 4384 
L 1825 4384 
Q 1516 4384 1395 4259 
Q 1275 4134 1275 3809 
L 1275 3500 
L 2222 3500 
L 2222 3053 
L 1275 3053 
L 1275 0 
L 697 0 
L 697 3053 
L 147 3053 
L 147 3500 
L 697 3500 
L 697 3744 
Q 697 4328 969 4595 
Q 1241 4863 1831 4863 
L 2375 4863 
z
" id="DejaVuSans-66" transform="scale(0.015625)"/>
      </defs>
      <use xlink:href="#DejaVuSans-4c"/>
      <use x="53.962891" xlink:href="#DejaVuSans-65"/>
      <use x="115.486328" xlink:href="#DejaVuSans-66"/>
      <use x="148.941406" xlink:href="#DejaVuSans-74"/>
      <use x="188.150391" xlink:href="#DejaVuSans-20"/>
      <use x="219.9375" xlink:href="#DejaVuSans-4b"/>
      <use x="285.513672" xlink:href="#DejaVuSans-6e"/>
      <use x="348.892578" xlink:href="#DejaVuSans-65"/>
      <use x="410.416016" xlink:href="#DejaVuSans-65"/>
     </g>
    </g>
    <g id="patch_11">
     <path d="M 51.057031 48.565278 
L 71.057031 48.565278 
L 71.057031 41.565278 
L 51.057031 41.565278 
z
" style="fill:#20dfdf;stroke:#4c4c4c;stroke-linejoin:miter;stroke-width:0.75;"/>
    </g>
    <g id="text_17">
     <!-- Right Knee -->
     <g transform="translate(79.057031 48.565278)scale(0.1 -0.1)">
      <defs>
       <path d="M 3513 2113 
L 3513 0 
L 2938 0 
L 2938 2094 
Q 2938 2591 2744 2837 
Q 2550 3084 2163 3084 
Q 1697 3084 1428 2787 
Q 1159 2491 1159 1978 
L 1159 0 
L 581 0 
L 581 4863 
L 1159 4863 
L 1159 2956 
Q 1366 3272 1645 3428 
Q 1925 3584 2291 3584 
Q 2894 3584 3203 3211 
Q 3513 2838 3513 2113 
z
" id="DejaVuSans-68" transform="scale(0.015625)"/>
      </defs>
      <use xlink:href="#DejaVuSans-52"/>
      <use x="69.482422" xlink:href="#DejaVuSans-69"/>
      <use x="97.265625" xlink:href="#DejaVuSans-67"/>
      <use x="160.742188" xlink:href="#DejaVuSans-68"/>
      <use x="224.121094" xlink:href="#DejaVuSans-74"/>
      <use x="263.330078" xlink:href="#DejaVuSans-20"/>
      <use x="295.117188" xlink:href="#DejaVuSans-4b"/>
      <use x="360.693359" xlink:href="#DejaVuSans-6e"/>
      <use x="424.072266" xlink:href="#DejaVuSans-65"/>
      <use x="485.595703" xlink:href="#DejaVuSans-65"/>
     </g>
    </g>
    <g id="PathCollection_18">
     <defs>
      <path d="M 0 3 
C 0.795609 3 1.55874 2.683901 2.12132 2.12132 
C 2.683901 1.55874 3 0.795609 3 0 
C 3 -0.795609 2.683901 -1.55874 2.12132 -2.12132 
C 1.55874 -2.683901 0.795609 -3 0 -3 
C -0.795609 -3 -1.55874 -2.683901 -2.12132 -2.12132 
C -2.683901 -1.55874 -3 -0.795609 -3 0 
C -3 0.795609 -2.683901 1.55874 -2.12132 2.12132 
C -1.55874 2.683901 -0.795609 3 0 3 
z
" id="m7c53ce5f91" style="stroke:#0000ff;"/>
     </defs>
     <g>
      <use style="fill:#0000ff;stroke:#0000ff;" x="163.769531" xlink:href="#m7c53ce5f91" y="31.262153"/>
     </g>
    </g>
    <g id="text_18">
     <!-- Patient 1 -->
     <g transform="translate(181.769531 33.887153)scale(0.1 -0.1)">
      <use xlink:href="#DejaVuSans-50"/>
      <use x="55.802734" xlink:href="#DejaVuSans-61"/>
      <use x="117.082031" xlink:href="#DejaVuSans-74"/>
      <use x="156.291016" xlink:href="#DejaVuSans-69"/>
      <use x="184.074219" xlink:href="#DejaVuSans-65"/>
      <use x="245.597656" xlink:href="#DejaVuSans-6e"/>
      <use x="308.976562" xlink:href="#DejaVuSans-74"/>
      <use x="348.185547" xlink:href="#DejaVuSans-20"/>
      <use x="379.972656" xlink:href="#DejaVuSans-31"/>
     </g>
    </g>
    <g id="PathCollection_19">
     <defs>
      <path d="M 0 3 
C 0.795609 3 1.55874 2.683901 2.12132 2.12132 
C 2.683901 1.55874 3 0.795609 3 0 
C 3 -0.795609 2.683901 -1.55874 2.12132 -2.12132 
C 1.55874 -2.683901 0.795609 -3 0 -3 
C -0.795609 -3 -1.55874 -2.683901 -2.12132 -2.12132 
C -2.683901 -1.55874 -3 -0.795609 -3 0 
C -3 0.795609 -2.683901 1.55874 -2.12132 2.12132 
C -1.55874 2.683901 -0.795609 3 0 3 
z
" id="med25028ce1" style="stroke:#dc143c;"/>
     </defs>
     <g>
      <use style="fill:#dc143c;stroke:#dc143c;" x="163.769531" xlink:href="#med25028ce1" y="45.940278"/>
     </g>
    </g>
    <g id="text_19">
     <!-- Patient 2 -->
     <g transform="translate(181.769531 48.565278)scale(0.1 -0.1)">
      <use xlink:href="#DejaVuSans-50"/>
      <use x="55.802734" xlink:href="#DejaVuSans-61"/>
      <use x="117.082031" xlink:href="#DejaVuSans-74"/>
      <use x="156.291016" xlink:href="#DejaVuSans-69"/>
      <use x="184.074219" xlink:href="#DejaVuSans-65"/>
      <use x="245.597656" xlink:href="#DejaVuSans-6e"/>
      <use x="308.976562" xlink:href="#DejaVuSans-74"/>
      <use x="348.185547" xlink:href="#DejaVuSans-20"/>
      <use x="379.972656" xlink:href="#DejaVuSans-32"/>
     </g>
    </g>
    <g id="PathCollection_20">
     <defs>
      <path d="M 0 3 
C 0.795609 3 1.55874 2.683901 2.12132 2.12132 
C 2.683901 1.55874 3 0.795609 3 0 
C 3 -0.795609 2.683901 -1.55874 2.12132 -2.12132 
C 1.55874 -2.683901 0.795609 -3 0 -3 
C -0.795609 -3 -1.55874 -2.683901 -2.12132 -2.12132 
C -2.683901 -1.55874 -3 -0.795609 -3 0 
C -3 0.795609 -2.683901 1.55874 -2.12132 2.12132 
C -1.55874 2.683901 -0.795609 3 0 3 
z
" id="mf8fcc194a8" style="stroke:#008000;"/>
     </defs>
     <g>
      <use style="fill:#008000;stroke:#008000;" x="256.127344" xlink:href="#mf8fcc194a8" y="31.262153"/>
     </g>
    </g>
    <g id="text_20">
     <!-- Patient 3 -->
     <g transform="translate(274.127344 33.887153)scale(0.1 -0.1)">
      <use xlink:href="#DejaVuSans-50"/>
      <use x="55.802734" xlink:href="#DejaVuSans-61"/>
      <use x="117.082031" xlink:href="#DejaVuSans-74"/>
      <use x="156.291016" xlink:href="#DejaVuSans-69"/>
      <use x="184.074219" xlink:href="#DejaVuSans-65"/>
      <use x="245.597656" xlink:href="#DejaVuSans-6e"/>
      <use x="308.976562" xlink:href="#DejaVuSans-74"/>
      <use x="348.185547" xlink:href="#DejaVuSans-20"/>
      <use x="379.972656" xlink:href="#DejaVuSans-33"/>
     </g>
    </g>
    <g id="PathCollection_21">
     <defs>
      <path d="M 0 3 
C 0.795609 3 1.55874 2.683901 2.12132 2.12132 
C 2.683901 1.55874 3 0.795609 3 0 
C 3 -0.795609 2.683901 -1.55874 2.12132 -2.12132 
C 1.55874 -2.683901 0.795609 -3 0 -3 
C -0.795609 -3 -1.55874 -2.683901 -2.12132 -2.12132 
C -2.683901 -1.55874 -3 -0.795609 -3 0 
C -3 0.795609 -2.683901 1.55874 -2.12132 2.12132 
C -1.55874 2.683901 -0.795609 3 0 3 
z
" id="m2ade3f9f49" style="stroke:#000000;"/>
     </defs>
     <g>
      <use style="stroke:#000000;" x="256.127344" xlink:href="#m2ade3f9f49" y="45.940278"/>
     </g>
    </g>
    <g id="text_21">
     <!-- Patient 4 -->
     <g transform="translate(274.127344 48.565278)scale(0.1 -0.1)">
      <use xlink:href="#DejaVuSans-50"/>
      <use x="55.802734" xlink:href="#DejaVuSans-61"/>
      <use x="117.082031" xlink:href="#DejaVuSans-74"/>
      <use x="156.291016" xlink:href="#DejaVuSans-69"/>
      <use x="184.074219" xlink:href="#DejaVuSans-65"/>
      <use x="245.597656" xlink:href="#DejaVuSans-6e"/>
      <use x="308.976562" xlink:href="#DejaVuSans-74"/>
      <use x="348.185547" xlink:href="#DejaVuSans-20"/>
      <use x="379.972656" xlink:href="#DejaVuSans-34"/>
     </g>
    </g>
    <g id="PathCollection_22">
     <defs>
      <path d="M 0 3 
C 0.795609 3 1.55874 2.683901 2.12132 2.12132 
C 2.683901 1.55874 3 0.795609 3 0 
C 3 -0.795609 2.683901 -1.55874 2.12132 -2.12132 
C 1.55874 -2.683901 0.795609 -3 0 -3 
C -0.795609 -3 -1.55874 -2.683901 -2.12132 -2.12132 
C -2.683901 -1.55874 -3 -0.795609 -3 0 
C -3 0.795609 -2.683901 1.55874 -2.12132 2.12132 
C -1.55874 2.683901 -0.795609 3 0 3 
z
" id="m8626e6d0f8" style="stroke:#ffa500;"/>
     </defs>
     <g>
      <use style="fill:#ffa500;stroke:#ffa500;" x="348.485156" xlink:href="#m8626e6d0f8" y="31.262153"/>
     </g>
    </g>
    <g id="text_22">
     <!-- Patient 5 -->
     <g transform="translate(366.485156 33.887153)scale(0.1 -0.1)">
      <use xlink:href="#DejaVuSans-50"/>
      <use x="55.802734" xlink:href="#DejaVuSans-61"/>
      <use x="117.082031" xlink:href="#DejaVuSans-74"/>
      <use x="156.291016" xlink:href="#DejaVuSans-69"/>
      <use x="184.074219" xlink:href="#DejaVuSans-65"/>
      <use x="245.597656" xlink:href="#DejaVuSans-6e"/>
      <use x="308.976562" xlink:href="#DejaVuSans-74"/>
      <use x="348.185547" xlink:href="#DejaVuSans-20"/>
      <use x="379.972656" xlink:href="#DejaVuSans-35"/>
     </g>
    </g>
   </g>
  </g>
 </g>
 <defs>
  <clipPath id="p0d8f8fe544">
   <rect height="151.4892" width="347.56" x="57.17" y="58.1908"/>
  </clipPath>
 </defs>
</svg>
