<?xml version="1.0" encoding="utf-8" standalone="no"?>
<!DOCTYPE svg PUBLIC "-//W3C//DTD SVG 1.1//EN"
  "http://www.w3.org/Graphics/SVG/1.1/DTD/svg11.dtd">
<svg height="252pt" version="1.1" viewBox="0 0 432 252" width="432pt" xmlns="http://www.w3.org/2000/svg" xmlns:xlink="http://www.w3.org/1999/xlink">
 <metadata>
  <rdf:RDF xmlns:cc="http://creativecommons.org/ns#" xmlns:dc="http://purl.org/dc/elements/1.1/" xmlns:rdf="http://www.w3.org/1999/02/22-rdf-syntax-ns#">
   <cc:Work>
    <dc:type rdf:resource="http://purl.org/dc/dcmitype/StillImage"/>
    <dc:date>2023-01-10T00:01:36.844421</dc:date>
    <dc:format>image/svg+xml</dc:format>
    <dc:creator>
     <cc:Agent>
      <dc:title>Matplotlib v3.4.3, https://matplotlib.org/</dc:title>
     </cc:Agent>
    </dc:creator>
   </cc:Work>
  </rdf:RDF>
 </metadata>
 <defs>
  <style type="text/css">*{stroke-linecap:butt;stroke-linejoin:round;}</style>
 </defs>
 <g id="figure_1">
  <g id="patch_1">
   <path d="M 0 252 
L 432 252 
L 432 0 
L 0 0 
z
" style="fill:#ffffff;"/>
  </g>
  <g id="axes_1">
   <g id="patch_2">
    <path d="M 57.26 209.68 
L 404.73 209.68 
L 404.73 58.1908 
L 57.26 58.1908 
z
" style="fill:#ffffff;"/>
   </g>
   <g id="PolyCollection_1">
    <defs>
     <path d="M 96.027314 -53.336947 
L 95.962446 -53.336947 
L 95.966741 -54.650927 
L 95.977993 -55.964906 
L 95.992296 -57.278885 
L 96.005635 -58.592864 
L 96.01561 -59.906844 
L 96.021803 -61.220823 
L 96.025041 -62.534802 
L 96.026453 -63.848781 
L 96.026862 -65.162761 
L 96.026567 -66.47674 
L 96.025279 -67.790719 
L 96.022023 -69.104698 
L 96.015088 -70.418678 
L 96.002263 -71.732657 
L 95.981571 -73.046636 
L 95.952341 -74.360616 
L 95.915971 -75.674595 
L 95.875684 -76.988574 
L 95.835067 -78.302553 
L 95.795913 -79.616533 
L 95.756167 -80.930512 
L 95.708879 -82.244491 
L 95.643115 -83.55847 
L 95.54721 -84.87245 
L 95.41295 -86.186429 
L 95.237629 -87.500408 
L 95.021997 -88.814387 
L 94.765639 -90.128367 
L 94.463446 -91.442346 
L 94.105014 -92.756325 
L 93.675504 -94.070305 
L 93.156478 -95.384284 
L 92.528486 -96.698263 
L 91.778145 -98.012242 
L 90.907143 -99.326222 
L 89.934103 -100.640201 
L 88.882175 -101.95418 
L 87.758065 -103.268159 
L 86.541247 -104.582139 
L 85.200882 -105.896118 
L 83.737721 -107.210097 
L 82.222395 -108.524076 
L 80.793383 -109.838056 
L 79.601382 -111.152035 
L 78.727658 -112.466014 
L 78.128723 -113.779993 
L 77.64706 -115.093973 
L 77.088163 -116.407952 
L 76.324812 -117.721931 
L 75.371162 -119.035911 
L 74.381839 -120.34989 
L 73.573351 -121.663869 
L 73.114647 -122.977848 
L 73.054091 -124.291828 
L 73.323438 -125.605807 
L 73.805793 -126.919786 
L 74.414596 -128.233765 
L 75.131871 -129.547745 
L 75.990795 -130.861724 
L 77.028081 -132.175703 
L 78.244171 -133.489682 
L 79.590805 -134.803662 
L 80.981473 -136.117641 
L 82.313122 -137.43162 
L 83.493259 -138.745599 
L 84.468062 -140.059579 
L 85.240592 -141.373558 
L 85.867211 -142.687537 
L 86.432499 -144.001517 
L 87.017128 -145.315496 
L 87.674682 -146.629475 
L 88.423143 -147.943454 
L 89.247722 -149.257434 
L 90.110775 -150.571413 
L 90.966117 -151.885392 
L 91.773094 -153.199371 
L 92.503612 -154.513351 
L 93.139587 -155.82733 
L 93.667087 -157.141309 
L 94.076503 -158.455288 
L 94.370401 -159.769268 
L 94.570073 -161.083247 
L 94.711065 -162.397226 
L 94.828454 -163.711205 
L 94.943131 -165.025185 
L 95.059217 -166.339164 
L 95.172085 -167.653143 
L 95.277844 -168.967123 
L 95.376677 -170.281102 
L 95.470295 -171.595081 
L 95.558718 -172.90906 
L 95.639763 -174.22304 
L 95.710349 -175.537019 
L 95.767607 -176.850998 
L 95.809716 -178.164977 
L 95.837325 -179.478957 
L 95.85485 -180.792936 
L 95.869637 -182.106915 
L 95.888507 -183.420894 
L 96.027314 -183.420894 
L 96.027314 -183.420894 
L 96.027314 -182.106915 
L 96.027314 -180.792936 
L 96.027314 -179.478957 
L 96.027314 -178.164977 
L 96.027314 -176.850998 
L 96.027314 -175.537019 
L 96.027314 -174.22304 
L 96.027314 -172.90906 
L 96.027314 -171.595081 
L 96.027314 -170.281102 
L 96.027314 -168.967123 
L 96.027314 -167.653143 
L 96.027314 -166.339164 
L 96.027314 -165.025185 
L 96.027314 -163.711205 
L 96.027314 -162.397226 
L 96.027314 -161.083247 
L 96.027314 -159.769268 
L 96.027314 -158.455288 
L 96.027314 -157.141309 
L 96.027314 -155.82733 
L 96.027314 -154.513351 
L 96.027314 -153.199371 
L 96.027314 -151.885392 
L 96.027314 -150.571413 
L 96.027314 -149.257434 
L 96.027314 -147.943454 
L 96.027314 -146.629475 
L 96.027314 -145.315496 
L 96.027314 -144.001517 
L 96.027314 -142.687537 
L 96.027314 -141.373558 
L 96.027314 -140.059579 
L 96.027314 -138.745599 
L 96.027314 -137.43162 
L 96.027314 -136.117641 
L 96.027314 -134.803662 
L 96.027314 -133.489682 
L 96.027314 -132.175703 
L 96.027314 -130.861724 
L 96.027314 -129.547745 
L 96.027314 -128.233765 
L 96.027314 -126.919786 
L 96.027314 -125.605807 
L 96.027314 -124.291828 
L 96.027314 -122.977848 
L 96.027314 -121.663869 
L 96.027314 -120.34989 
L 96.027314 -119.035911 
L 96.027314 -117.721931 
L 96.027314 -116.407952 
L 96.027314 -115.093973 
L 96.027314 -113.779993 
L 96.027314 -112.466014 
L 96.027314 -111.152035 
L 96.027314 -109.838056 
L 96.027314 -108.524076 
L 96.027314 -107.210097 
L 96.027314 -105.896118 
L 96.027314 -104.582139 
L 96.027314 -103.268159 
L 96.027314 -101.95418 
L 96.027314 -100.640201 
L 96.027314 -99.326222 
L 96.027314 -98.012242 
L 96.027314 -96.698263 
L 96.027314 -95.384284 
L 96.027314 -94.070305 
L 96.027314 -92.756325 
L 96.027314 -91.442346 
L 96.027314 -90.128367 
L 96.027314 -88.814387 
L 96.027314 -87.500408 
L 96.027314 -86.186429 
L 96.027314 -84.87245 
L 96.027314 -83.55847 
L 96.027314 -82.244491 
L 96.027314 -80.930512 
L 96.027314 -79.616533 
L 96.027314 -78.302553 
L 96.027314 -76.988574 
L 96.027314 -75.674595 
L 96.027314 -74.360616 
L 96.027314 -73.046636 
L 96.027314 -71.732657 
L 96.027314 -70.418678 
L 96.027314 -69.104698 
L 96.027314 -67.790719 
L 96.027314 -66.47674 
L 96.027314 -65.162761 
L 96.027314 -63.848781 
L 96.027314 -62.534802 
L 96.027314 -61.220823 
L 96.027314 -59.906844 
L 96.027314 -58.592864 
L 96.027314 -57.278885 
L 96.027314 -55.964906 
L 96.027314 -54.650927 
L 96.027314 -53.336947 
z
" id="m3b50db3001" style="stroke:#4c4c4c;stroke-width:1.5;"/>
    </defs>
    <g clip-path="url(#p32bccb2f19)">
     <use style="fill:#20df20;stroke:#4c4c4c;stroke-width:1.5;" x="0" xlink:href="#m3b50db3001" y="252"/>
    </g>
   </g>
   <g id="PolyCollection_2">
    <defs>
     <path d="M 96.343262 -84.230201 
L 96.027314 -84.230201 
L 96.027314 -85.235302 
L 96.027314 -86.240403 
L 96.027314 -87.245504 
L 96.027314 -88.250606 
L 96.027314 -89.255707 
L 96.027314 -90.260808 
L 96.027314 -91.265909 
L 96.027314 -92.27101 
L 96.027314 -93.276111 
L 96.027314 -94.281212 
L 96.027314 -95.286314 
L 96.027314 -96.291415 
L 96.027314 -97.296516 
L 96.027314 -98.301617 
L 96.027314 -99.306718 
L 96.027314 -100.311819 
L 96.027314 -101.316921 
L 96.027314 -102.322022 
L 96.027314 -103.327123 
L 96.027314 -104.332224 
L 96.027314 -105.337325 
L 96.027314 -106.342426 
L 96.027314 -107.347527 
L 96.027314 -108.352629 
L 96.027314 -109.35773 
L 96.027314 -110.362831 
L 96.027314 -111.367932 
L 96.027314 -112.373033 
L 96.027314 -113.378134 
L 96.027314 -114.383236 
L 96.027314 -115.388337 
L 96.027314 -116.393438 
L 96.027314 -117.398539 
L 96.027314 -118.40364 
L 96.027314 -119.408741 
L 96.027314 -120.413843 
L 96.027314 -121.418944 
L 96.027314 -122.424045 
L 96.027314 -123.429146 
L 96.027314 -124.434247 
L 96.027314 -125.439348 
L 96.027314 -126.444449 
L 96.027314 -127.449551 
L 96.027314 -128.454652 
L 96.027314 -129.459753 
L 96.027314 -130.464854 
L 96.027314 -131.469955 
L 96.027314 -132.475056 
L 96.027314 -133.480158 
L 96.027314 -134.485259 
L 96.027314 -135.49036 
L 96.027314 -136.495461 
L 96.027314 -137.500562 
L 96.027314 -138.505663 
L 96.027314 -139.510764 
L 96.027314 -140.515866 
L 96.027314 -141.520967 
L 96.027314 -142.526068 
L 96.027314 -143.531169 
L 96.027314 -144.53627 
L 96.027314 -145.541371 
L 96.027314 -146.546473 
L 96.027314 -147.551574 
L 96.027314 -148.556675 
L 96.027314 -149.561776 
L 96.027314 -150.566877 
L 96.027314 -151.571978 
L 96.027314 -152.57708 
L 96.027314 -153.582181 
L 96.027314 -154.587282 
L 96.027314 -155.592383 
L 96.027314 -156.597484 
L 96.027314 -157.602585 
L 96.027314 -158.607686 
L 96.027314 -159.612788 
L 96.027314 -160.617889 
L 96.027314 -161.62299 
L 96.027314 -162.628091 
L 96.027314 -163.633192 
L 96.027314 -164.638293 
L 96.027314 -165.643395 
L 96.027314 -166.648496 
L 96.027314 -167.653597 
L 96.027314 -168.658698 
L 96.027314 -169.663799 
L 96.027314 -170.6689 
L 96.027314 -171.674001 
L 96.027314 -172.679103 
L 96.027314 -173.684204 
L 96.027314 -174.689305 
L 96.027314 -175.694406 
L 96.027314 -176.699507 
L 96.027314 -177.704608 
L 96.027314 -178.70971 
L 96.027314 -179.714811 
L 96.027314 -180.719912 
L 96.027314 -181.725013 
L 96.027314 -182.730114 
L 96.027314 -183.735215 
L 96.159882 -183.735215 
L 96.159882 -183.735215 
L 96.166546 -182.730114 
L 96.165233 -181.725013 
L 96.158193 -180.719912 
L 96.149386 -179.714811 
L 96.143316 -178.70971 
L 96.143924 -177.704608 
L 96.154034 -176.699507 
L 96.175453 -175.694406 
L 96.209396 -174.689305 
L 96.256701 -173.684204 
L 96.317541 -172.679103 
L 96.390757 -171.674001 
L 96.473353 -170.6689 
L 96.56071 -169.663799 
L 96.64779 -168.658698 
L 96.73103 -167.653597 
L 96.810201 -166.648496 
L 96.889336 -165.643395 
L 96.97608 -164.638293 
L 97.079406 -163.633192 
L 97.206506 -162.628091 
L 97.360299 -161.62299 
L 97.53905 -160.617889 
L 97.738781 -159.612788 
L 97.9576 -158.607686 
L 98.199677 -157.602585 
L 98.476244 -156.597484 
L 98.802258 -155.592383 
L 99.189827 -154.587282 
L 99.641608 -153.582181 
L 100.147918 -152.57708 
L 100.689569 -151.571978 
L 101.245453 -150.566877 
L 101.801303 -149.561776 
L 102.355327 -148.556675 
L 102.917933 -147.551574 
L 103.505764 -146.546473 
L 104.133254 -145.541371 
L 104.806161 -144.53627 
L 105.520345 -143.531169 
L 106.266033 -142.526068 
L 107.034726 -141.520967 
L 107.824726 -140.515866 
L 108.642307 -139.510764 
L 109.498035 -138.505663 
L 110.399936 -137.500562 
L 111.346395 -136.495461 
L 112.321671 -135.49036 
L 113.296092 -134.485259 
L 114.231436 -133.480158 
L 115.090094 -132.475056 
L 115.84488 -131.469955 
L 116.485824 -130.464854 
L 117.021187 -129.459753 
L 117.471971 -128.454652 
L 117.861462 -127.449551 
L 118.203239 -126.444449 
L 118.491974 -125.439348 
L 118.700862 -124.434247 
L 118.787374 -123.429146 
L 118.705867 -122.424045 
L 118.422807 -121.418944 
L 117.929312 -120.413843 
L 117.246871 -119.408741 
L 116.424698 -118.40364 
L 115.529937 -117.398539 
L 114.633885 -116.393438 
L 113.798155 -115.388337 
L 113.064033 -114.383236 
L 112.446805 -113.378134 
L 111.935197 -112.373033 
L 111.495144 -111.367932 
L 111.077045 -110.362831 
L 110.625703 -109.35773 
L 110.091544 -108.352629 
L 109.440595 -107.347527 
L 108.660347 -106.342426 
L 107.759916 -105.337325 
L 106.765485 -104.332224 
L 105.7138 -103.327123 
L 104.646312 -102.322022 
L 103.604692 -101.316921 
L 102.626883 -100.311819 
L 101.742878 -99.306718 
L 100.970748 -98.301617 
L 100.314444 -97.296516 
L 99.764595 -96.291415 
L 99.302195 -95.286314 
L 98.90394 -94.281212 
L 98.547575 -93.276111 
L 98.216039 -92.27101 
L 97.899724 -91.265909 
L 97.596668 -90.260808 
L 97.310871 -89.255707 
L 97.049409 -88.250606 
L 96.819261 -87.245504 
L 96.62487 -86.240403 
L 96.467044 -85.235302 
L 96.343262 -84.230201 
z
" id="me71c72aa2c" style="stroke:#4c4c4c;stroke-width:1.5;"/>
    </defs>
    <g clip-path="url(#p32bccb2f19)">
     <use style="fill:#20dfdf;stroke:#4c4c4c;stroke-width:1.5;" x="0" xlink:href="#me71c72aa2c" y="252"/>
    </g>
   </g>
   <g id="PolyCollection_3">
    <defs>
     <path d="M 153.460372 -74.620962 
L 153.240666 -74.620962 
L 153.20924 -75.662349 
L 153.176772 -76.703735 
L 153.140306 -77.745121 
L 153.095824 -78.786508 
L 153.038816 -79.827894 
L 152.964941 -80.869281 
L 152.870661 -81.910667 
L 152.753676 -82.952053 
L 152.612995 -83.99344 
L 152.448496 -85.034826 
L 152.259962 -86.076213 
L 152.045823 -87.117599 
L 151.802035 -88.158985 
L 151.521695 -89.200372 
L 151.19582 -90.241758 
L 150.815355 -91.283144 
L 150.373793 -92.324531 
L 149.869231 -93.365917 
L 149.304506 -94.407304 
L 148.684714 -95.44869 
L 148.012654 -96.490076 
L 147.284249 -97.531463 
L 146.486741 -98.572849 
L 145.601832 -99.614236 
L 144.613868 -100.655622 
L 143.520398 -101.697008 
L 142.340401 -102.738395 
L 141.115567 -103.779781 
L 139.902545 -104.821168 
L 138.758169 -105.862554 
L 137.723235 -106.90394 
L 136.811474 -107.945327 
L 136.008282 -108.986713 
L 135.279511 -110.0281 
L 134.586427 -111.069486 
L 133.900863 -112.110872 
L 133.215234 -113.152259 
L 132.544694 -114.193645 
L 131.921667 -115.235032 
L 131.385137 -116.276418 
L 130.96813 -117.317804 
L 130.687 -118.359191 
L 130.535715 -119.400577 
L 130.487149 -120.441964 
L 130.501351 -121.48335 
L 130.538272 -122.524736 
L 130.570604 -123.566123 
L 130.592154 -124.607509 
L 130.619018 -125.648896 
L 130.683701 -126.690282 
L 130.825045 -127.731668 
L 131.07789 -128.773055 
L 131.465769 -129.814441 
L 131.998072 -130.855828 
L 132.671239 -131.897214 
L 133.472292 -132.9386 
L 134.3828 -133.979987 
L 135.381885 -135.021373 
L 136.447853 -136.06276 
L 137.558874 -137.104146 
L 138.693564 -138.145532 
L 139.832095 -139.186919 
L 140.957736 -140.228305 
L 142.058095 -141.269692 
L 143.125172 -142.311078 
L 144.153935 -143.352464 
L 145.139984 -144.393851 
L 146.077436 -145.435237 
L 146.958025 -146.476623 
L 147.771775 -147.51801 
L 148.508822 -148.559396 
L 149.161599 -149.600783 
L 149.726632 -150.642169 
L 150.205478 -151.683555 
L 150.604726 -152.724942 
L 150.935136 -153.766328 
L 151.210153 -154.807715 
L 151.44411 -155.849101 
L 151.650466 -156.890487 
L 151.840363 -157.931874 
L 152.021723 -158.97326 
L 152.198908 -160.014647 
L 152.37289 -161.056033 
L 152.54184 -162.097419 
L 152.70195 -163.138806 
L 152.84837 -164.180192 
L 152.976077 -165.221579 
L 153.080591 -166.262965 
L 153.158529 -167.304351 
L 153.208072 -168.345738 
L 153.229405 -169.387124 
L 153.225126 -170.428511 
L 153.200471 -171.469897 
L 153.163133 -172.511283 
L 153.122494 -173.55267 
L 153.088256 -174.594056 
L 153.068709 -175.635443 
L 153.069107 -176.676829 
L 153.090665 -177.718215 
L 153.460372 -177.718215 
L 153.460372 -177.718215 
L 153.460372 -176.676829 
L 153.460372 -175.635443 
L 153.460372 -174.594056 
L 153.460372 -173.55267 
L 153.460372 -172.511283 
L 153.460372 -171.469897 
L 153.460372 -170.428511 
L 153.460372 -169.387124 
L 153.460372 -168.345738 
L 153.460372 -167.304351 
L 153.460372 -166.262965 
L 153.460372 -165.221579 
L 153.460372 -164.180192 
L 153.460372 -163.138806 
L 153.460372 -162.097419 
L 153.460372 -161.056033 
L 153.460372 -160.014647 
L 153.460372 -158.97326 
L 153.460372 -157.931874 
L 153.460372 -156.890487 
L 153.460372 -155.849101 
L 153.460372 -154.807715 
L 153.460372 -153.766328 
L 153.460372 -152.724942 
L 153.460372 -151.683555 
L 153.460372 -150.642169 
L 153.460372 -149.600783 
L 153.460372 -148.559396 
L 153.460372 -147.51801 
L 153.460372 -146.476623 
L 153.460372 -145.435237 
L 153.460372 -144.393851 
L 153.460372 -143.352464 
L 153.460372 -142.311078 
L 153.460372 -141.269692 
L 153.460372 -140.228305 
L 153.460372 -139.186919 
L 153.460372 -138.145532 
L 153.460372 -137.104146 
L 153.460372 -136.06276 
L 153.460372 -135.021373 
L 153.460372 -133.979987 
L 153.460372 -132.9386 
L 153.460372 -131.897214 
L 153.460372 -130.855828 
L 153.460372 -129.814441 
L 153.460372 -128.773055 
L 153.460372 -127.731668 
L 153.460372 -126.690282 
L 153.460372 -125.648896 
L 153.460372 -124.607509 
L 153.460372 -123.566123 
L 153.460372 -122.524736 
L 153.460372 -121.48335 
L 153.460372 -120.441964 
L 153.460372 -119.400577 
L 153.460372 -118.359191 
L 153.460372 -117.317804 
L 153.460372 -116.276418 
L 153.460372 -115.235032 
L 153.460372 -114.193645 
L 153.460372 -113.152259 
L 153.460372 -112.110872 
L 153.460372 -111.069486 
L 153.460372 -110.0281 
L 153.460372 -108.986713 
L 153.460372 -107.945327 
L 153.460372 -106.90394 
L 153.460372 -105.862554 
L 153.460372 -104.821168 
L 153.460372 -103.779781 
L 153.460372 -102.738395 
L 153.460372 -101.697008 
L 153.460372 -100.655622 
L 153.460372 -99.614236 
L 153.460372 -98.572849 
L 153.460372 -97.531463 
L 153.460372 -96.490076 
L 153.460372 -95.44869 
L 153.460372 -94.407304 
L 153.460372 -93.365917 
L 153.460372 -92.324531 
L 153.460372 -91.283144 
L 153.460372 -90.241758 
L 153.460372 -89.200372 
L 153.460372 -88.158985 
L 153.460372 -87.117599 
L 153.460372 -86.076213 
L 153.460372 -85.034826 
L 153.460372 -83.99344 
L 153.460372 -82.952053 
L 153.460372 -81.910667 
L 153.460372 -80.869281 
L 153.460372 -79.827894 
L 153.460372 -78.786508 
L 153.460372 -77.745121 
L 153.460372 -76.703735 
L 153.460372 -75.662349 
L 153.460372 -74.620962 
z
" id="md184a6b4ac" style="stroke:#4c4c4c;stroke-width:1.5;"/>
    </defs>
    <g clip-path="url(#p32bccb2f19)">
     <use style="fill:#20df20;stroke:#4c4c4c;stroke-width:1.5;" x="0" xlink:href="#md184a6b4ac" y="252"/>
    </g>
   </g>
   <g id="PolyCollection_4">
    <defs>
     <path d="M 153.758741 -75.608828 
L 153.460372 -75.608828 
L 153.460372 -76.648854 
L 153.460372 -77.688879 
L 153.460372 -78.728905 
L 153.460372 -79.768931 
L 153.460372 -80.808956 
L 153.460372 -81.848982 
L 153.460372 -82.889008 
L 153.460372 -83.929033 
L 153.460372 -84.969059 
L 153.460372 -86.009085 
L 153.460372 -87.049111 
L 153.460372 -88.089136 
L 153.460372 -89.129162 
L 153.460372 -90.169188 
L 153.460372 -91.209213 
L 153.460372 -92.249239 
L 153.460372 -93.289265 
L 153.460372 -94.32929 
L 153.460372 -95.369316 
L 153.460372 -96.409342 
L 153.460372 -97.449368 
L 153.460372 -98.489393 
L 153.460372 -99.529419 
L 153.460372 -100.569445 
L 153.460372 -101.60947 
L 153.460372 -102.649496 
L 153.460372 -103.689522 
L 153.460372 -104.729547 
L 153.460372 -105.769573 
L 153.460372 -106.809599 
L 153.460372 -107.849625 
L 153.460372 -108.88965 
L 153.460372 -109.929676 
L 153.460372 -110.969702 
L 153.460372 -112.009727 
L 153.460372 -113.049753 
L 153.460372 -114.089779 
L 153.460372 -115.129804 
L 153.460372 -116.16983 
L 153.460372 -117.209856 
L 153.460372 -118.249882 
L 153.460372 -119.289907 
L 153.460372 -120.329933 
L 153.460372 -121.369959 
L 153.460372 -122.409984 
L 153.460372 -123.45001 
L 153.460372 -124.490036 
L 153.460372 -125.530061 
L 153.460372 -126.570087 
L 153.460372 -127.610113 
L 153.460372 -128.650139 
L 153.460372 -129.690164 
L 153.460372 -130.73019 
L 153.460372 -131.770216 
L 153.460372 -132.810241 
L 153.460372 -133.850267 
L 153.460372 -134.890293 
L 153.460372 -135.930318 
L 153.460372 -136.970344 
L 153.460372 -138.01037 
L 153.460372 -139.050396 
L 153.460372 -140.090421 
L 153.460372 -141.130447 
L 153.460372 -142.170473 
L 153.460372 -143.210498 
L 153.460372 -144.250524 
L 153.460372 -145.29055 
L 153.460372 -146.330575 
L 153.460372 -147.370601 
L 153.460372 -148.410627 
L 153.460372 -149.450652 
L 153.460372 -150.490678 
L 153.460372 -151.530704 
L 153.460372 -152.57073 
L 153.460372 -153.610755 
L 153.460372 -154.650781 
L 153.460372 -155.690807 
L 153.460372 -156.730832 
L 153.460372 -157.770858 
L 153.460372 -158.810884 
L 153.460372 -159.850909 
L 153.460372 -160.890935 
L 153.460372 -161.930961 
L 153.460372 -162.970987 
L 153.460372 -164.011012 
L 153.460372 -165.051038 
L 153.460372 -166.091064 
L 153.460372 -167.131089 
L 153.460372 -168.171115 
L 153.460372 -169.211141 
L 153.460372 -170.251166 
L 153.460372 -171.291192 
L 153.460372 -172.331218 
L 153.460372 -173.371244 
L 153.460372 -174.411269 
L 153.460372 -175.451295 
L 153.460372 -176.491321 
L 153.460372 -177.531346 
L 153.460372 -178.571372 
L 153.647976 -178.571372 
L 153.647976 -178.571372 
L 153.679332 -177.531346 
L 153.717157 -176.491321 
L 153.763591 -175.451295 
L 153.818765 -174.411269 
L 153.879846 -173.371244 
L 153.94123 -172.331218 
L 153.996137 -171.291192 
L 154.039271 -170.251166 
L 154.069576 -169.211141 
L 154.091963 -168.171115 
L 154.11708 -167.131089 
L 154.158996 -166.091064 
L 154.231461 -165.051038 
L 154.344065 -164.011012 
L 154.499692 -162.970987 
L 154.694236 -161.930961 
L 154.918675 -160.890935 
L 155.162714 -159.850909 
L 155.418655 -158.810884 
L 155.684114 -157.770858 
L 155.962822 -156.730832 
L 156.263555 -155.690807 
L 156.598005 -154.650781 
L 156.978653 -153.610755 
L 157.417351 -152.57073 
L 157.924692 -151.530704 
L 158.50959 -150.490678 
L 159.178336 -149.450652 
L 159.932742 -148.410627 
L 160.767715 -147.370601 
L 161.669282 -146.330575 
L 162.614376 -145.29055 
L 163.573288 -144.250524 
L 164.514709 -143.210498 
L 165.412123 -142.170473 
L 166.249486 -141.130447 
L 167.024265 -140.090421 
L 167.746886 -139.050396 
L 168.437137 -138.01037 
L 169.119095 -136.970344 
L 169.816184 -135.930318 
L 170.547006 -134.890293 
L 171.321593 -133.850267 
L 172.137511 -132.810241 
L 172.976295 -131.770216 
L 173.802211 -130.73019 
L 174.565866 -129.690164 
L 175.213853 -128.650139 
L 175.70268 -127.610113 
L 176.012282 -126.570087 
L 176.15348 -125.530061 
L 176.165584 -124.490036 
L 176.104319 -123.45001 
L 176.024221 -122.409984 
L 175.961885 -121.369959 
L 175.925733 -120.329933 
L 175.895175 -119.289907 
L 175.828343 -118.249882 
L 175.674822 -117.209856 
L 175.388759 -116.16983 
L 174.93862 -115.129804 
L 174.311842 -114.089779 
L 173.514768 -113.049753 
L 172.569529 -112.009727 
L 171.509796 -110.969702 
L 170.376627 -109.929676 
L 169.214699 -108.88965 
L 168.068538 -107.849625 
L 166.978246 -106.809599 
L 165.974716 -105.769573 
L 165.074995 -104.729547 
L 164.279097 -103.689522 
L 163.569677 -102.649496 
L 162.915483 -101.60947 
L 162.278472 -100.569445 
L 161.623164 -99.529419 
L 160.925806 -98.489393 
L 160.18062 -97.449368 
L 159.401088 -96.409342 
L 158.615801 -95.369316 
L 157.860177 -94.32929 
L 157.166841 -93.289265 
L 156.557815 -92.249239 
L 156.040858 -91.209213 
L 155.610618 -90.169188 
L 155.253412 -89.129162 
L 154.953311 -88.089136 
L 154.697147 -87.049111 
L 154.476975 -86.009085 
L 154.289845 -84.969059 
L 154.135787 -83.929033 
L 154.015289 -82.889008 
L 153.92729 -81.848982 
L 153.868191 -80.808956 
L 153.831876 -79.768931 
L 153.810495 -78.728905 
L 153.79573 -77.688879 
L 153.780207 -76.648854 
L 153.758741 -75.608828 
z
" id="m2ea52a3c06" style="stroke:#4c4c4c;stroke-width:1.5;"/>
    </defs>
    <g clip-path="url(#p32bccb2f19)">
     <use style="fill:#20dfdf;stroke:#4c4c4c;stroke-width:1.5;" x="0" xlink:href="#m2ea52a3c06" y="252"/>
    </g>
   </g>
   <g id="PolyCollection_5">
    <defs>
     <path d="M 210.89343 -49.92432 
L 210.709399 -49.92432 
L 210.696895 -51.211086 
L 210.694031 -52.497851 
L 210.697202 -53.784616 
L 210.700862 -55.071382 
L 210.699317 -56.358147 
L 210.688227 -57.644912 
L 210.665459 -58.931678 
L 210.631443 -60.218443 
L 210.589239 -61.505208 
L 210.54421 -62.791974 
L 210.502952 -64.078739 
L 210.471482 -65.365504 
L 210.453382 -66.65227 
L 210.448937 -67.939035 
L 210.455733 -69.2258 
L 210.470134 -70.512566 
L 210.488313 -71.799331 
L 210.505898 -73.086096 
L 210.516518 -74.372862 
L 210.510657 -75.659627 
L 210.476283 -76.946392 
L 210.401674 -78.233158 
L 210.279298 -79.519923 
L 210.108721 -80.806688 
L 209.896746 -82.093454 
L 209.654254 -83.380219 
L 209.390849 -84.666984 
L 209.109467 -85.95375 
L 208.80321 -87.240515 
L 208.455491 -88.52728 
L 208.042885 -89.814046 
L 207.538868 -91.100811 
L 206.916921 -92.387576 
L 206.15324 -93.674342 
L 205.230913 -94.961107 
L 204.14693 -96.247872 
L 202.9203 -97.534638 
L 201.596076 -98.821403 
L 200.239979 -100.108168 
L 198.923013 -101.394934 
L 197.702168 -102.681699 
L 196.606699 -103.968464 
L 195.636496 -105.25523 
L 194.77172 -106.541995 
L 193.986802 -107.82876 
L 193.260944 -109.115526 
L 192.581239 -110.402291 
L 191.939893 -111.689056 
L 191.330375 -112.975822 
L 190.747199 -114.262587 
L 190.19095 -115.549352 
L 189.675946 -116.836118 
L 189.234852 -118.122883 
L 188.915112 -119.409649 
L 188.766371 -120.696414 
L 188.823772 -121.983179 
L 189.095266 -123.269945 
L 189.559566 -124.55671 
L 190.176166 -125.843475 
L 190.902898 -127.130241 
L 191.712823 -128.417006 
L 192.602271 -129.703771 
L 193.585824 -130.990537 
L 194.680489 -132.277302 
L 195.887205 -133.564067 
L 197.179378 -134.850833 
L 198.504239 -136.137598 
L 199.795659 -137.424363 
L 200.99155 -138.711129 
L 202.04801 -139.997894 
L 202.945802 -141.284659 
L 203.68934 -142.571425 
L 204.301166 -143.85819 
L 204.814814 -145.144955 
L 205.267301 -146.431721 
L 205.691413 -147.718486 
L 206.108576 -149.005251 
L 206.524597 -150.292017 
L 206.93076 -151.578782 
L 207.310657 -152.865547 
L 207.649958 -154.152313 
L 207.944351 -155.439078 
L 208.20185 -156.725843 
L 208.438829 -158.012609 
L 208.672516 -159.299374 
L 208.914087 -160.586139 
L 209.165491 -161.872905 
L 209.42057 -163.15967 
L 209.668802 -164.446435 
L 209.899252 -165.733201 
L 210.103097 -167.019966 
L 210.274498 -168.306731 
L 210.410574 -169.593497 
L 210.51136 -170.880262 
L 210.580042 -172.167027 
L 210.623092 -173.453793 
L 210.649575 -174.740558 
L 210.669314 -176.027323 
L 210.690396 -177.314089 
L 210.89343 -177.314089 
L 210.89343 -177.314089 
L 210.89343 -176.027323 
L 210.89343 -174.740558 
L 210.89343 -173.453793 
L 210.89343 -172.167027 
L 210.89343 -170.880262 
L 210.89343 -169.593497 
L 210.89343 -168.306731 
L 210.89343 -167.019966 
L 210.89343 -165.733201 
L 210.89343 -164.446435 
L 210.89343 -163.15967 
L 210.89343 -161.872905 
L 210.89343 -160.586139 
L 210.89343 -159.299374 
L 210.89343 -158.012609 
L 210.89343 -156.725843 
L 210.89343 -155.439078 
L 210.89343 -154.152313 
L 210.89343 -152.865547 
L 210.89343 -151.578782 
L 210.89343 -150.292017 
L 210.89343 -149.005251 
L 210.89343 -147.718486 
L 210.89343 -146.431721 
L 210.89343 -145.144955 
L 210.89343 -143.85819 
L 210.89343 -142.571425 
L 210.89343 -141.284659 
L 210.89343 -139.997894 
L 210.89343 -138.711129 
L 210.89343 -137.424363 
L 210.89343 -136.137598 
L 210.89343 -134.850833 
L 210.89343 -133.564067 
L 210.89343 -132.277302 
L 210.89343 -130.990537 
L 210.89343 -129.703771 
L 210.89343 -128.417006 
L 210.89343 -127.130241 
L 210.89343 -125.843475 
L 210.89343 -124.55671 
L 210.89343 -123.269945 
L 210.89343 -121.983179 
L 210.89343 -120.696414 
L 210.89343 -119.409649 
L 210.89343 -118.122883 
L 210.89343 -116.836118 
L 210.89343 -115.549352 
L 210.89343 -114.262587 
L 210.89343 -112.975822 
L 210.89343 -111.689056 
L 210.89343 -110.402291 
L 210.89343 -109.115526 
L 210.89343 -107.82876 
L 210.89343 -106.541995 
L 210.89343 -105.25523 
L 210.89343 -103.968464 
L 210.89343 -102.681699 
L 210.89343 -101.394934 
L 210.89343 -100.108168 
L 210.89343 -98.821403 
L 210.89343 -97.534638 
L 210.89343 -96.247872 
L 210.89343 -94.961107 
L 210.89343 -93.674342 
L 210.89343 -92.387576 
L 210.89343 -91.100811 
L 210.89343 -89.814046 
L 210.89343 -88.52728 
L 210.89343 -87.240515 
L 210.89343 -85.95375 
L 210.89343 -84.666984 
L 210.89343 -83.380219 
L 210.89343 -82.093454 
L 210.89343 -80.806688 
L 210.89343 -79.519923 
L 210.89343 -78.233158 
L 210.89343 -76.946392 
L 210.89343 -75.659627 
L 210.89343 -74.372862 
L 210.89343 -73.086096 
L 210.89343 -71.799331 
L 210.89343 -70.512566 
L 210.89343 -69.2258 
L 210.89343 -67.939035 
L 210.89343 -66.65227 
L 210.89343 -65.365504 
L 210.89343 -64.078739 
L 210.89343 -62.791974 
L 210.89343 -61.505208 
L 210.89343 -60.218443 
L 210.89343 -58.931678 
L 210.89343 -57.644912 
L 210.89343 -56.358147 
L 210.89343 -55.071382 
L 210.89343 -53.784616 
L 210.89343 -52.497851 
L 210.89343 -51.211086 
L 210.89343 -49.92432 
z
" id="mab1462e2f4" style="stroke:#4c4c4c;stroke-width:1.5;"/>
    </defs>
    <g clip-path="url(#p32bccb2f19)">
     <use style="fill:#20df20;stroke:#4c4c4c;stroke-width:1.5;" x="0" xlink:href="#mab1462e2f4" y="252"/>
    </g>
   </g>
   <g id="PolyCollection_6">
    <defs>
     <path d="M 211.059067 -55.582097 
L 210.89343 -55.582097 
L 210.89343 -56.808991 
L 210.89343 -58.035886 
L 210.89343 -59.262781 
L 210.89343 -60.489675 
L 210.89343 -61.71657 
L 210.89343 -62.943465 
L 210.89343 -64.170359 
L 210.89343 -65.397254 
L 210.89343 -66.624149 
L 210.89343 -67.851043 
L 210.89343 -69.077938 
L 210.89343 -70.304833 
L 210.89343 -71.531728 
L 210.89343 -72.758622 
L 210.89343 -73.985517 
L 210.89343 -75.212412 
L 210.89343 -76.439306 
L 210.89343 -77.666201 
L 210.89343 -78.893096 
L 210.89343 -80.11999 
L 210.89343 -81.346885 
L 210.89343 -82.57378 
L 210.89343 -83.800674 
L 210.89343 -85.027569 
L 210.89343 -86.254464 
L 210.89343 -87.481358 
L 210.89343 -88.708253 
L 210.89343 -89.935148 
L 210.89343 -91.162043 
L 210.89343 -92.388937 
L 210.89343 -93.615832 
L 210.89343 -94.842727 
L 210.89343 -96.069621 
L 210.89343 -97.296516 
L 210.89343 -98.523411 
L 210.89343 -99.750305 
L 210.89343 -100.9772 
L 210.89343 -102.204095 
L 210.89343 -103.430989 
L 210.89343 -104.657884 
L 210.89343 -105.884779 
L 210.89343 -107.111673 
L 210.89343 -108.338568 
L 210.89343 -109.565463 
L 210.89343 -110.792357 
L 210.89343 -112.019252 
L 210.89343 -113.246147 
L 210.89343 -114.473042 
L 210.89343 -115.699936 
L 210.89343 -116.926831 
L 210.89343 -118.153726 
L 210.89343 -119.38062 
L 210.89343 -120.607515 
L 210.89343 -121.83441 
L 210.89343 -123.061304 
L 210.89343 -124.288199 
L 210.89343 -125.515094 
L 210.89343 -126.741988 
L 210.89343 -127.968883 
L 210.89343 -129.195778 
L 210.89343 -130.422672 
L 210.89343 -131.649567 
L 210.89343 -132.876462 
L 210.89343 -134.103357 
L 210.89343 -135.330251 
L 210.89343 -136.557146 
L 210.89343 -137.784041 
L 210.89343 -139.010935 
L 210.89343 -140.23783 
L 210.89343 -141.464725 
L 210.89343 -142.691619 
L 210.89343 -143.918514 
L 210.89343 -145.145409 
L 210.89343 -146.372303 
L 210.89343 -147.599198 
L 210.89343 -148.826093 
L 210.89343 -150.052987 
L 210.89343 -151.279882 
L 210.89343 -152.506777 
L 210.89343 -153.733672 
L 210.89343 -154.960566 
L 210.89343 -156.187461 
L 210.89343 -157.414356 
L 210.89343 -158.64125 
L 210.89343 -159.868145 
L 210.89343 -161.09504 
L 210.89343 -162.321934 
L 210.89343 -163.548829 
L 210.89343 -164.775724 
L 210.89343 -166.002618 
L 210.89343 -167.229513 
L 210.89343 -168.456408 
L 210.89343 -169.683302 
L 210.89343 -170.910197 
L 210.89343 -172.137092 
L 210.89343 -173.363987 
L 210.89343 -174.590881 
L 210.89343 -175.817776 
L 210.89343 -177.044671 
L 211.015393 -177.044671 
L 211.015393 -177.044671 
L 211.039029 -175.817776 
L 211.069846 -174.590881 
L 211.112028 -173.363987 
L 211.167491 -172.137092 
L 211.23447 -170.910197 
L 211.308002 -169.683302 
L 211.382273 -168.456408 
L 211.453742 -167.229513 
L 211.52359 -166.002618 
L 211.598564 -164.775724 
L 211.690244 -163.548829 
L 211.813235 -162.321934 
L 211.982678 -161.09504 
L 212.210959 -159.868145 
L 212.503572 -158.64125 
L 212.855042 -157.414356 
L 213.24694 -156.187461 
L 213.650267 -154.960566 
L 214.032872 -153.733672 
L 214.370005 -152.506777 
L 214.654088 -151.279882 
L 214.899705 -150.052987 
L 215.141646 -148.826093 
L 215.426482 -147.599198 
L 215.800541 -146.372303 
L 216.298489 -145.145409 
L 216.936693 -143.918514 
L 217.713645 -142.691619 
L 218.616413 -141.464725 
L 219.628779 -140.23783 
L 220.735749 -139.010935 
L 221.921549 -137.784041 
L 223.163092 -136.557146 
L 224.424922 -135.330251 
L 225.661601 -134.103357 
L 226.828842 -132.876462 
L 227.898124 -131.649567 
L 228.865887 -130.422672 
L 229.750717 -129.195778 
L 230.579037 -127.968883 
L 231.366814 -126.741988 
L 232.107053 -125.515094 
L 232.769067 -124.288199 
L 233.308761 -123.061304 
L 233.683836 -121.83441 
L 233.866653 -120.607515 
L 233.850138 -119.38062 
L 233.646299 -118.153726 
L 233.280029 -116.926831 
L 232.781674 -115.699936 
L 232.180754 -114.473042 
L 231.501854 -113.246147 
L 230.762892 -112.019252 
L 229.975581 -110.792357 
L 229.147079 -109.565463 
L 228.281132 -108.338568 
L 227.377472 -107.111673 
L 226.430346 -105.884779 
L 225.428802 -104.657884 
L 224.360878 -103.430989 
L 223.221104 -102.204095 
L 222.01801 -100.9772 
L 220.777863 -99.750305 
L 219.542633 -98.523411 
L 218.362581 -97.296516 
L 217.28557 -96.069621 
L 216.346171 -94.842727 
L 215.55818 -93.615832 
L 214.913569 -92.388937 
L 214.388479 -91.162043 
L 213.953314 -89.935148 
L 213.581855 -88.708253 
L 213.255521 -87.481358 
L 212.962666 -86.254464 
L 212.696004 -85.027569 
L 212.451294 -83.800674 
L 212.22789 -82.57378 
L 212.029278 -81.346885 
L 211.86158 -80.11999 
L 211.72989 -78.893096 
L 211.634343 -77.666201 
L 211.568277 -76.439306 
L 211.519606 -75.212412 
L 211.474726 -73.985517 
L 211.423017 -72.758622 
L 211.359849 -71.531728 
L 211.286957 -70.304833 
L 211.2105 -69.077938 
L 211.138177 -67.851043 
L 211.076857 -66.624149 
L 211.031352 -65.397254 
L 211.004111 -64.170359 
L 210.995171 -62.943465 
L 211.002036 -61.71657 
L 211.019656 -60.489675 
L 211.040974 -59.262781 
L 211.058321 -58.035886 
L 211.065395 -56.808991 
L 211.059067 -55.582097 
z
" id="ma47e9a9e4c" style="stroke:#4c4c4c;stroke-width:1.5;"/>
    </defs>
    <g clip-path="url(#p32bccb2f19)">
     <use style="fill:#20dfdf;stroke:#4c4c4c;stroke-width:1.5;" x="0" xlink:href="#ma47e9a9e4c" y="252"/>
    </g>
   </g>
   <g id="PolyCollection_7">
    <defs>
     <path d="M 268.326488 -49.205873 
L 268.097264 -49.205873 
L 268.069204 -50.420975 
L 268.044978 -51.636077 
L 268.024002 -52.851179 
L 268.00476 -54.066281 
L 267.984747 -55.281383 
L 267.960297 -56.496485 
L 267.926455 -57.711587 
L 267.877205 -58.926689 
L 267.806318 -60.141791 
L 267.708844 -61.356893 
L 267.582939 -62.571995 
L 267.431325 -63.787097 
L 267.261653 -65.002199 
L 267.085229 -66.217301 
L 266.914171 -67.432402 
L 266.757754 -68.647504 
L 266.619193 -69.862606 
L 266.494224 -71.077708 
L 266.37229 -72.29281 
L 266.240166 -73.507912 
L 266.086774 -74.723014 
L 265.907203 -75.938116 
L 265.704078 -77.153218 
L 265.485428 -78.36832 
L 265.259699 -79.583422 
L 265.02987 -80.798524 
L 264.789054 -82.013626 
L 264.519323 -83.228728 
L 264.194158 -84.44383 
L 263.783533 -85.658932 
L 263.259892 -86.874034 
L 262.603313 -88.089136 
L 261.804861 -89.304238 
L 260.868035 -90.51934 
L 259.808716 -91.734442 
L 258.654032 -92.949544 
L 257.440153 -94.164646 
L 256.208662 -95.379748 
L 255.001358 -96.59485 
L 253.854043 -97.809952 
L 252.790701 -99.025054 
L 251.819829 -100.240156 
L 250.934236 -101.455258 
L 250.114727 -102.67036 
L 249.337022 -103.885462 
L 248.580585 -105.100564 
L 247.837487 -106.315666 
L 247.119074 -107.530768 
L 246.458148 -108.74587 
L 245.905178 -109.960972 
L 245.518827 -111.176074 
L 245.353264 -112.391176 
L 245.446264 -113.606278 
L 245.811748 -114.82138 
L 246.438555 -116.036482 
L 247.294616 -117.251584 
L 248.334081 -118.466686 
L 249.504804 -119.681788 
L 250.754632 -120.89689 
L 252.036149 -122.111992 
L 253.309975 -123.327094 
L 254.546665 -124.542196 
L 255.727036 -125.757298 
L 256.841036 -126.9724 
L 257.885723 -128.187502 
L 258.863236 -129.402604 
L 259.779215 -130.617706 
L 260.641501 -131.832808 
L 261.458474 -133.04791 
L 262.236721 -134.263012 
L 262.978528 -135.478114 
L 263.680282 -136.693216 
L 264.332745 -137.908318 
L 264.923287 -139.12342 
L 265.439283 -140.338522 
L 265.871538 -141.553624 
L 266.216856 -142.768726 
L 266.479424 -143.983827 
L 266.670897 -145.198929 
L 266.809116 -146.414031 
L 266.915384 -147.629133 
L 267.010618 -148.844235 
L 267.111304 -150.059337 
L 267.226529 -151.274439 
L 267.357112 -152.489541 
L 267.497029 -153.704643 
L 267.63638 -154.919745 
L 267.764693 -156.134847 
L 267.873488 -157.349949 
L 267.95765 -158.565051 
L 268.015729 -159.780153 
L 268.049575 -160.995255 
L 268.063658 -162.210357 
L 268.06423 -163.425459 
L 268.058349 -164.640561 
L 268.052814 -165.855663 
L 268.053132 -167.070765 
L 268.062735 -168.285867 
L 268.082615 -169.500969 
L 268.326488 -169.500969 
L 268.326488 -169.500969 
L 268.326488 -168.285867 
L 268.326488 -167.070765 
L 268.326488 -165.855663 
L 268.326488 -164.640561 
L 268.326488 -163.425459 
L 268.326488 -162.210357 
L 268.326488 -160.995255 
L 268.326488 -159.780153 
L 268.326488 -158.565051 
L 268.326488 -157.349949 
L 268.326488 -156.134847 
L 268.326488 -154.919745 
L 268.326488 -153.704643 
L 268.326488 -152.489541 
L 268.326488 -151.274439 
L 268.326488 -150.059337 
L 268.326488 -148.844235 
L 268.326488 -147.629133 
L 268.326488 -146.414031 
L 268.326488 -145.198929 
L 268.326488 -143.983827 
L 268.326488 -142.768726 
L 268.326488 -141.553624 
L 268.326488 -140.338522 
L 268.326488 -139.12342 
L 268.326488 -137.908318 
L 268.326488 -136.693216 
L 268.326488 -135.478114 
L 268.326488 -134.263012 
L 268.326488 -133.04791 
L 268.326488 -131.832808 
L 268.326488 -130.617706 
L 268.326488 -129.402604 
L 268.326488 -128.187502 
L 268.326488 -126.9724 
L 268.326488 -125.757298 
L 268.326488 -124.542196 
L 268.326488 -123.327094 
L 268.326488 -122.111992 
L 268.326488 -120.89689 
L 268.326488 -119.681788 
L 268.326488 -118.466686 
L 268.326488 -117.251584 
L 268.326488 -116.036482 
L 268.326488 -114.82138 
L 268.326488 -113.606278 
L 268.326488 -112.391176 
L 268.326488 -111.176074 
L 268.326488 -109.960972 
L 268.326488 -108.74587 
L 268.326488 -107.530768 
L 268.326488 -106.315666 
L 268.326488 -105.100564 
L 268.326488 -103.885462 
L 268.326488 -102.67036 
L 268.326488 -101.455258 
L 268.326488 -100.240156 
L 268.326488 -99.025054 
L 268.326488 -97.809952 
L 268.326488 -96.59485 
L 268.326488 -95.379748 
L 268.326488 -94.164646 
L 268.326488 -92.949544 
L 268.326488 -91.734442 
L 268.326488 -90.51934 
L 268.326488 -89.304238 
L 268.326488 -88.089136 
L 268.326488 -86.874034 
L 268.326488 -85.658932 
L 268.326488 -84.44383 
L 268.326488 -83.228728 
L 268.326488 -82.013626 
L 268.326488 -80.798524 
L 268.326488 -79.583422 
L 268.326488 -78.36832 
L 268.326488 -77.153218 
L 268.326488 -75.938116 
L 268.326488 -74.723014 
L 268.326488 -73.507912 
L 268.326488 -72.29281 
L 268.326488 -71.077708 
L 268.326488 -69.862606 
L 268.326488 -68.647504 
L 268.326488 -67.432402 
L 268.326488 -66.217301 
L 268.326488 -65.002199 
L 268.326488 -63.787097 
L 268.326488 -62.571995 
L 268.326488 -61.356893 
L 268.326488 -60.141791 
L 268.326488 -58.926689 
L 268.326488 -57.711587 
L 268.326488 -56.496485 
L 268.326488 -55.281383 
L 268.326488 -54.066281 
L 268.326488 -52.851179 
L 268.326488 -51.636077 
L 268.326488 -50.420975 
L 268.326488 -49.205873 
z
" id="m1417900f06" style="stroke:#4c4c4c;stroke-width:1.5;"/>
    </defs>
    <g clip-path="url(#p32bccb2f19)">
     <use style="fill:#20df20;stroke:#4c4c4c;stroke-width:1.5;" x="0" xlink:href="#m1417900f06" y="252"/>
    </g>
   </g>
   <g id="PolyCollection_8">
    <defs>
     <path d="M 268.786421 -59.443753 
L 268.326488 -59.443753 
L 268.326488 -60.731426 
L 268.326488 -62.019098 
L 268.326488 -63.306771 
L 268.326488 -64.594443 
L 268.326488 -65.882116 
L 268.326488 -67.169788 
L 268.326488 -68.457461 
L 268.326488 -69.745133 
L 268.326488 -71.032805 
L 268.326488 -72.320478 
L 268.326488 -73.60815 
L 268.326488 -74.895823 
L 268.326488 -76.183495 
L 268.326488 -77.471168 
L 268.326488 -78.75884 
L 268.326488 -80.046513 
L 268.326488 -81.334185 
L 268.326488 -82.621858 
L 268.326488 -83.90953 
L 268.326488 -85.197203 
L 268.326488 -86.484875 
L 268.326488 -87.772547 
L 268.326488 -89.06022 
L 268.326488 -90.347892 
L 268.326488 -91.635565 
L 268.326488 -92.923237 
L 268.326488 -94.21091 
L 268.326488 -95.498582 
L 268.326488 -96.786255 
L 268.326488 -98.073927 
L 268.326488 -99.3616 
L 268.326488 -100.649272 
L 268.326488 -101.936945 
L 268.326488 -103.224617 
L 268.326488 -104.51229 
L 268.326488 -105.799962 
L 268.326488 -107.087634 
L 268.326488 -108.375307 
L 268.326488 -109.662979 
L 268.326488 -110.950652 
L 268.326488 -112.238324 
L 268.326488 -113.525997 
L 268.326488 -114.813669 
L 268.326488 -116.101342 
L 268.326488 -117.389014 
L 268.326488 -118.676687 
L 268.326488 -119.964359 
L 268.326488 -121.252032 
L 268.326488 -122.539704 
L 268.326488 -123.827377 
L 268.326488 -125.115049 
L 268.326488 -126.402721 
L 268.326488 -127.690394 
L 268.326488 -128.978066 
L 268.326488 -130.265739 
L 268.326488 -131.553411 
L 268.326488 -132.841084 
L 268.326488 -134.128756 
L 268.326488 -135.416429 
L 268.326488 -136.704101 
L 268.326488 -137.991774 
L 268.326488 -139.279446 
L 268.326488 -140.567119 
L 268.326488 -141.854791 
L 268.326488 -143.142463 
L 268.326488 -144.430136 
L 268.326488 -145.717808 
L 268.326488 -147.005481 
L 268.326488 -148.293153 
L 268.326488 -149.580826 
L 268.326488 -150.868498 
L 268.326488 -152.156171 
L 268.326488 -153.443843 
L 268.326488 -154.731516 
L 268.326488 -156.019188 
L 268.326488 -157.306861 
L 268.326488 -158.594533 
L 268.326488 -159.882206 
L 268.326488 -161.169878 
L 268.326488 -162.45755 
L 268.326488 -163.745223 
L 268.326488 -165.032895 
L 268.326488 -166.320568 
L 268.326488 -167.60824 
L 268.326488 -168.895913 
L 268.326488 -170.183585 
L 268.326488 -171.471258 
L 268.326488 -172.75893 
L 268.326488 -174.046603 
L 268.326488 -175.334275 
L 268.326488 -176.621948 
L 268.326488 -177.90962 
L 268.326488 -179.197292 
L 268.326488 -180.484965 
L 268.326488 -181.772637 
L 268.326488 -183.06031 
L 268.326488 -184.347982 
L 268.326488 -185.635655 
L 268.326488 -186.923327 
L 268.469659 -186.923327 
L 268.469659 -186.923327 
L 268.464859 -185.635655 
L 268.451403 -184.347982 
L 268.431821 -183.06031 
L 268.409453 -181.772637 
L 268.387527 -180.484965 
L 268.368436 -179.197292 
L 268.353419 -177.90962 
L 268.342648 -176.621948 
L 268.335576 -175.334275 
L 268.331348 -174.046603 
L 268.32914 -172.75893 
L 268.328376 -171.471258 
L 268.32885 -170.183585 
L 268.33079 -168.895913 
L 268.334915 -167.60824 
L 268.342493 -166.320568 
L 268.355355 -165.032895 
L 268.37586 -163.745223 
L 268.406758 -162.45755 
L 268.450997 -161.169878 
L 268.511512 -159.882206 
L 268.59108 -158.594533 
L 268.692265 -157.306861 
L 268.817437 -156.019188 
L 268.968773 -154.731516 
L 269.148145 -153.443843 
L 269.356819 -152.156171 
L 269.595013 -150.868498 
L 269.86144 -149.580826 
L 270.153151 -148.293153 
L 270.466016 -147.005481 
L 270.796116 -145.717808 
L 271.141999 -144.430136 
L 271.507199 -143.142463 
L 271.901956 -141.854791 
L 272.342932 -140.567119 
L 272.850215 -139.279446 
L 273.441887 -137.991774 
L 274.127621 -136.704101 
L 274.90351 -135.416429 
L 275.750237 -134.128756 
L 276.635677 -132.841084 
L 277.521445 -131.553411 
L 278.371504 -130.265739 
L 279.160212 -128.978066 
L 279.877505 -127.690394 
L 280.529839 -126.402721 
L 281.136737 -125.115049 
L 281.72387 -123.827377 
L 282.314465 -122.539704 
L 282.9215 -121.252032 
L 283.543326 -119.964359 
L 284.16457 -118.676687 
L 284.762262 -117.389014 
L 285.314703 -116.101342 
L 285.808987 -114.813669 
L 286.243495 -113.525997 
L 286.624204 -112.238324 
L 286.956914 -110.950652 
L 287.239594 -109.662979 
L 287.458682 -108.375307 
L 287.590803 -107.087634 
L 287.608515 -105.799962 
L 287.487198 -104.51229 
L 287.210431 -103.224617 
L 286.772677 -101.936945 
L 286.17941 -100.649272 
L 285.445484 -99.3616 
L 284.592631 -98.073927 
L 283.646841 -96.786255 
L 282.636276 -95.498582 
L 281.589973 -94.21091 
L 280.537036 -92.923237 
L 279.505548 -91.635565 
L 278.520521 -90.347892 
L 277.600967 -89.06022 
L 276.757007 -87.772547 
L 275.98834 -86.484875 
L 275.285022 -85.197203 
L 274.630672 -83.90953 
L 274.007308 -82.621858 
L 273.400429 -81.334185 
L 272.802814 -80.046513 
L 272.215915 -78.75884 
L 271.648529 -77.471168 
L 271.113475 -76.183495 
L 270.623716 -74.895823 
L 270.189389 -73.60815 
L 269.816549 -72.320478 
L 269.507487 -71.032805 
L 269.261739 -69.745133 
L 269.07687 -68.457461 
L 268.948474 -67.169788 
L 268.869536 -65.882116 
L 268.829805 -64.594443 
L 268.81594 -63.306771 
L 268.812924 -62.019098 
L 268.806583 -60.731426 
L 268.786421 -59.443753 
z
" id="m67d0660a7e" style="stroke:#4c4c4c;stroke-width:1.5;"/>
    </defs>
    <g clip-path="url(#p32bccb2f19)">
     <use style="fill:#20dfdf;stroke:#4c4c4c;stroke-width:1.5;" x="0" xlink:href="#m67d0660a7e" y="252"/>
    </g>
   </g>
   <g id="PolyCollection_9">
    <defs>
     <path d="M 325.759545 -55.986223 
L 323.762355 -55.986223 
L 323.614377 -56.869769 
L 323.4713 -57.753315 
L 323.33179 -58.63686 
L 323.193791 -59.520406 
L 323.054786 -60.403951 
L 322.912111 -61.287497 
L 322.763298 -62.171043 
L 322.606381 -63.054588 
L 322.440133 -63.938134 
L 322.264194 -64.821679 
L 322.079053 -65.705225 
L 321.885901 -66.588771 
L 321.686329 -67.472316 
L 321.481924 -68.355862 
L 321.273801 -69.239407 
L 321.062113 -70.122953 
L 320.845628 -71.006499 
L 320.621418 -71.890044 
L 320.384717 -72.77359 
L 320.129006 -73.657135 
L 319.846305 -74.540681 
L 319.527699 -75.424227 
L 319.164023 -76.307772 
L 318.746664 -77.191318 
L 318.268389 -78.074863 
L 317.724114 -78.958409 
L 317.11153 -79.841955 
L 316.431519 -80.7255 
L 315.688327 -81.609046 
L 314.889472 -82.492591 
L 314.045416 -83.376137 
L 313.169036 -84.259683 
L 312.274969 -85.143228 
L 311.378904 -86.026774 
L 310.496876 -86.910319 
L 309.644645 -87.793865 
L 308.837181 -88.677411 
L 308.088288 -89.560956 
L 307.410348 -90.444502 
L 306.81417 -91.328047 
L 306.308897 -92.211593 
L 305.901934 -93.095139 
L 305.598852 -93.978684 
L 305.403249 -94.86223 
L 305.316544 -95.745775 
L 305.337733 -96.629321 
L 305.463138 -97.512867 
L 305.686196 -98.396412 
L 305.997363 -99.279958 
L 306.384188 -100.163503 
L 306.831625 -101.047049 
L 307.322609 -101.930595 
L 307.838898 -102.81414 
L 308.362159 -103.697686 
L 308.875215 -104.581231 
L 309.363344 -105.464777 
L 309.815511 -106.348323 
L 310.22537 -107.231868 
L 310.591906 -108.115414 
L 310.919608 -108.998959 
L 311.218106 -109.882505 
L 311.501267 -110.766051 
L 311.785813 -111.649596 
L 312.089608 -112.533142 
L 312.429764 -113.416688 
L 312.820809 -114.300233 
L 313.273121 -115.183779 
L 313.791805 -116.067324 
L 314.37616 -116.95087 
L 315.019775 -117.834416 
L 315.711237 -118.717961 
L 316.435343 -119.601507 
L 317.174636 -120.485052 
L 317.911087 -121.368598 
L 318.62769 -122.252144 
L 319.30981 -123.135689 
L 319.94614 -124.019235 
L 320.529207 -124.90278 
L 321.055415 -125.786326 
L 321.524689 -126.669872 
L 321.939826 -127.553417 
L 322.305664 -128.436963 
L 322.628203 -129.320508 
L 322.913801 -130.204054 
L 323.168506 -131.0876 
L 323.397595 -131.971145 
L 323.605323 -132.854691 
L 323.794867 -133.738236 
L 323.968428 -134.621782 
L 324.127444 -135.505328 
L 324.272843 -136.388873 
L 324.405308 -137.272419 
L 324.525497 -138.155964 
L 324.634202 -139.03951 
L 324.732423 -139.923056 
L 324.821374 -140.806601 
L 324.902426 -141.690147 
L 324.977006 -142.573692 
L 325.046474 -143.457238 
L 325.759545 -143.457238 
L 325.759545 -143.457238 
L 325.759545 -142.573692 
L 325.759545 -141.690147 
L 325.759545 -140.806601 
L 325.759545 -139.923056 
L 325.759545 -139.03951 
L 325.759545 -138.155964 
L 325.759545 -137.272419 
L 325.759545 -136.388873 
L 325.759545 -135.505328 
L 325.759545 -134.621782 
L 325.759545 -133.738236 
L 325.759545 -132.854691 
L 325.759545 -131.971145 
L 325.759545 -131.0876 
L 325.759545 -130.204054 
L 325.759545 -129.320508 
L 325.759545 -128.436963 
L 325.759545 -127.553417 
L 325.759545 -126.669872 
L 325.759545 -125.786326 
L 325.759545 -124.90278 
L 325.759545 -124.019235 
L 325.759545 -123.135689 
L 325.759545 -122.252144 
L 325.759545 -121.368598 
L 325.759545 -120.485052 
L 325.759545 -119.601507 
L 325.759545 -118.717961 
L 325.759545 -117.834416 
L 325.759545 -116.95087 
L 325.759545 -116.067324 
L 325.759545 -115.183779 
L 325.759545 -114.300233 
L 325.759545 -113.416688 
L 325.759545 -112.533142 
L 325.759545 -111.649596 
L 325.759545 -110.766051 
L 325.759545 -109.882505 
L 325.759545 -108.998959 
L 325.759545 -108.115414 
L 325.759545 -107.231868 
L 325.759545 -106.348323 
L 325.759545 -105.464777 
L 325.759545 -104.581231 
L 325.759545 -103.697686 
L 325.759545 -102.81414 
L 325.759545 -101.930595 
L 325.759545 -101.047049 
L 325.759545 -100.163503 
L 325.759545 -99.279958 
L 325.759545 -98.396412 
L 325.759545 -97.512867 
L 325.759545 -96.629321 
L 325.759545 -95.745775 
L 325.759545 -94.86223 
L 325.759545 -93.978684 
L 325.759545 -93.095139 
L 325.759545 -92.211593 
L 325.759545 -91.328047 
L 325.759545 -90.444502 
L 325.759545 -89.560956 
L 325.759545 -88.677411 
L 325.759545 -87.793865 
L 325.759545 -86.910319 
L 325.759545 -86.026774 
L 325.759545 -85.143228 
L 325.759545 -84.259683 
L 325.759545 -83.376137 
L 325.759545 -82.492591 
L 325.759545 -81.609046 
L 325.759545 -80.7255 
L 325.759545 -79.841955 
L 325.759545 -78.958409 
L 325.759545 -78.074863 
L 325.759545 -77.191318 
L 325.759545 -76.307772 
L 325.759545 -75.424227 
L 325.759545 -74.540681 
L 325.759545 -73.657135 
L 325.759545 -72.77359 
L 325.759545 -71.890044 
L 325.759545 -71.006499 
L 325.759545 -70.122953 
L 325.759545 -69.239407 
L 325.759545 -68.355862 
L 325.759545 -67.472316 
L 325.759545 -66.588771 
L 325.759545 -65.705225 
L 325.759545 -64.821679 
L 325.759545 -63.938134 
L 325.759545 -63.054588 
L 325.759545 -62.171043 
L 325.759545 -61.287497 
L 325.759545 -60.403951 
L 325.759545 -59.520406 
L 325.759545 -58.63686 
L 325.759545 -57.753315 
L 325.759545 -56.869769 
L 325.759545 -55.986223 
z
" id="m2f4c5e8ef9" style="stroke:#4c4c4c;stroke-width:1.5;"/>
    </defs>
    <g clip-path="url(#p32bccb2f19)">
     <use style="fill:#20df20;stroke:#4c4c4c;stroke-width:1.5;" x="0" xlink:href="#m2f4c5e8ef9" y="252"/>
    </g>
   </g>
   <g id="PolyCollection_10">
    <defs>
     <path d="M 327.28914 -58.276276 
L 325.759545 -58.276276 
L 325.759545 -59.1317 
L 325.759545 -59.987125 
L 325.759545 -60.842549 
L 325.759545 -61.697974 
L 325.759545 -62.553398 
L 325.759545 -63.408823 
L 325.759545 -64.264247 
L 325.759545 -65.119672 
L 325.759545 -65.975097 
L 325.759545 -66.830521 
L 325.759545 -67.685946 
L 325.759545 -68.54137 
L 325.759545 -69.396795 
L 325.759545 -70.252219 
L 325.759545 -71.107644 
L 325.759545 -71.963068 
L 325.759545 -72.818493 
L 325.759545 -73.673917 
L 325.759545 -74.529342 
L 325.759545 -75.384766 
L 325.759545 -76.240191 
L 325.759545 -77.095616 
L 325.759545 -77.95104 
L 325.759545 -78.806465 
L 325.759545 -79.661889 
L 325.759545 -80.517314 
L 325.759545 -81.372738 
L 325.759545 -82.228163 
L 325.759545 -83.083587 
L 325.759545 -83.939012 
L 325.759545 -84.794436 
L 325.759545 -85.649861 
L 325.759545 -86.505285 
L 325.759545 -87.36071 
L 325.759545 -88.216135 
L 325.759545 -89.071559 
L 325.759545 -89.926984 
L 325.759545 -90.782408 
L 325.759545 -91.637833 
L 325.759545 -92.493257 
L 325.759545 -93.348682 
L 325.759545 -94.204106 
L 325.759545 -95.059531 
L 325.759545 -95.914955 
L 325.759545 -96.77038 
L 325.759545 -97.625804 
L 325.759545 -98.481229 
L 325.759545 -99.336654 
L 325.759545 -100.192078 
L 325.759545 -101.047503 
L 325.759545 -101.902927 
L 325.759545 -102.758352 
L 325.759545 -103.613776 
L 325.759545 -104.469201 
L 325.759545 -105.324625 
L 325.759545 -106.18005 
L 325.759545 -107.035474 
L 325.759545 -107.890899 
L 325.759545 -108.746324 
L 325.759545 -109.601748 
L 325.759545 -110.457173 
L 325.759545 -111.312597 
L 325.759545 -112.168022 
L 325.759545 -113.023446 
L 325.759545 -113.878871 
L 325.759545 -114.734295 
L 325.759545 -115.58972 
L 325.759545 -116.445144 
L 325.759545 -117.300569 
L 325.759545 -118.155993 
L 325.759545 -119.011418 
L 325.759545 -119.866843 
L 325.759545 -120.722267 
L 325.759545 -121.577692 
L 325.759545 -122.433116 
L 325.759545 -123.288541 
L 325.759545 -124.143965 
L 325.759545 -124.99939 
L 325.759545 -125.854814 
L 325.759545 -126.710239 
L 325.759545 -127.565663 
L 325.759545 -128.421088 
L 325.759545 -129.276512 
L 325.759545 -130.131937 
L 325.759545 -130.987362 
L 325.759545 -131.842786 
L 325.759545 -132.698211 
L 325.759545 -133.553635 
L 325.759545 -134.40906 
L 325.759545 -135.264484 
L 325.759545 -136.119909 
L 325.759545 -136.975333 
L 325.759545 -137.830758 
L 325.759545 -138.686182 
L 325.759545 -139.541607 
L 325.759545 -140.397031 
L 325.759545 -141.252456 
L 325.759545 -142.107881 
L 325.759545 -142.963305 
L 326.729333 -142.963305 
L 326.729333 -142.963305 
L 326.761596 -142.107881 
L 326.778862 -141.252456 
L 326.782181 -140.397031 
L 326.773634 -139.541607 
L 326.75612 -138.686182 
L 326.733118 -137.830758 
L 326.708443 -136.975333 
L 326.686078 -136.119909 
L 326.670083 -135.264484 
L 326.664593 -134.40906 
L 326.67387 -133.553635 
L 326.70238 -132.698211 
L 326.754812 -131.842786 
L 326.83602 -130.987362 
L 326.950834 -130.131937 
L 327.103747 -129.276512 
L 327.298499 -128.421088 
L 327.537617 -127.565663 
L 327.821987 -126.710239 
L 328.150523 -125.854814 
L 328.520018 -124.99939 
L 328.925217 -124.143965 
L 329.359129 -123.288541 
L 329.813575 -122.433116 
L 330.279906 -121.577692 
L 330.749852 -120.722267 
L 331.216386 -119.866843 
L 331.674541 -119.011418 
L 332.122062 -118.155993 
L 332.559842 -117.300569 
L 332.992067 -116.445144 
L 333.426032 -115.58972 
L 333.871638 -114.734295 
L 334.340583 -113.878871 
L 334.845299 -113.023446 
L 335.397744 -112.168022 
L 336.008136 -111.312597 
L 336.683754 -110.457173 
L 337.427934 -109.601748 
L 338.239353 -108.746324 
L 339.111692 -107.890899 
L 340.033725 -107.035474 
L 340.989844 -106.18005 
L 341.960991 -105.324625 
L 342.925923 -104.469201 
L 343.862697 -103.613776 
L 344.750224 -102.758352 
L 345.569736 -101.902927 
L 346.305987 -101.047503 
L 346.94806 -100.192078 
L 347.489674 -99.336654 
L 347.928969 -98.481229 
L 348.26781 -97.625804 
L 348.51073 -96.77038 
L 348.663681 -95.914955 
L 348.732769 -95.059531 
L 348.723176 -94.204106 
L 348.638388 -93.348682 
L 348.479826 -92.493257 
L 348.246894 -91.637833 
L 347.937414 -90.782408 
L 347.54835 -89.926984 
L 347.076741 -89.071559 
L 346.520683 -88.216135 
L 345.880276 -87.36071 
L 345.158401 -86.505285 
L 344.36124 -85.649861 
L 343.498463 -84.794436 
L 342.583042 -83.939012 
L 341.630682 -83.083587 
L 340.658929 -82.228163 
L 339.686021 -81.372738 
L 338.72964 -80.517314 
L 337.805677 -79.661889 
L 336.927197 -78.806465 
L 336.103689 -77.95104 
L 335.340718 -77.095616 
L 334.639967 -76.240191 
L 333.999662 -75.384766 
L 333.415281 -74.529342 
L 332.880448 -73.673917 
L 332.38788 -72.818493 
L 331.930275 -71.963068 
L 331.501052 -71.107644 
L 331.094878 -70.252219 
L 330.707959 -69.396795 
L 330.338087 -68.54137 
L 329.984486 -67.685946 
L 329.647492 -66.830521 
L 329.328127 -65.975097 
L 329.02764 -65.119672 
L 328.747071 -64.264247 
L 328.486909 -63.408823 
L 328.24687 -62.553398 
L 328.02584 -61.697974 
L 327.82197 -60.842549 
L 327.632904 -59.987125 
L 327.456094 -59.1317 
L 327.28914 -58.276276 
z
" id="mb3e4feb990" style="stroke:#4c4c4c;stroke-width:1.5;"/>
    </defs>
    <g clip-path="url(#p32bccb2f19)">
     <use style="fill:#20dfdf;stroke:#4c4c4c;stroke-width:1.5;" x="0" xlink:href="#mb3e4feb990" y="252"/>
    </g>
   </g>
   <g id="PathCollection_1">
    <defs>
     <path d="M 0 3 
C 0.795609 3 1.55874 2.683901 2.12132 2.12132 
C 2.683901 1.55874 3 0.795609 3 -0 
C 3 -0.795609 2.683901 -1.55874 2.12132 -2.12132 
C 1.55874 -2.683901 0.795609 -3 0 -3 
C -0.795609 -3 -1.55874 -2.683901 -2.12132 -2.12132 
C -2.683901 -1.55874 -3 -0.795609 -3 0 
C -3 0.795609 -2.683901 1.55874 -2.12132 2.12132 
C -1.55874 2.683901 -0.795609 3 0 3 
z
" id="C0_0_5a8e863be8"/>
    </defs>
    <g clip-path="url(#p32bccb2f19)">
     <use style="fill:#0000ff;stroke:#ffffff;stroke-width:0.48;" x="377.449298" xlink:href="#C0_0_5a8e863be8" y="129.332844"/>
    </g>
    <g clip-path="url(#p32bccb2f19)">
     <use style="fill:#dc143c;stroke:#ffffff;stroke-width:0.48;" x="377.449298" xlink:href="#C0_0_5a8e863be8" y="117.568262"/>
    </g>
    <g clip-path="url(#p32bccb2f19)">
     <use style="fill:#008000;stroke:#ffffff;stroke-width:0.48;" x="377.449298" xlink:href="#C0_0_5a8e863be8" y="90.31215"/>
    </g>
    <g clip-path="url(#p32bccb2f19)">
     <use style="stroke:#ffffff;stroke-width:0.48;" x="377.449298" xlink:href="#C0_0_5a8e863be8" y="85.866755"/>
    </g>
    <g clip-path="url(#p32bccb2f19)">
     <use style="fill:#ffa500;stroke:#ffffff;stroke-width:0.48;" x="377.449298" xlink:href="#C0_0_5a8e863be8" y="72.665277"/>
    </g>
   </g>
   <g id="PathCollection_2"/>
   <g id="PathCollection_3"/>
   <g id="PathCollection_4"/>
   <g id="PathCollection_5"/>
   <g id="PathCollection_6"/>
   <g id="PathCollection_7">
    <defs>
     <path d="M 0 3 
C 0.795609 3 1.55874 2.683901 2.12132 2.12132 
C 2.683901 1.55874 3 0.795609 3 -0 
C 3 -0.795609 2.683901 -1.55874 2.12132 -2.12132 
C 1.55874 -2.683901 0.795609 -3 0 -3 
C -0.795609 -3 -1.55874 -2.683901 -2.12132 -2.12132 
C -2.683901 -1.55874 -3 -0.795609 -3 0 
C -3 0.795609 -2.683901 1.55874 -2.12132 2.12132 
C -1.55874 2.683901 -0.795609 3 0 3 
z
" id="C1_0_ab86fd580a"/>
    </defs>
    <g clip-path="url(#p32bccb2f19)">
     <use style="fill:#0000ff;stroke:#ffffff;stroke-width:0.48;" x="388.935909" xlink:href="#C1_0_ab86fd580a" y="151.604725"/>
    </g>
    <g clip-path="url(#p32bccb2f19)">
     <use style="fill:#dc143c;stroke:#ffffff;stroke-width:0.48;" x="388.935909" xlink:href="#C1_0_ab86fd580a" y="156.005217"/>
    </g>
    <g clip-path="url(#p32bccb2f19)">
     <use style="fill:#008000;stroke:#ffffff;stroke-width:0.48;" x="388.935909" xlink:href="#C1_0_ab86fd580a" y="143.56709"/>
    </g>
    <g clip-path="url(#p32bccb2f19)">
     <use style="stroke:#ffffff;stroke-width:0.48;" x="388.935909" xlink:href="#C1_0_ab86fd580a" y="120.576762"/>
    </g>
    <g clip-path="url(#p32bccb2f19)">
     <use style="fill:#ffa500;stroke:#ffffff;stroke-width:0.48;" x="388.935909" xlink:href="#C1_0_ab86fd580a" y="81.196844"/>
    </g>
   </g>
   <g id="PathCollection_8"/>
   <g id="PathCollection_9"/>
   <g id="PathCollection_10"/>
   <g id="PathCollection_11"/>
   <g id="PathCollection_12"/>
   <g id="patch_3">
    <path clip-path="url(#p32bccb2f19)" d="M 96.027314 202.794127 
L 96.027314 202.794127 
L 96.027314 202.794127 
L 96.027314 202.794127 
z
" style="fill:#20df20;stroke:#4c4c4c;stroke-linejoin:miter;stroke-width:0.75;"/>
   </g>
   <g id="patch_4">
    <path clip-path="url(#p32bccb2f19)" d="M 96.027314 202.794127 
L 96.027314 202.794127 
L 96.027314 202.794127 
L 96.027314 202.794127 
z
" style="fill:#20dfdf;stroke:#4c4c4c;stroke-linejoin:miter;stroke-width:0.75;"/>
   </g>
   <g id="matplotlib.axis_1">
    <g id="xtick_1">
     <g id="line2d_1">
      <defs>
       <path d="M 0 0 
L 0 3.5 
" id="m0a0d083a7e" style="stroke:#000000;stroke-width:0.8;"/>
      </defs>
      <g>
       <use style="stroke:#000000;stroke-width:0.8;" x="96.027314" xlink:href="#m0a0d083a7e" y="209.68"/>
      </g>
     </g>
     <g id="text_1">
      <!-- 0 -->
      <g transform="translate(92.846064 224.278437)scale(0.1 -0.1)">
       <defs>
        <path d="M 2034 4250 
Q 1547 4250 1301 3770 
Q 1056 3291 1056 2328 
Q 1056 1369 1301 889 
Q 1547 409 2034 409 
Q 2525 409 2770 889 
Q 3016 1369 3016 2328 
Q 3016 3291 2770 3770 
Q 2525 4250 2034 4250 
z
M 2034 4750 
Q 2819 4750 3233 4129 
Q 3647 3509 3647 2328 
Q 3647 1150 3233 529 
Q 2819 -91 2034 -91 
Q 1250 -91 836 529 
Q 422 1150 422 2328 
Q 422 3509 836 4129 
Q 1250 4750 2034 4750 
z
" id="DejaVuSans-30" transform="scale(0.015625)"/>
       </defs>
       <use xlink:href="#DejaVuSans-30"/>
      </g>
     </g>
    </g>
    <g id="xtick_2">
     <g id="line2d_2">
      <g>
       <use style="stroke:#000000;stroke-width:0.8;" x="153.460372" xlink:href="#m0a0d083a7e" y="209.68"/>
      </g>
     </g>
     <g id="text_2">
      <!-- 1 -->
      <g transform="translate(150.279122 224.278437)scale(0.1 -0.1)">
       <defs>
        <path d="M 794 531 
L 1825 531 
L 1825 4091 
L 703 3866 
L 703 4441 
L 1819 4666 
L 2450 4666 
L 2450 531 
L 3481 531 
L 3481 0 
L 794 0 
L 794 531 
z
" id="DejaVuSans-31" transform="scale(0.015625)"/>
       </defs>
       <use xlink:href="#DejaVuSans-31"/>
      </g>
     </g>
    </g>
    <g id="xtick_3">
     <g id="line2d_3">
      <g>
       <use style="stroke:#000000;stroke-width:0.8;" x="210.89343" xlink:href="#m0a0d083a7e" y="209.68"/>
      </g>
     </g>
     <g id="text_3">
      <!-- 2 -->
      <g transform="translate(207.71218 224.278437)scale(0.1 -0.1)">
       <defs>
        <path d="M 1228 531 
L 3431 531 
L 3431 0 
L 469 0 
L 469 531 
Q 828 903 1448 1529 
Q 2069 2156 2228 2338 
Q 2531 2678 2651 2914 
Q 2772 3150 2772 3378 
Q 2772 3750 2511 3984 
Q 2250 4219 1831 4219 
Q 1534 4219 1204 4116 
Q 875 4013 500 3803 
L 500 4441 
Q 881 4594 1212 4672 
Q 1544 4750 1819 4750 
Q 2544 4750 2975 4387 
Q 3406 4025 3406 3419 
Q 3406 3131 3298 2873 
Q 3191 2616 2906 2266 
Q 2828 2175 2409 1742 
Q 1991 1309 1228 531 
z
" id="DejaVuSans-32" transform="scale(0.015625)"/>
       </defs>
       <use xlink:href="#DejaVuSans-32"/>
      </g>
     </g>
    </g>
    <g id="xtick_4">
     <g id="line2d_4">
      <g>
       <use style="stroke:#000000;stroke-width:0.8;" x="268.326488" xlink:href="#m0a0d083a7e" y="209.68"/>
      </g>
     </g>
     <g id="text_4">
      <!-- 3 -->
      <g transform="translate(265.145238 224.278437)scale(0.1 -0.1)">
       <defs>
        <path d="M 2597 2516 
Q 3050 2419 3304 2112 
Q 3559 1806 3559 1356 
Q 3559 666 3084 287 
Q 2609 -91 1734 -91 
Q 1441 -91 1130 -33 
Q 819 25 488 141 
L 488 750 
Q 750 597 1062 519 
Q 1375 441 1716 441 
Q 2309 441 2620 675 
Q 2931 909 2931 1356 
Q 2931 1769 2642 2001 
Q 2353 2234 1838 2234 
L 1294 2234 
L 1294 2753 
L 1863 2753 
Q 2328 2753 2575 2939 
Q 2822 3125 2822 3475 
Q 2822 3834 2567 4026 
Q 2313 4219 1838 4219 
Q 1578 4219 1281 4162 
Q 984 4106 628 3988 
L 628 4550 
Q 988 4650 1302 4700 
Q 1616 4750 1894 4750 
Q 2613 4750 3031 4423 
Q 3450 4097 3450 3541 
Q 3450 3153 3228 2886 
Q 3006 2619 2597 2516 
z
" id="DejaVuSans-33" transform="scale(0.015625)"/>
       </defs>
       <use xlink:href="#DejaVuSans-33"/>
      </g>
     </g>
    </g>
    <g id="xtick_5">
     <g id="line2d_5">
      <g>
       <use style="stroke:#000000;stroke-width:0.8;" x="325.759545" xlink:href="#m0a0d083a7e" y="209.68"/>
      </g>
     </g>
     <g id="text_5">
      <!-- 4 -->
      <g transform="translate(322.578295 224.278437)scale(0.1 -0.1)">
       <defs>
        <path d="M 2419 4116 
L 825 1625 
L 2419 1625 
L 2419 4116 
z
M 2253 4666 
L 3047 4666 
L 3047 1625 
L 3713 1625 
L 3713 1100 
L 3047 1100 
L 3047 0 
L 2419 0 
L 2419 1100 
L 313 1100 
L 313 1709 
L 2253 4666 
z
" id="DejaVuSans-34" transform="scale(0.015625)"/>
       </defs>
       <use xlink:href="#DejaVuSans-34"/>
      </g>
     </g>
    </g>
    <g id="xtick_6">
     <g id="line2d_6">
      <g>
       <use style="stroke:#000000;stroke-width:0.8;" x="383.192603" xlink:href="#m0a0d083a7e" y="209.68"/>
      </g>
     </g>
     <g id="text_6">
      <!-- Patients (L|R) -->
      <g transform="translate(349.744166 224.322187)scale(0.1 -0.1)">
       <defs>
        <path d="M 1259 4147 
L 1259 2394 
L 2053 2394 
Q 2494 2394 2734 2622 
Q 2975 2850 2975 3272 
Q 2975 3691 2734 3919 
Q 2494 4147 2053 4147 
L 1259 4147 
z
M 628 4666 
L 2053 4666 
Q 2838 4666 3239 4311 
Q 3641 3956 3641 3272 
Q 3641 2581 3239 2228 
Q 2838 1875 2053 1875 
L 1259 1875 
L 1259 0 
L 628 0 
L 628 4666 
z
" id="DejaVuSans-50" transform="scale(0.015625)"/>
        <path d="M 2194 1759 
Q 1497 1759 1228 1600 
Q 959 1441 959 1056 
Q 959 750 1161 570 
Q 1363 391 1709 391 
Q 2188 391 2477 730 
Q 2766 1069 2766 1631 
L 2766 1759 
L 2194 1759 
z
M 3341 1997 
L 3341 0 
L 2766 0 
L 2766 531 
Q 2569 213 2275 61 
Q 1981 -91 1556 -91 
Q 1019 -91 701 211 
Q 384 513 384 1019 
Q 384 1609 779 1909 
Q 1175 2209 1959 2209 
L 2766 2209 
L 2766 2266 
Q 2766 2663 2505 2880 
Q 2244 3097 1772 3097 
Q 1472 3097 1187 3025 
Q 903 2953 641 2809 
L 641 3341 
Q 956 3463 1253 3523 
Q 1550 3584 1831 3584 
Q 2591 3584 2966 3190 
Q 3341 2797 3341 1997 
z
" id="DejaVuSans-61" transform="scale(0.015625)"/>
        <path d="M 1172 4494 
L 1172 3500 
L 2356 3500 
L 2356 3053 
L 1172 3053 
L 1172 1153 
Q 1172 725 1289 603 
Q 1406 481 1766 481 
L 2356 481 
L 2356 0 
L 1766 0 
Q 1100 0 847 248 
Q 594 497 594 1153 
L 594 3053 
L 172 3053 
L 172 3500 
L 594 3500 
L 594 4494 
L 1172 4494 
z
" id="DejaVuSans-74" transform="scale(0.015625)"/>
        <path d="M 603 3500 
L 1178 3500 
L 1178 0 
L 603 0 
L 603 3500 
z
M 603 4863 
L 1178 4863 
L 1178 4134 
L 603 4134 
L 603 4863 
z
" id="DejaVuSans-69" transform="scale(0.015625)"/>
        <path d="M 3597 1894 
L 3597 1613 
L 953 1613 
Q 991 1019 1311 708 
Q 1631 397 2203 397 
Q 2534 397 2845 478 
Q 3156 559 3463 722 
L 3463 178 
Q 3153 47 2828 -22 
Q 2503 -91 2169 -91 
Q 1331 -91 842 396 
Q 353 884 353 1716 
Q 353 2575 817 3079 
Q 1281 3584 2069 3584 
Q 2775 3584 3186 3129 
Q 3597 2675 3597 1894 
z
M 3022 2063 
Q 3016 2534 2758 2815 
Q 2500 3097 2075 3097 
Q 1594 3097 1305 2825 
Q 1016 2553 972 2059 
L 3022 2063 
z
" id="DejaVuSans-65" transform="scale(0.015625)"/>
        <path d="M 3513 2113 
L 3513 0 
L 2938 0 
L 2938 2094 
Q 2938 2591 2744 2837 
Q 2550 3084 2163 3084 
Q 1697 3084 1428 2787 
Q 1159 2491 1159 1978 
L 1159 0 
L 581 0 
L 581 3500 
L 1159 3500 
L 1159 2956 
Q 1366 3272 1645 3428 
Q 1925 3584 2291 3584 
Q 2894 3584 3203 3211 
Q 3513 2838 3513 2113 
z
" id="DejaVuSans-6e" transform="scale(0.015625)"/>
        <path d="M 2834 3397 
L 2834 2853 
Q 2591 2978 2328 3040 
Q 2066 3103 1784 3103 
Q 1356 3103 1142 2972 
Q 928 2841 928 2578 
Q 928 2378 1081 2264 
Q 1234 2150 1697 2047 
L 1894 2003 
Q 2506 1872 2764 1633 
Q 3022 1394 3022 966 
Q 3022 478 2636 193 
Q 2250 -91 1575 -91 
Q 1294 -91 989 -36 
Q 684 19 347 128 
L 347 722 
Q 666 556 975 473 
Q 1284 391 1588 391 
Q 1994 391 2212 530 
Q 2431 669 2431 922 
Q 2431 1156 2273 1281 
Q 2116 1406 1581 1522 
L 1381 1569 
Q 847 1681 609 1914 
Q 372 2147 372 2553 
Q 372 3047 722 3315 
Q 1072 3584 1716 3584 
Q 2034 3584 2315 3537 
Q 2597 3491 2834 3397 
z
" id="DejaVuSans-73" transform="scale(0.015625)"/>
        <path id="DejaVuSans-20" transform="scale(0.015625)"/>
        <path d="M 1984 4856 
Q 1566 4138 1362 3434 
Q 1159 2731 1159 2009 
Q 1159 1288 1364 580 
Q 1569 -128 1984 -844 
L 1484 -844 
Q 1016 -109 783 600 
Q 550 1309 550 2009 
Q 550 2706 781 3412 
Q 1013 4119 1484 4856 
L 1984 4856 
z
" id="DejaVuSans-28" transform="scale(0.015625)"/>
        <path d="M 628 4666 
L 1259 4666 
L 1259 531 
L 3531 531 
L 3531 0 
L 628 0 
L 628 4666 
z
" id="DejaVuSans-4c" transform="scale(0.015625)"/>
        <path d="M 1344 4891 
L 1344 -1509 
L 813 -1509 
L 813 4891 
L 1344 4891 
z
" id="DejaVuSans-7c" transform="scale(0.015625)"/>
        <path d="M 2841 2188 
Q 3044 2119 3236 1894 
Q 3428 1669 3622 1275 
L 4263 0 
L 3584 0 
L 2988 1197 
Q 2756 1666 2539 1819 
Q 2322 1972 1947 1972 
L 1259 1972 
L 1259 0 
L 628 0 
L 628 4666 
L 2053 4666 
Q 2853 4666 3247 4331 
Q 3641 3997 3641 3322 
Q 3641 2881 3436 2590 
Q 3231 2300 2841 2188 
z
M 1259 4147 
L 1259 2491 
L 2053 2491 
Q 2509 2491 2742 2702 
Q 2975 2913 2975 3322 
Q 2975 3731 2742 3939 
Q 2509 4147 2053 4147 
L 1259 4147 
z
" id="DejaVuSans-52" transform="scale(0.015625)"/>
        <path d="M 513 4856 
L 1013 4856 
Q 1481 4119 1714 3412 
Q 1947 2706 1947 2009 
Q 1947 1309 1714 600 
Q 1481 -109 1013 -844 
L 513 -844 
Q 928 -128 1133 580 
Q 1338 1288 1338 2009 
Q 1338 2731 1133 3434 
Q 928 4138 513 4856 
z
" id="DejaVuSans-29" transform="scale(0.015625)"/>
       </defs>
       <use xlink:href="#DejaVuSans-50"/>
       <use x="55.802734" xlink:href="#DejaVuSans-61"/>
       <use x="117.082031" xlink:href="#DejaVuSans-74"/>
       <use x="156.291016" xlink:href="#DejaVuSans-69"/>
       <use x="184.074219" xlink:href="#DejaVuSans-65"/>
       <use x="245.597656" xlink:href="#DejaVuSans-6e"/>
       <use x="308.976562" xlink:href="#DejaVuSans-74"/>
       <use x="348.185547" xlink:href="#DejaVuSans-73"/>
       <use x="400.285156" xlink:href="#DejaVuSans-20"/>
       <use x="432.072266" xlink:href="#DejaVuSans-28"/>
       <use x="471.085938" xlink:href="#DejaVuSans-4c"/>
       <use x="526.798828" xlink:href="#DejaVuSans-7c"/>
       <use x="560.490234" xlink:href="#DejaVuSans-52"/>
       <use x="629.972656" xlink:href="#DejaVuSans-29"/>
      </g>
     </g>
    </g>
    <g id="text_7">
     <!-- KL-grade -->
     <g transform="translate(208.669219 238.278437)scale(0.1 -0.1)">
      <defs>
       <path d="M 628 4666 
L 1259 4666 
L 1259 2694 
L 3353 4666 
L 4166 4666 
L 1850 2491 
L 4331 0 
L 3500 0 
L 1259 2247 
L 1259 0 
L 628 0 
L 628 4666 
z
" id="DejaVuSans-4b" transform="scale(0.015625)"/>
       <path d="M 313 2009 
L 1997 2009 
L 1997 1497 
L 313 1497 
L 313 2009 
z
" id="DejaVuSans-2d" transform="scale(0.015625)"/>
       <path d="M 2906 1791 
Q 2906 2416 2648 2759 
Q 2391 3103 1925 3103 
Q 1463 3103 1205 2759 
Q 947 2416 947 1791 
Q 947 1169 1205 825 
Q 1463 481 1925 481 
Q 2391 481 2648 825 
Q 2906 1169 2906 1791 
z
M 3481 434 
Q 3481 -459 3084 -895 
Q 2688 -1331 1869 -1331 
Q 1566 -1331 1297 -1286 
Q 1028 -1241 775 -1147 
L 775 -588 
Q 1028 -725 1275 -790 
Q 1522 -856 1778 -856 
Q 2344 -856 2625 -561 
Q 2906 -266 2906 331 
L 2906 616 
Q 2728 306 2450 153 
Q 2172 0 1784 0 
Q 1141 0 747 490 
Q 353 981 353 1791 
Q 353 2603 747 3093 
Q 1141 3584 1784 3584 
Q 2172 3584 2450 3431 
Q 2728 3278 2906 2969 
L 2906 3500 
L 3481 3500 
L 3481 434 
z
" id="DejaVuSans-67" transform="scale(0.015625)"/>
       <path d="M 2631 2963 
Q 2534 3019 2420 3045 
Q 2306 3072 2169 3072 
Q 1681 3072 1420 2755 
Q 1159 2438 1159 1844 
L 1159 0 
L 581 0 
L 581 3500 
L 1159 3500 
L 1159 2956 
Q 1341 3275 1631 3429 
Q 1922 3584 2338 3584 
Q 2397 3584 2469 3576 
Q 2541 3569 2628 3553 
L 2631 2963 
z
" id="DejaVuSans-72" transform="scale(0.015625)"/>
       <path d="M 2906 2969 
L 2906 4863 
L 3481 4863 
L 3481 0 
L 2906 0 
L 2906 525 
Q 2725 213 2448 61 
Q 2172 -91 1784 -91 
Q 1150 -91 751 415 
Q 353 922 353 1747 
Q 353 2572 751 3078 
Q 1150 3584 1784 3584 
Q 2172 3584 2448 3432 
Q 2725 3281 2906 2969 
z
M 947 1747 
Q 947 1113 1208 752 
Q 1469 391 1925 391 
Q 2381 391 2643 752 
Q 2906 1113 2906 1747 
Q 2906 2381 2643 2742 
Q 2381 3103 1925 3103 
Q 1469 3103 1208 2742 
Q 947 2381 947 1747 
z
" id="DejaVuSans-64" transform="scale(0.015625)"/>
      </defs>
      <use xlink:href="#DejaVuSans-4b"/>
      <use x="65.576172" xlink:href="#DejaVuSans-4c"/>
      <use x="119.539062" xlink:href="#DejaVuSans-2d"/>
      <use x="155.623047" xlink:href="#DejaVuSans-67"/>
      <use x="219.099609" xlink:href="#DejaVuSans-72"/>
      <use x="260.212891" xlink:href="#DejaVuSans-61"/>
      <use x="321.492188" xlink:href="#DejaVuSans-64"/>
      <use x="384.96875" xlink:href="#DejaVuSans-65"/>
     </g>
    </g>
   </g>
   <g id="matplotlib.axis_2">
    <g id="ytick_1">
     <g id="line2d_7">
      <defs>
       <path d="M 0 0 
L -3.5 0 
" id="mec66448cfd" style="stroke:#000000;stroke-width:0.8;"/>
      </defs>
      <g>
       <use style="stroke:#000000;stroke-width:0.8;" x="57.26" xlink:href="#mec66448cfd" y="202.794127"/>
      </g>
     </g>
     <g id="text_8">
      <!-- 0 -->
      <g transform="translate(43.8975 206.593346)scale(0.1 -0.1)">
       <use xlink:href="#DejaVuSans-30"/>
      </g>
     </g>
    </g>
    <g id="ytick_2">
     <g id="line2d_8">
      <g>
       <use style="stroke:#000000;stroke-width:0.8;" x="57.26" xlink:href="#mec66448cfd" y="180.342635"/>
      </g>
     </g>
     <g id="text_9">
      <!-- 250 -->
      <g transform="translate(31.1725 184.141854)scale(0.1 -0.1)">
       <defs>
        <path d="M 691 4666 
L 3169 4666 
L 3169 4134 
L 1269 4134 
L 1269 2991 
Q 1406 3038 1543 3061 
Q 1681 3084 1819 3084 
Q 2600 3084 3056 2656 
Q 3513 2228 3513 1497 
Q 3513 744 3044 326 
Q 2575 -91 1722 -91 
Q 1428 -91 1123 -41 
Q 819 9 494 109 
L 494 744 
Q 775 591 1075 516 
Q 1375 441 1709 441 
Q 2250 441 2565 725 
Q 2881 1009 2881 1497 
Q 2881 1984 2565 2268 
Q 2250 2553 1709 2553 
Q 1456 2553 1204 2497 
Q 953 2441 691 2322 
L 691 4666 
z
" id="DejaVuSans-35" transform="scale(0.015625)"/>
       </defs>
       <use xlink:href="#DejaVuSans-32"/>
       <use x="63.623047" xlink:href="#DejaVuSans-35"/>
       <use x="127.246094" xlink:href="#DejaVuSans-30"/>
      </g>
     </g>
    </g>
    <g id="ytick_3">
     <g id="line2d_9">
      <g>
       <use style="stroke:#000000;stroke-width:0.8;" x="57.26" xlink:href="#mec66448cfd" y="157.891142"/>
      </g>
     </g>
     <g id="text_10">
      <!-- 500 -->
      <g transform="translate(31.1725 161.690361)scale(0.1 -0.1)">
       <use xlink:href="#DejaVuSans-35"/>
       <use x="63.623047" xlink:href="#DejaVuSans-30"/>
       <use x="127.246094" xlink:href="#DejaVuSans-30"/>
      </g>
     </g>
    </g>
    <g id="ytick_4">
     <g id="line2d_10">
      <g>
       <use style="stroke:#000000;stroke-width:0.8;" x="57.26" xlink:href="#mec66448cfd" y="135.43965"/>
      </g>
     </g>
     <g id="text_11">
      <!-- 750 -->
      <g transform="translate(31.1725 139.238869)scale(0.1 -0.1)">
       <defs>
        <path d="M 525 4666 
L 3525 4666 
L 3525 4397 
L 1831 0 
L 1172 0 
L 2766 4134 
L 525 4134 
L 525 4666 
z
" id="DejaVuSans-37" transform="scale(0.015625)"/>
       </defs>
       <use xlink:href="#DejaVuSans-37"/>
       <use x="63.623047" xlink:href="#DejaVuSans-35"/>
       <use x="127.246094" xlink:href="#DejaVuSans-30"/>
      </g>
     </g>
    </g>
    <g id="ytick_5">
     <g id="line2d_11">
      <g>
       <use style="stroke:#000000;stroke-width:0.8;" x="57.26" xlink:href="#mec66448cfd" y="112.988158"/>
      </g>
     </g>
     <g id="text_12">
      <!-- 1000 -->
      <g transform="translate(24.81 116.787376)scale(0.1 -0.1)">
       <use xlink:href="#DejaVuSans-31"/>
       <use x="63.623047" xlink:href="#DejaVuSans-30"/>
       <use x="127.246094" xlink:href="#DejaVuSans-30"/>
       <use x="190.869141" xlink:href="#DejaVuSans-30"/>
      </g>
     </g>
    </g>
    <g id="ytick_6">
     <g id="line2d_12">
      <g>
       <use style="stroke:#000000;stroke-width:0.8;" x="57.26" xlink:href="#mec66448cfd" y="90.536665"/>
      </g>
     </g>
     <g id="text_13">
      <!-- 1250 -->
      <g transform="translate(24.81 94.335884)scale(0.1 -0.1)">
       <use xlink:href="#DejaVuSans-31"/>
       <use x="63.623047" xlink:href="#DejaVuSans-32"/>
       <use x="127.246094" xlink:href="#DejaVuSans-35"/>
       <use x="190.869141" xlink:href="#DejaVuSans-30"/>
      </g>
     </g>
    </g>
    <g id="ytick_7">
     <g id="line2d_13">
      <g>
       <use style="stroke:#000000;stroke-width:0.8;" x="57.26" xlink:href="#mec66448cfd" y="68.085173"/>
      </g>
     </g>
     <g id="text_14">
      <!-- 1500 -->
      <g transform="translate(24.81 71.884391)scale(0.1 -0.1)">
       <use xlink:href="#DejaVuSans-31"/>
       <use x="63.623047" xlink:href="#DejaVuSans-35"/>
       <use x="127.246094" xlink:href="#DejaVuSans-30"/>
       <use x="190.869141" xlink:href="#DejaVuSans-30"/>
      </g>
     </g>
    </g>
    <g id="text_15">
     <!-- Center Joint Line (pixel) -->
     <g transform="translate(18.730313 192.737744)rotate(-90)scale(0.1 -0.1)">
      <defs>
       <path d="M 4122 4306 
L 4122 3641 
Q 3803 3938 3442 4084 
Q 3081 4231 2675 4231 
Q 1875 4231 1450 3742 
Q 1025 3253 1025 2328 
Q 1025 1406 1450 917 
Q 1875 428 2675 428 
Q 3081 428 3442 575 
Q 3803 722 4122 1019 
L 4122 359 
Q 3791 134 3420 21 
Q 3050 -91 2638 -91 
Q 1578 -91 968 557 
Q 359 1206 359 2328 
Q 359 3453 968 4101 
Q 1578 4750 2638 4750 
Q 3056 4750 3426 4639 
Q 3797 4528 4122 4306 
z
" id="DejaVuSans-43" transform="scale(0.015625)"/>
       <path d="M 628 4666 
L 1259 4666 
L 1259 325 
Q 1259 -519 939 -900 
Q 619 -1281 -91 -1281 
L -331 -1281 
L -331 -750 
L -134 -750 
Q 284 -750 456 -515 
Q 628 -281 628 325 
L 628 4666 
z
" id="DejaVuSans-4a" transform="scale(0.015625)"/>
       <path d="M 1959 3097 
Q 1497 3097 1228 2736 
Q 959 2375 959 1747 
Q 959 1119 1226 758 
Q 1494 397 1959 397 
Q 2419 397 2687 759 
Q 2956 1122 2956 1747 
Q 2956 2369 2687 2733 
Q 2419 3097 1959 3097 
z
M 1959 3584 
Q 2709 3584 3137 3096 
Q 3566 2609 3566 1747 
Q 3566 888 3137 398 
Q 2709 -91 1959 -91 
Q 1206 -91 779 398 
Q 353 888 353 1747 
Q 353 2609 779 3096 
Q 1206 3584 1959 3584 
z
" id="DejaVuSans-6f" transform="scale(0.015625)"/>
       <path d="M 1159 525 
L 1159 -1331 
L 581 -1331 
L 581 3500 
L 1159 3500 
L 1159 2969 
Q 1341 3281 1617 3432 
Q 1894 3584 2278 3584 
Q 2916 3584 3314 3078 
Q 3713 2572 3713 1747 
Q 3713 922 3314 415 
Q 2916 -91 2278 -91 
Q 1894 -91 1617 61 
Q 1341 213 1159 525 
z
M 3116 1747 
Q 3116 2381 2855 2742 
Q 2594 3103 2138 3103 
Q 1681 3103 1420 2742 
Q 1159 2381 1159 1747 
Q 1159 1113 1420 752 
Q 1681 391 2138 391 
Q 2594 391 2855 752 
Q 3116 1113 3116 1747 
z
" id="DejaVuSans-70" transform="scale(0.015625)"/>
       <path d="M 3513 3500 
L 2247 1797 
L 3578 0 
L 2900 0 
L 1881 1375 
L 863 0 
L 184 0 
L 1544 1831 
L 300 3500 
L 978 3500 
L 1906 2253 
L 2834 3500 
L 3513 3500 
z
" id="DejaVuSans-78" transform="scale(0.015625)"/>
       <path d="M 603 4863 
L 1178 4863 
L 1178 0 
L 603 0 
L 603 4863 
z
" id="DejaVuSans-6c" transform="scale(0.015625)"/>
      </defs>
      <use xlink:href="#DejaVuSans-43"/>
      <use x="69.824219" xlink:href="#DejaVuSans-65"/>
      <use x="131.347656" xlink:href="#DejaVuSans-6e"/>
      <use x="194.726562" xlink:href="#DejaVuSans-74"/>
      <use x="233.935547" xlink:href="#DejaVuSans-65"/>
      <use x="295.458984" xlink:href="#DejaVuSans-72"/>
      <use x="336.572266" xlink:href="#DejaVuSans-20"/>
      <use x="368.359375" xlink:href="#DejaVuSans-4a"/>
      <use x="397.851562" xlink:href="#DejaVuSans-6f"/>
      <use x="459.033203" xlink:href="#DejaVuSans-69"/>
      <use x="486.816406" xlink:href="#DejaVuSans-6e"/>
      <use x="550.195312" xlink:href="#DejaVuSans-74"/>
      <use x="589.404297" xlink:href="#DejaVuSans-20"/>
      <use x="621.191406" xlink:href="#DejaVuSans-4c"/>
      <use x="676.904297" xlink:href="#DejaVuSans-69"/>
      <use x="704.6875" xlink:href="#DejaVuSans-6e"/>
      <use x="768.066406" xlink:href="#DejaVuSans-65"/>
      <use x="829.589844" xlink:href="#DejaVuSans-20"/>
      <use x="861.376953" xlink:href="#DejaVuSans-28"/>
      <use x="900.390625" xlink:href="#DejaVuSans-70"/>
      <use x="963.867188" xlink:href="#DejaVuSans-69"/>
      <use x="991.650391" xlink:href="#DejaVuSans-78"/>
      <use x="1047.705078" xlink:href="#DejaVuSans-65"/>
      <use x="1109.228516" xlink:href="#DejaVuSans-6c"/>
      <use x="1137.011719" xlink:href="#DejaVuSans-29"/>
     </g>
    </g>
   </g>
   <g id="line2d_14">
    <path clip-path="url(#p32bccb2f19)" d="M 96.027314 165.389941 
L 96.027314 88.246613 
" style="fill:none;stroke:#4c4c4c;stroke-linecap:square;stroke-width:1.5;"/>
   </g>
   <g id="line2d_15">
    <path clip-path="url(#p32bccb2f19)" d="M 96.027314 137.718476 
L 96.027314 117.792777 
" style="fill:none;stroke:#4c4c4c;stroke-linecap:square;stroke-width:4.5;"/>
   </g>
   <g id="line2d_16">
    <path clip-path="url(#p32bccb2f19)" d="M 153.460372 169.251598 
L 153.460372 90.401956 
" style="fill:none;stroke:#4c4c4c;stroke-linecap:square;stroke-width:1.5;"/>
   </g>
   <g id="line2d_17">
    <path clip-path="url(#p32bccb2f19)" d="M 153.460372 139.278855 
L 153.460372 118.847997 
" style="fill:none;stroke:#4c4c4c;stroke-linecap:square;stroke-width:4.5;"/>
   </g>
   <g id="line2d_18">
    <path clip-path="url(#p32bccb2f19)" d="M 210.89343 172.349904 
L 210.89343 90.042732 
" style="fill:none;stroke:#4c4c4c;stroke-linecap:square;stroke-width:1.5;"/>
   </g>
   <g id="line2d_19">
    <path clip-path="url(#p32bccb2f19)" d="M 210.89343 142.377161 
L 210.89343 121.407467 
" style="fill:none;stroke:#4c4c4c;stroke-linecap:square;stroke-width:4.5;"/>
   </g>
   <g id="line2d_20">
    <path clip-path="url(#p32bccb2f19)" d="M 268.326488 182.947008 
L 268.326488 100.864352 
" style="fill:none;stroke:#4c4c4c;stroke-linecap:square;stroke-width:1.5;"/>
   </g>
   <g id="line2d_21">
    <path clip-path="url(#p32bccb2f19)" d="M 268.326488 152.154786 
L 268.326488 131.521865 
" style="fill:none;stroke:#4c4c4c;stroke-linecap:square;stroke-width:4.5;"/>
   </g>
   <g id="line2d_22">
    <path clip-path="url(#p32bccb2f19)" d="M 325.759545 190.086583 
L 325.759545 119.364381 
" style="fill:none;stroke:#4c4c4c;stroke-linecap:square;stroke-width:1.5;"/>
   </g>
   <g id="line2d_23">
    <path clip-path="url(#p32bccb2f19)" d="M 325.759545 165.23278 
L 325.759545 146.586816 
" style="fill:none;stroke:#4c4c4c;stroke-linecap:square;stroke-width:4.5;"/>
   </g>
   <g id="line2d_24">
    <path clip-path="url(#p32bccb2f19)" d="M 383.192603 202.794127 
L 383.192603 68.085173 
" style="fill:none;stroke:#000000;stroke-linecap:square;"/>
   </g>
   <g id="patch_5">
    <path d="M 57.26 209.68 
L 57.26 58.1908 
" style="fill:none;stroke:#000000;stroke-linecap:square;stroke-linejoin:miter;stroke-width:0.8;"/>
   </g>
   <g id="patch_6">
    <path d="M 404.73 209.68 
L 404.73 58.1908 
" style="fill:none;stroke:#000000;stroke-linecap:square;stroke-linejoin:miter;stroke-width:0.8;"/>
   </g>
   <g id="patch_7">
    <path d="M 57.26 209.68 
L 404.73 209.68 
" style="fill:none;stroke:#000000;stroke-linecap:square;stroke-linejoin:miter;stroke-width:0.8;"/>
   </g>
   <g id="patch_8">
    <path d="M 57.26 58.1908 
L 404.73 58.1908 
" style="fill:none;stroke:#000000;stroke-linecap:square;stroke-linejoin:miter;stroke-width:0.8;"/>
   </g>
   <g id="PathCollection_13">
    <defs>
     <path d="M 0 1.5 
C 0.397805 1.5 0.77937 1.341951 1.06066 1.06066 
C 1.341951 0.77937 1.5 0.397805 1.5 0 
C 1.5 -0.397805 1.341951 -0.77937 1.06066 -1.06066 
C 0.77937 -1.341951 0.397805 -1.5 0 -1.5 
C -0.397805 -1.5 -0.77937 -1.341951 -1.06066 -1.06066 
C -1.341951 -0.77937 -1.5 -0.397805 -1.5 0 
C -1.5 0.397805 -1.341951 0.77937 -1.06066 1.06066 
C -0.77937 1.341951 -0.397805 1.5 0 1.5 
z
" id="m096cccc3d2" style="stroke:#4c4c4c;"/>
    </defs>
    <g clip-path="url(#p32bccb2f19)">
     <use style="fill:#ffffff;stroke:#4c4c4c;" x="96.027314" xlink:href="#m096cccc3d2" y="127.76124"/>
    </g>
   </g>
   <g id="PathCollection_14">
    <g clip-path="url(#p32bccb2f19)">
     <use style="fill:#ffffff;stroke:#4c4c4c;" x="153.460372" xlink:href="#m096cccc3d2" y="128.928717"/>
    </g>
   </g>
   <g id="PathCollection_15">
    <g clip-path="url(#p32bccb2f19)">
     <use style="fill:#ffffff;stroke:#4c4c4c;" x="210.89343" xlink:href="#m096cccc3d2" y="131.802508"/>
    </g>
   </g>
   <g id="PathCollection_16">
    <g clip-path="url(#p32bccb2f19)">
     <use style="fill:#ffffff;stroke:#4c4c4c;" x="268.326488" xlink:href="#m096cccc3d2" y="141.726068"/>
    </g>
   </g>
   <g id="PathCollection_17">
    <g clip-path="url(#p32bccb2f19)">
     <use style="fill:#ffffff;stroke:#4c4c4c;" x="325.759545" xlink:href="#m096cccc3d2" y="155.713348"/>
    </g>
   </g>
   <g id="legend_1">
    <g id="patch_9">
     <path d="M 47.102031 54.644966 
L 414.887969 54.644966 
L 414.887969 22.288716 
L 47.102031 22.288716 
z
" style="fill:#ffffff;opacity:0.8;stroke:#cccccc;stroke-linejoin:miter;"/>
    </g>
    <g id="patch_10">
     <path d="M 51.102031 33.887153 
L 71.102031 33.887153 
L 71.102031 26.887153 
L 51.102031 26.887153 
z
" style="fill:#20df20;stroke:#4c4c4c;stroke-linejoin:miter;stroke-width:0.75;"/>
    </g>
    <g id="text_16">
     <!-- Left Knee -->
     <g transform="translate(79.102031 33.887153)scale(0.1 -0.1)">
      <defs>
       <path d="M 2375 4863 
L 2375 4384 
L 1825 4384 
Q 1516 4384 1395 4259 
Q 1275 4134 1275 3809 
L 1275 3500 
L 2222 3500 
L 2222 3053 
L 1275 3053 
L 1275 0 
L 697 0 
L 697 3053 
L 147 3053 
L 147 3500 
L 697 3500 
L 697 3744 
Q 697 4328 969 4595 
Q 1241 4863 1831 4863 
L 2375 4863 
z
" id="DejaVuSans-66" transform="scale(0.015625)"/>
      </defs>
      <use xlink:href="#DejaVuSans-4c"/>
      <use x="53.962891" xlink:href="#DejaVuSans-65"/>
      <use x="115.486328" xlink:href="#DejaVuSans-66"/>
      <use x="148.941406" xlink:href="#DejaVuSans-74"/>
      <use x="188.150391" xlink:href="#DejaVuSans-20"/>
      <use x="219.9375" xlink:href="#DejaVuSans-4b"/>
      <use x="285.513672" xlink:href="#DejaVuSans-6e"/>
      <use x="348.892578" xlink:href="#DejaVuSans-65"/>
      <use x="410.416016" xlink:href="#DejaVuSans-65"/>
     </g>
    </g>
    <g id="patch_11">
     <path d="M 51.102031 48.565278 
L 71.102031 48.565278 
L 71.102031 41.565278 
L 51.102031 41.565278 
z
" style="fill:#20dfdf;stroke:#4c4c4c;stroke-linejoin:miter;stroke-width:0.75;"/>
    </g>
    <g id="text_17">
     <!-- Right Knee -->
     <g transform="translate(79.102031 48.565278)scale(0.1 -0.1)">
      <defs>
       <path d="M 3513 2113 
L 3513 0 
L 2938 0 
L 2938 2094 
Q 2938 2591 2744 2837 
Q 2550 3084 2163 3084 
Q 1697 3084 1428 2787 
Q 1159 2491 1159 1978 
L 1159 0 
L 581 0 
L 581 4863 
L 1159 4863 
L 1159 2956 
Q 1366 3272 1645 3428 
Q 1925 3584 2291 3584 
Q 2894 3584 3203 3211 
Q 3513 2838 3513 2113 
z
" id="DejaVuSans-68" transform="scale(0.015625)"/>
      </defs>
      <use xlink:href="#DejaVuSans-52"/>
      <use x="69.482422" xlink:href="#DejaVuSans-69"/>
      <use x="97.265625" xlink:href="#DejaVuSans-67"/>
      <use x="160.742188" xlink:href="#DejaVuSans-68"/>
      <use x="224.121094" xlink:href="#DejaVuSans-74"/>
      <use x="263.330078" xlink:href="#DejaVuSans-20"/>
      <use x="295.117188" xlink:href="#DejaVuSans-4b"/>
      <use x="360.693359" xlink:href="#DejaVuSans-6e"/>
      <use x="424.072266" xlink:href="#DejaVuSans-65"/>
      <use x="485.595703" xlink:href="#DejaVuSans-65"/>
     </g>
    </g>
    <g id="PathCollection_18">
     <defs>
      <path d="M 0 3 
C 0.795609 3 1.55874 2.683901 2.12132 2.12132 
C 2.683901 1.55874 3 0.795609 3 0 
C 3 -0.795609 2.683901 -1.55874 2.12132 -2.12132 
C 1.55874 -2.683901 0.795609 -3 0 -3 
C -0.795609 -3 -1.55874 -2.683901 -2.12132 -2.12132 
C -2.683901 -1.55874 -3 -0.795609 -3 0 
C -3 0.795609 -2.683901 1.55874 -2.12132 2.12132 
C -1.55874 2.683901 -0.795609 3 0 3 
z
" id="m088a845141" style="stroke:#0000ff;"/>
     </defs>
     <g>
      <use style="fill:#0000ff;stroke:#0000ff;" x="163.814531" xlink:href="#m088a845141" y="31.262153"/>
     </g>
    </g>
    <g id="text_18">
     <!-- Patient 1 -->
     <g transform="translate(181.814531 33.887153)scale(0.1 -0.1)">
      <use xlink:href="#DejaVuSans-50"/>
      <use x="55.802734" xlink:href="#DejaVuSans-61"/>
      <use x="117.082031" xlink:href="#DejaVuSans-74"/>
      <use x="156.291016" xlink:href="#DejaVuSans-69"/>
      <use x="184.074219" xlink:href="#DejaVuSans-65"/>
      <use x="245.597656" xlink:href="#DejaVuSans-6e"/>
      <use x="308.976562" xlink:href="#DejaVuSans-74"/>
      <use x="348.185547" xlink:href="#DejaVuSans-20"/>
      <use x="379.972656" xlink:href="#DejaVuSans-31"/>
     </g>
    </g>
    <g id="PathCollection_19">
     <defs>
      <path d="M 0 3 
C 0.795609 3 1.55874 2.683901 2.12132 2.12132 
C 2.683901 1.55874 3 0.795609 3 0 
C 3 -0.795609 2.683901 -1.55874 2.12132 -2.12132 
C 1.55874 -2.683901 0.795609 -3 0 -3 
C -0.795609 -3 -1.55874 -2.683901 -2.12132 -2.12132 
C -2.683901 -1.55874 -3 -0.795609 -3 0 
C -3 0.795609 -2.683901 1.55874 -2.12132 2.12132 
C -1.55874 2.683901 -0.795609 3 0 3 
z
" id="m9068eb7db1" style="stroke:#dc143c;"/>
     </defs>
     <g>
      <use style="fill:#dc143c;stroke:#dc143c;" x="163.814531" xlink:href="#m9068eb7db1" y="45.940278"/>
     </g>
    </g>
    <g id="text_19">
     <!-- Patient 2 -->
     <g transform="translate(181.814531 48.565278)scale(0.1 -0.1)">
      <use xlink:href="#DejaVuSans-50"/>
      <use x="55.802734" xlink:href="#DejaVuSans-61"/>
      <use x="117.082031" xlink:href="#DejaVuSans-74"/>
      <use x="156.291016" xlink:href="#DejaVuSans-69"/>
      <use x="184.074219" xlink:href="#DejaVuSans-65"/>
      <use x="245.597656" xlink:href="#DejaVuSans-6e"/>
      <use x="308.976562" xlink:href="#DejaVuSans-74"/>
      <use x="348.185547" xlink:href="#DejaVuSans-20"/>
      <use x="379.972656" xlink:href="#DejaVuSans-32"/>
     </g>
    </g>
    <g id="PathCollection_20">
     <defs>
      <path d="M 0 3 
C 0.795609 3 1.55874 2.683901 2.12132 2.12132 
C 2.683901 1.55874 3 0.795609 3 0 
C 3 -0.795609 2.683901 -1.55874 2.12132 -2.12132 
C 1.55874 -2.683901 0.795609 -3 0 -3 
C -0.795609 -3 -1.55874 -2.683901 -2.12132 -2.12132 
C -2.683901 -1.55874 -3 -0.795609 -3 0 
C -3 0.795609 -2.683901 1.55874 -2.12132 2.12132 
C -1.55874 2.683901 -0.795609 3 0 3 
z
" id="m93048df3e5" style="stroke:#008000;"/>
     </defs>
     <g>
      <use style="fill:#008000;stroke:#008000;" x="256.172344" xlink:href="#m93048df3e5" y="31.262153"/>
     </g>
    </g>
    <g id="text_20">
     <!-- Patient 3 -->
     <g transform="translate(274.172344 33.887153)scale(0.1 -0.1)">
      <use xlink:href="#DejaVuSans-50"/>
      <use x="55.802734" xlink:href="#DejaVuSans-61"/>
      <use x="117.082031" xlink:href="#DejaVuSans-74"/>
      <use x="156.291016" xlink:href="#DejaVuSans-69"/>
      <use x="184.074219" xlink:href="#DejaVuSans-65"/>
      <use x="245.597656" xlink:href="#DejaVuSans-6e"/>
      <use x="308.976562" xlink:href="#DejaVuSans-74"/>
      <use x="348.185547" xlink:href="#DejaVuSans-20"/>
      <use x="379.972656" xlink:href="#DejaVuSans-33"/>
     </g>
    </g>
    <g id="PathCollection_21">
     <defs>
      <path d="M 0 3 
C 0.795609 3 1.55874 2.683901 2.12132 2.12132 
C 2.683901 1.55874 3 0.795609 3 0 
C 3 -0.795609 2.683901 -1.55874 2.12132 -2.12132 
C 1.55874 -2.683901 0.795609 -3 0 -3 
C -0.795609 -3 -1.55874 -2.683901 -2.12132 -2.12132 
C -2.683901 -1.55874 -3 -0.795609 -3 0 
C -3 0.795609 -2.683901 1.55874 -2.12132 2.12132 
C -1.55874 2.683901 -0.795609 3 0 3 
z
" id="m14165113af" style="stroke:#000000;"/>
     </defs>
     <g>
      <use style="stroke:#000000;" x="256.172344" xlink:href="#m14165113af" y="45.940278"/>
     </g>
    </g>
    <g id="text_21">
     <!-- Patient 4 -->
     <g transform="translate(274.172344 48.565278)scale(0.1 -0.1)">
      <use xlink:href="#DejaVuSans-50"/>
      <use x="55.802734" xlink:href="#DejaVuSans-61"/>
      <use x="117.082031" xlink:href="#DejaVuSans-74"/>
      <use x="156.291016" xlink:href="#DejaVuSans-69"/>
      <use x="184.074219" xlink:href="#DejaVuSans-65"/>
      <use x="245.597656" xlink:href="#DejaVuSans-6e"/>
      <use x="308.976562" xlink:href="#DejaVuSans-74"/>
      <use x="348.185547" xlink:href="#DejaVuSans-20"/>
      <use x="379.972656" xlink:href="#DejaVuSans-34"/>
     </g>
    </g>
    <g id="PathCollection_22">
     <defs>
      <path d="M 0 3 
C 0.795609 3 1.55874 2.683901 2.12132 2.12132 
C 2.683901 1.55874 3 0.795609 3 0 
C 3 -0.795609 2.683901 -1.55874 2.12132 -2.12132 
C 1.55874 -2.683901 0.795609 -3 0 -3 
C -0.795609 -3 -1.55874 -2.683901 -2.12132 -2.12132 
C -2.683901 -1.55874 -3 -0.795609 -3 0 
C -3 0.795609 -2.683901 1.55874 -2.12132 2.12132 
C -1.55874 2.683901 -0.795609 3 0 3 
z
" id="m1812a53fb4" style="stroke:#ffa500;"/>
     </defs>
     <g>
      <use style="fill:#ffa500;stroke:#ffa500;" x="348.530156" xlink:href="#m1812a53fb4" y="31.262153"/>
     </g>
    </g>
    <g id="text_22">
     <!-- Patient 5 -->
     <g transform="translate(366.530156 33.887153)scale(0.1 -0.1)">
      <use xlink:href="#DejaVuSans-50"/>
      <use x="55.802734" xlink:href="#DejaVuSans-61"/>
      <use x="117.082031" xlink:href="#DejaVuSans-74"/>
      <use x="156.291016" xlink:href="#DejaVuSans-69"/>
      <use x="184.074219" xlink:href="#DejaVuSans-65"/>
      <use x="245.597656" xlink:href="#DejaVuSans-6e"/>
      <use x="308.976562" xlink:href="#DejaVuSans-74"/>
      <use x="348.185547" xlink:href="#DejaVuSans-20"/>
      <use x="379.972656" xlink:href="#DejaVuSans-35"/>
     </g>
    </g>
   </g>
  </g>
 </g>
 <defs>
  <clipPath id="p32bccb2f19">
   <rect height="151.4892" width="347.47" x="57.26" y="58.1908"/>
  </clipPath>
 </defs>
</svg>
