<?xml version="1.0" encoding="utf-8" standalone="no"?>
<!DOCTYPE svg PUBLIC "-//W3C//DTD SVG 1.1//EN"
  "http://www.w3.org/Graphics/SVG/1.1/DTD/svg11.dtd">
<svg height="252pt" version="1.1" viewBox="0 0 432 252" width="432pt" xmlns="http://www.w3.org/2000/svg" xmlns:xlink="http://www.w3.org/1999/xlink">
 <metadata>
  <rdf:RDF xmlns:cc="http://creativecommons.org/ns#" xmlns:dc="http://purl.org/dc/elements/1.1/" xmlns:rdf="http://www.w3.org/1999/02/22-rdf-syntax-ns#">
   <cc:Work>
    <dc:type rdf:resource="http://purl.org/dc/dcmitype/StillImage"/>
    <dc:date>2023-01-10T00:01:36.205855</dc:date>
    <dc:format>image/svg+xml</dc:format>
    <dc:creator>
     <cc:Agent>
      <dc:title>Matplotlib v3.4.3, https://matplotlib.org/</dc:title>
     </cc:Agent>
    </dc:creator>
   </cc:Work>
  </rdf:RDF>
 </metadata>
 <defs>
  <style type="text/css">*{stroke-linecap:butt;stroke-linejoin:round;}</style>
 </defs>
 <g id="figure_1">
  <g id="patch_1">
   <path d="M 0 252 
L 432 252 
L 432 0 
L 0 0 
z
" style="fill:#ffffff;"/>
  </g>
  <g id="axes_1">
   <g id="patch_2">
    <path d="M 57.17 209.68 
L 404.73 209.68 
L 404.73 58.1908 
L 57.17 58.1908 
z
" style="fill:#ffffff;"/>
   </g>
   <g id="PolyCollection_1">
    <defs>
     <path d="M 95.947355 -61.117408 
L 95.882484 -61.117408 
L 95.885752 -62.092457 
L 95.894524 -63.067506 
L 95.905317 -64.042554 
L 95.913918 -65.017603 
L 95.916707 -65.992652 
L 95.911501 -66.967701 
L 95.897915 -67.94275 
L 95.87741 -68.917799 
L 95.853053 -69.892848 
L 95.828867 -70.867897 
L 95.808779 -71.842946 
L 95.795526 -72.817995 
L 95.789937 -73.793043 
L 95.790731 -74.768092 
L 95.794735 -75.743141 
L 95.7974 -76.71819 
L 95.79364 -77.693239 
L 95.77899 -78.668288 
L 95.750734 -79.643337 
L 95.70851 -80.618386 
L 95.65422 -81.593435 
L 95.591509 -82.568484 
L 95.525102 -83.543533 
L 95.459654 -84.518581 
L 95.39761 -85.49363 
L 95.336569 -86.468679 
L 95.268182 -87.443728 
L 95.180469 -88.418777 
L 95.062642 -89.393826 
L 94.908405 -90.368875 
L 94.71408 -91.343924 
L 94.472503 -92.318973 
L 94.168222 -93.294022 
L 93.779124 -94.269071 
L 93.283995 -95.244119 
L 92.670338 -96.219168 
L 91.93699 -97.194217 
L 91.091356 -98.169266 
L 90.145499 -99.144315 
L 89.114593 -100.119364 
L 88.016931 -101.094413 
L 86.872593 -102.069462 
L 85.700669 -103.044511 
L 84.517982 -104.01956 
L 83.340209 -104.994608 
L 82.181361 -105.969657 
L 81.048043 -106.944706 
L 79.933182 -107.919755 
L 78.820269 -108.894804 
L 77.702519 -109.869853 
L 76.604847 -110.844902 
L 75.587536 -111.819951 
L 74.722093 -112.795 
L 74.053939 -113.770049 
L 73.580517 -114.745098 
L 73.262666 -115.720146 
L 73.060732 -116.695195 
L 72.968182 -117.670244 
L 73.019316 -118.645293 
L 73.268389 -119.620342 
L 73.756832 -120.595391 
L 74.489298 -121.57044 
L 75.428909 -122.545489 
L 76.509025 -123.520538 
L 77.652554 -124.495587 
L 78.790472 -125.470636 
L 79.873944 -126.445684 
L 80.877421 -127.420733 
L 81.794213 -128.395782 
L 82.629969 -129.370831 
L 83.399364 -130.34588 
L 84.126235 -131.320929 
L 84.8424 -132.295978 
L 85.580386 -133.271027 
L 86.360712 -134.246076 
L 87.180173 -135.221125 
L 88.009194 -136.196174 
L 88.802169 -137.171222 
L 89.517068 -138.146271 
L 90.134124 -139.12132 
L 90.662838 -140.096369 
L 91.133511 -141.071418 
L 91.579343 -142.046467 
L 92.020426 -143.021516 
L 92.457875 -143.996565 
L 92.878676 -144.971614 
L 93.266053 -145.946663 
L 93.608989 -146.921711 
L 93.906659 -147.89676 
L 94.166665 -148.871809 
L 94.399116 -149.846858 
L 94.610773 -150.821907 
L 94.803051 -151.796956 
L 94.974559 -152.772005 
L 95.125343 -153.747054 
L 95.259035 -154.722103 
L 95.381327 -155.697152 
L 95.496413 -156.672201 
L 95.604416 -157.647249 
L 95.947355 -157.647249 
L 95.947355 -157.647249 
L 95.947355 -156.672201 
L 95.947355 -155.697152 
L 95.947355 -154.722103 
L 95.947355 -153.747054 
L 95.947355 -152.772005 
L 95.947355 -151.796956 
L 95.947355 -150.821907 
L 95.947355 -149.846858 
L 95.947355 -148.871809 
L 95.947355 -147.89676 
L 95.947355 -146.921711 
L 95.947355 -145.946663 
L 95.947355 -144.971614 
L 95.947355 -143.996565 
L 95.947355 -143.021516 
L 95.947355 -142.046467 
L 95.947355 -141.071418 
L 95.947355 -140.096369 
L 95.947355 -139.12132 
L 95.947355 -138.146271 
L 95.947355 -137.171222 
L 95.947355 -136.196174 
L 95.947355 -135.221125 
L 95.947355 -134.246076 
L 95.947355 -133.271027 
L 95.947355 -132.295978 
L 95.947355 -131.320929 
L 95.947355 -130.34588 
L 95.947355 -129.370831 
L 95.947355 -128.395782 
L 95.947355 -127.420733 
L 95.947355 -126.445684 
L 95.947355 -125.470636 
L 95.947355 -124.495587 
L 95.947355 -123.520538 
L 95.947355 -122.545489 
L 95.947355 -121.57044 
L 95.947355 -120.595391 
L 95.947355 -119.620342 
L 95.947355 -118.645293 
L 95.947355 -117.670244 
L 95.947355 -116.695195 
L 95.947355 -115.720146 
L 95.947355 -114.745098 
L 95.947355 -113.770049 
L 95.947355 -112.795 
L 95.947355 -111.819951 
L 95.947355 -110.844902 
L 95.947355 -109.869853 
L 95.947355 -108.894804 
L 95.947355 -107.919755 
L 95.947355 -106.944706 
L 95.947355 -105.969657 
L 95.947355 -104.994608 
L 95.947355 -104.01956 
L 95.947355 -103.044511 
L 95.947355 -102.069462 
L 95.947355 -101.094413 
L 95.947355 -100.119364 
L 95.947355 -99.144315 
L 95.947355 -98.169266 
L 95.947355 -97.194217 
L 95.947355 -96.219168 
L 95.947355 -95.244119 
L 95.947355 -94.269071 
L 95.947355 -93.294022 
L 95.947355 -92.318973 
L 95.947355 -91.343924 
L 95.947355 -90.368875 
L 95.947355 -89.393826 
L 95.947355 -88.418777 
L 95.947355 -87.443728 
L 95.947355 -86.468679 
L 95.947355 -85.49363 
L 95.947355 -84.518581 
L 95.947355 -83.543533 
L 95.947355 -82.568484 
L 95.947355 -81.593435 
L 95.947355 -80.618386 
L 95.947355 -79.643337 
L 95.947355 -78.668288 
L 95.947355 -77.693239 
L 95.947355 -76.71819 
L 95.947355 -75.743141 
L 95.947355 -74.768092 
L 95.947355 -73.793043 
L 95.947355 -72.817995 
L 95.947355 -71.842946 
L 95.947355 -70.867897 
L 95.947355 -69.892848 
L 95.947355 -68.917799 
L 95.947355 -67.94275 
L 95.947355 -66.967701 
L 95.947355 -65.992652 
L 95.947355 -65.017603 
L 95.947355 -64.042554 
L 95.947355 -63.067506 
L 95.947355 -62.092457 
L 95.947355 -61.117408 
z
" id="maf1b5d1117" style="stroke:#4c4c4c;stroke-width:1.5;"/>
    </defs>
    <g clip-path="url(#pb90b6975f2)">
     <use style="fill:#20df20;stroke:#4c4c4c;stroke-width:1.5;" x="0" xlink:href="#maf1b5d1117" y="252"/>
    </g>
   </g>
   <g id="PolyCollection_2">
    <defs>
     <path d="M 96.080329 -77.515105 
L 95.947355 -77.515105 
L 95.947355 -78.33624 
L 95.947355 -79.157375 
L 95.947355 -79.97851 
L 95.947355 -80.799645 
L 95.947355 -81.62078 
L 95.947355 -82.441915 
L 95.947355 -83.26305 
L 95.947355 -84.084185 
L 95.947355 -84.90532 
L 95.947355 -85.726455 
L 95.947355 -86.547589 
L 95.947355 -87.368724 
L 95.947355 -88.189859 
L 95.947355 -89.010994 
L 95.947355 -89.832129 
L 95.947355 -90.653264 
L 95.947355 -91.474399 
L 95.947355 -92.295534 
L 95.947355 -93.116669 
L 95.947355 -93.937804 
L 95.947355 -94.758939 
L 95.947355 -95.580074 
L 95.947355 -96.401209 
L 95.947355 -97.222344 
L 95.947355 -98.043479 
L 95.947355 -98.864614 
L 95.947355 -99.685748 
L 95.947355 -100.506883 
L 95.947355 -101.328018 
L 95.947355 -102.149153 
L 95.947355 -102.970288 
L 95.947355 -103.791423 
L 95.947355 -104.612558 
L 95.947355 -105.433693 
L 95.947355 -106.254828 
L 95.947355 -107.075963 
L 95.947355 -107.897098 
L 95.947355 -108.718233 
L 95.947355 -109.539368 
L 95.947355 -110.360503 
L 95.947355 -111.181638 
L 95.947355 -112.002773 
L 95.947355 -112.823907 
L 95.947355 -113.645042 
L 95.947355 -114.466177 
L 95.947355 -115.287312 
L 95.947355 -116.108447 
L 95.947355 -116.929582 
L 95.947355 -117.750717 
L 95.947355 -118.571852 
L 95.947355 -119.392987 
L 95.947355 -120.214122 
L 95.947355 -121.035257 
L 95.947355 -121.856392 
L 95.947355 -122.677527 
L 95.947355 -123.498662 
L 95.947355 -124.319797 
L 95.947355 -125.140931 
L 95.947355 -125.962066 
L 95.947355 -126.783201 
L 95.947355 -127.604336 
L 95.947355 -128.425471 
L 95.947355 -129.246606 
L 95.947355 -130.067741 
L 95.947355 -130.888876 
L 95.947355 -131.710011 
L 95.947355 -132.531146 
L 95.947355 -133.352281 
L 95.947355 -134.173416 
L 95.947355 -134.994551 
L 95.947355 -135.815686 
L 95.947355 -136.636821 
L 95.947355 -137.457956 
L 95.947355 -138.27909 
L 95.947355 -139.100225 
L 95.947355 -139.92136 
L 95.947355 -140.742495 
L 95.947355 -141.56363 
L 95.947355 -142.384765 
L 95.947355 -143.2059 
L 95.947355 -144.027035 
L 95.947355 -144.84817 
L 95.947355 -145.669305 
L 95.947355 -146.49044 
L 95.947355 -147.311575 
L 95.947355 -148.13271 
L 95.947355 -148.953845 
L 95.947355 -149.77498 
L 95.947355 -150.596115 
L 95.947355 -151.417249 
L 95.947355 -152.238384 
L 95.947355 -153.059519 
L 95.947355 -153.880654 
L 95.947355 -154.701789 
L 95.947355 -155.522924 
L 95.947355 -156.344059 
L 95.947355 -157.165194 
L 95.947355 -157.986329 
L 95.947355 -158.807464 
L 96.365098 -158.807464 
L 96.365098 -158.807464 
L 96.457006 -157.986329 
L 96.546704 -157.165194 
L 96.631645 -156.344059 
L 96.711903 -155.522924 
L 96.790612 -154.701789 
L 96.873936 -153.880654 
L 96.970492 -153.059519 
L 97.090112 -152.238384 
L 97.241952 -151.417249 
L 97.432238 -150.596115 
L 97.662224 -149.77498 
L 97.927144 -148.953845 
L 98.216775 -148.13271 
L 98.517828 -147.311575 
L 98.817674 -146.49044 
L 99.108359 -145.669305 
L 99.389583 -144.84817 
L 99.669586 -144.027035 
L 99.963643 -143.2059 
L 100.290668 -142.384765 
L 100.669053 -141.56363 
L 101.112939 -140.742495 
L 101.629756 -139.92136 
L 102.219362 -139.100225 
L 102.874585 -138.27909 
L 103.582756 -137.457956 
L 104.327917 -136.636821 
L 105.093623 -135.815686 
L 105.86629 -134.994551 
L 106.63862 -134.173416 
L 107.411833 -133.352281 
L 108.195128 -132.531146 
L 109.001606 -131.710011 
L 109.841757 -130.888876 
L 110.7173 -130.067741 
L 111.618304 -129.246606 
L 112.524691 -128.425471 
L 113.410782 -127.604336 
L 114.250324 -126.783201 
L 115.020098 -125.962066 
L 115.701947 -125.140931 
L 116.284003 -124.319797 
L 116.761506 -123.498662 
L 117.13655 -122.677527 
L 117.415895 -121.856392 
L 117.607178 -121.035257 
L 117.715399 -120.214122 
L 117.74191 -119.392987 
L 117.686627 -118.571852 
L 117.551752 -117.750717 
L 117.343873 -116.929582 
L 117.072137 -116.108447 
L 116.742911 -115.287312 
L 116.354112 -114.466177 
L 115.893225 -113.645042 
L 115.341242 -112.823907 
L 114.681384 -112.002773 
L 113.908585 -111.181638 
L 113.035187 -110.360503 
L 112.0903 -109.539368 
L 111.113406 -108.718233 
L 110.145088 -107.897098 
L 109.218201 -107.075963 
L 108.351733 -106.254828 
L 107.548322 -105.433693 
L 106.795599 -104.612558 
L 106.071102 -103.791423 
L 105.349838 -102.970288 
L 104.612528 -102.149153 
L 103.851822 -101.328018 
L 103.074207 -100.506883 
L 102.297048 -99.685748 
L 101.542437 -98.864614 
L 100.830753 -98.043479 
L 100.176474 -97.222344 
L 99.587137 -96.401209 
L 99.064589 -95.580074 
L 98.606875 -94.758939 
L 98.209511 -93.937804 
L 97.865937 -93.116669 
L 97.567829 -92.295534 
L 97.306041 -91.474399 
L 97.072284 -90.653264 
L 96.860893 -89.832129 
L 96.669762 -89.010994 
L 96.499925 -88.189859 
L 96.354037 -87.368724 
L 96.234565 -86.547589 
L 96.142487 -85.726455 
L 96.076882 -84.90532 
L 96.035278 -84.084185 
L 96.014283 -83.26305 
L 96.01006 -82.441915 
L 96.018431 -81.62078 
L 96.03475 -80.799645 
L 96.053874 -79.97851 
L 96.07055 -79.157375 
L 96.080277 -78.33624 
L 96.080329 -77.515105 
z
" id="m6badfc82a8" style="stroke:#4c4c4c;stroke-width:1.5;"/>
    </defs>
    <g clip-path="url(#pb90b6975f2)">
     <use style="fill:#20dfdf;stroke:#4c4c4c;stroke-width:1.5;" x="0" xlink:href="#m6badfc82a8" y="252"/>
    </g>
   </g>
   <g id="PolyCollection_3">
    <defs>
     <path d="M 153.395289 -75.504067 
L 153.268003 -75.504067 
L 153.261539 -76.454896 
L 153.254302 -77.405725 
L 153.240433 -78.356554 
L 153.213114 -79.307383 
L 153.166196 -80.258212 
L 153.09587 -81.20904 
L 153.001749 -82.159869 
L 152.886847 -83.110698 
L 152.756178 -84.061527 
L 152.614208 -85.012356 
L 152.461959 -85.963185 
L 152.294913 -86.914014 
L 152.102771 -87.864843 
L 151.871479 -88.815672 
L 151.586993 -89.766501 
L 151.239415 -90.71733 
L 150.825911 -91.668159 
L 150.351317 -92.618988 
L 149.826401 -93.569817 
L 149.264787 -94.520646 
L 148.680004 -95.471475 
L 148.083705 -96.422304 
L 147.485148 -97.373132 
L 146.891155 -98.323961 
L 146.305596 -99.27479 
L 145.728028 -100.225619 
L 145.152098 -101.176448 
L 144.564898 -102.127277 
L 143.948339 -103.078106 
L 143.28277 -104.028935 
L 142.55201 -104.979764 
L 141.748204 -105.930593 
L 140.874727 -106.881422 
L 139.945865 -107.832251 
L 138.983018 -108.78308 
L 138.008494 -109.733909 
L 137.039185 -110.684738 
L 136.08294 -111.635567 
L 135.139793 -112.586396 
L 134.208371 -113.537224 
L 133.295343 -114.488053 
L 132.424017 -115.438882 
L 131.638026 -116.389711 
L 130.997863 -117.34054 
L 130.57067 -118.291369 
L 130.416116 -119.242198 
L 130.57218 -120.193027 
L 131.044396 -121.143856 
L 131.801137 -122.094685 
L 132.776465 -123.045514 
L 133.880776 -123.996343 
L 135.017761 -124.947172 
L 136.10392 -125.898001 
L 137.08517 -126.84883 
L 137.945143 -127.799659 
L 138.70225 -128.750488 
L 139.39686 -129.701316 
L 140.073796 -130.652145 
L 140.766928 -131.602974 
L 141.491039 -132.553803 
L 142.242356 -133.504632 
L 143.005251 -134.455461 
L 143.760635 -135.40629 
L 144.492151 -136.357119 
L 145.188647 -137.307948 
L 145.843863 -138.258777 
L 146.455471 -139.209606 
L 147.024962 -140.160435 
L 147.558357 -141.111264 
L 148.066404 -142.062093 
L 148.562854 -143.012922 
L 149.060541 -143.963751 
L 149.56657 -144.91458 
L 150.078794 -145.865409 
L 150.585406 -146.816237 
L 151.068056 -147.767066 
L 151.50724 -148.717895 
L 151.88776 -149.668724 
L 152.202166 -150.619553 
L 152.451206 -151.570382 
L 152.641655 -152.521211 
L 152.78293 -153.47204 
L 152.884062 -154.422869 
L 152.952162 -155.373698 
L 152.992605 -156.324527 
L 153.010342 -157.275356 
L 153.011287 -158.226185 
L 153.002813 -159.177014 
L 152.992935 -160.127843 
L 152.988508 -161.078672 
L 152.993391 -162.029501 
L 153.00756 -162.980329 
L 153.027771 -163.931158 
L 153.049489 -164.881987 
L 153.069195 -165.832816 
L 153.085959 -166.783645 
L 153.101609 -167.734474 
L 153.119537 -168.685303 
L 153.142872 -169.636132 
L 153.395289 -169.636132 
L 153.395289 -169.636132 
L 153.395289 -168.685303 
L 153.395289 -167.734474 
L 153.395289 -166.783645 
L 153.395289 -165.832816 
L 153.395289 -164.881987 
L 153.395289 -163.931158 
L 153.395289 -162.980329 
L 153.395289 -162.029501 
L 153.395289 -161.078672 
L 153.395289 -160.127843 
L 153.395289 -159.177014 
L 153.395289 -158.226185 
L 153.395289 -157.275356 
L 153.395289 -156.324527 
L 153.395289 -155.373698 
L 153.395289 -154.422869 
L 153.395289 -153.47204 
L 153.395289 -152.521211 
L 153.395289 -151.570382 
L 153.395289 -150.619553 
L 153.395289 -149.668724 
L 153.395289 -148.717895 
L 153.395289 -147.767066 
L 153.395289 -146.816237 
L 153.395289 -145.865409 
L 153.395289 -144.91458 
L 153.395289 -143.963751 
L 153.395289 -143.012922 
L 153.395289 -142.062093 
L 153.395289 -141.111264 
L 153.395289 -140.160435 
L 153.395289 -139.209606 
L 153.395289 -138.258777 
L 153.395289 -137.307948 
L 153.395289 -136.357119 
L 153.395289 -135.40629 
L 153.395289 -134.455461 
L 153.395289 -133.504632 
L 153.395289 -132.553803 
L 153.395289 -131.602974 
L 153.395289 -130.652145 
L 153.395289 -129.701316 
L 153.395289 -128.750488 
L 153.395289 -127.799659 
L 153.395289 -126.84883 
L 153.395289 -125.898001 
L 153.395289 -124.947172 
L 153.395289 -123.996343 
L 153.395289 -123.045514 
L 153.395289 -122.094685 
L 153.395289 -121.143856 
L 153.395289 -120.193027 
L 153.395289 -119.242198 
L 153.395289 -118.291369 
L 153.395289 -117.34054 
L 153.395289 -116.389711 
L 153.395289 -115.438882 
L 153.395289 -114.488053 
L 153.395289 -113.537224 
L 153.395289 -112.586396 
L 153.395289 -111.635567 
L 153.395289 -110.684738 
L 153.395289 -109.733909 
L 153.395289 -108.78308 
L 153.395289 -107.832251 
L 153.395289 -106.881422 
L 153.395289 -105.930593 
L 153.395289 -104.979764 
L 153.395289 -104.028935 
L 153.395289 -103.078106 
L 153.395289 -102.127277 
L 153.395289 -101.176448 
L 153.395289 -100.225619 
L 153.395289 -99.27479 
L 153.395289 -98.323961 
L 153.395289 -97.373132 
L 153.395289 -96.422304 
L 153.395289 -95.471475 
L 153.395289 -94.520646 
L 153.395289 -93.569817 
L 153.395289 -92.618988 
L 153.395289 -91.668159 
L 153.395289 -90.71733 
L 153.395289 -89.766501 
L 153.395289 -88.815672 
L 153.395289 -87.864843 
L 153.395289 -86.914014 
L 153.395289 -85.963185 
L 153.395289 -85.012356 
L 153.395289 -84.061527 
L 153.395289 -83.110698 
L 153.395289 -82.159869 
L 153.395289 -81.20904 
L 153.395289 -80.258212 
L 153.395289 -79.307383 
L 153.395289 -78.356554 
L 153.395289 -77.405725 
L 153.395289 -76.454896 
L 153.395289 -75.504067 
z
" id="m2dc6cb8290" style="stroke:#4c4c4c;stroke-width:1.5;"/>
    </defs>
    <g clip-path="url(#pb90b6975f2)">
     <use style="fill:#20df20;stroke:#4c4c4c;stroke-width:1.5;" x="0" xlink:href="#m2dc6cb8290" y="252"/>
    </g>
   </g>
   <g id="PolyCollection_4">
    <defs>
     <path d="M 154.256102 -84.669761 
L 153.395289 -84.669761 
L 153.395289 -85.702625 
L 153.395289 -86.73549 
L 153.395289 -87.768354 
L 153.395289 -88.801218 
L 153.395289 -89.834082 
L 153.395289 -90.866947 
L 153.395289 -91.899811 
L 153.395289 -92.932675 
L 153.395289 -93.96554 
L 153.395289 -94.998404 
L 153.395289 -96.031268 
L 153.395289 -97.064133 
L 153.395289 -98.096997 
L 153.395289 -99.129861 
L 153.395289 -100.162726 
L 153.395289 -101.19559 
L 153.395289 -102.228454 
L 153.395289 -103.261318 
L 153.395289 -104.294183 
L 153.395289 -105.327047 
L 153.395289 -106.359911 
L 153.395289 -107.392776 
L 153.395289 -108.42564 
L 153.395289 -109.458504 
L 153.395289 -110.491369 
L 153.395289 -111.524233 
L 153.395289 -112.557097 
L 153.395289 -113.589961 
L 153.395289 -114.622826 
L 153.395289 -115.65569 
L 153.395289 -116.688554 
L 153.395289 -117.721419 
L 153.395289 -118.754283 
L 153.395289 -119.787147 
L 153.395289 -120.820012 
L 153.395289 -121.852876 
L 153.395289 -122.88574 
L 153.395289 -123.918605 
L 153.395289 -124.951469 
L 153.395289 -125.984333 
L 153.395289 -127.017197 
L 153.395289 -128.050062 
L 153.395289 -129.082926 
L 153.395289 -130.11579 
L 153.395289 -131.148655 
L 153.395289 -132.181519 
L 153.395289 -133.214383 
L 153.395289 -134.247248 
L 153.395289 -135.280112 
L 153.395289 -136.312976 
L 153.395289 -137.345841 
L 153.395289 -138.378705 
L 153.395289 -139.411569 
L 153.395289 -140.444433 
L 153.395289 -141.477298 
L 153.395289 -142.510162 
L 153.395289 -143.543026 
L 153.395289 -144.575891 
L 153.395289 -145.608755 
L 153.395289 -146.641619 
L 153.395289 -147.674484 
L 153.395289 -148.707348 
L 153.395289 -149.740212 
L 153.395289 -150.773077 
L 153.395289 -151.805941 
L 153.395289 -152.838805 
L 153.395289 -153.871669 
L 153.395289 -154.904534 
L 153.395289 -155.937398 
L 153.395289 -156.970262 
L 153.395289 -158.003127 
L 153.395289 -159.035991 
L 153.395289 -160.068855 
L 153.395289 -161.10172 
L 153.395289 -162.134584 
L 153.395289 -163.167448 
L 153.395289 -164.200313 
L 153.395289 -165.233177 
L 153.395289 -166.266041 
L 153.395289 -167.298905 
L 153.395289 -168.33177 
L 153.395289 -169.364634 
L 153.395289 -170.397498 
L 153.395289 -171.430363 
L 153.395289 -172.463227 
L 153.395289 -173.496091 
L 153.395289 -174.528956 
L 153.395289 -175.56182 
L 153.395289 -176.594684 
L 153.395289 -177.627549 
L 153.395289 -178.660413 
L 153.395289 -179.693277 
L 153.395289 -180.726141 
L 153.395289 -181.759006 
L 153.395289 -182.79187 
L 153.395289 -183.824734 
L 153.395289 -184.857599 
L 153.395289 -185.890463 
L 153.395289 -186.923327 
L 153.504273 -186.923327 
L 153.504273 -186.923327 
L 153.500403 -185.890463 
L 153.489598 -184.857599 
L 153.474001 -183.824734 
L 153.456401 -182.79187 
L 153.439429 -181.759006 
L 153.424956 -180.726141 
L 153.413864 -179.693277 
L 153.406185 -178.660413 
L 153.401432 -177.627549 
L 153.398987 -176.594684 
L 153.398392 -175.56182 
L 153.39953 -174.528956 
L 153.402687 -173.496091 
L 153.408515 -172.463227 
L 153.417904 -171.430363 
L 153.431808 -170.397498 
L 153.451092 -169.364634 
L 153.476536 -168.33177 
L 153.509127 -167.298905 
L 153.550613 -166.266041 
L 153.60412 -165.233177 
L 153.674407 -164.200313 
L 153.767362 -163.167448 
L 153.888562 -162.134584 
L 154.041179 -161.10172 
L 154.22391 -160.068855 
L 154.429767 -159.035991 
L 154.646429 -158.003127 
L 154.858443 -156.970262 
L 155.051006 -155.937398 
L 155.214513 -154.904534 
L 155.348572 -153.871669 
L 155.464043 -152.838805 
L 155.582091 -151.805941 
L 155.730103 -150.773077 
L 155.935526 -149.740212 
L 156.219471 -148.707348 
L 156.592069 -147.674484 
L 157.050944 -146.641619 
L 157.583067 -145.608755 
L 158.169128 -144.575891 
L 158.788733 -143.543026 
L 159.42466 -142.510162 
L 160.064979 -141.477298 
L 160.703025 -140.444433 
L 161.336256 -139.411569 
L 161.965405 -138.378705 
L 162.594797 -137.345841 
L 163.233565 -136.312976 
L 163.896568 -135.280112 
L 164.603703 -134.247248 
L 165.376927 -133.214383 
L 166.235352 -132.181519 
L 167.189432 -131.148655 
L 168.235418 -130.11579 
L 169.350983 -129.082926 
L 170.492944 -128.050062 
L 171.598375 -127.017197 
L 172.590803 -125.984333 
L 173.392514 -124.951469 
L 173.941664 -123.918605 
L 174.209597 -122.88574 
L 174.211505 -121.852876 
L 174.004422 -120.820012 
L 173.671036 -119.787147 
L 173.293908 -118.754283 
L 172.929324 -117.721419 
L 172.590516 -116.688554 
L 172.246333 -115.65569 
L 171.835414 -114.622826 
L 171.290337 -113.589961 
L 170.563007 -112.557097 
L 169.642656 -111.524233 
L 168.560848 -110.491369 
L 167.382737 -109.458504 
L 166.188696 -108.42564 
L 165.053426 -107.392776 
L 164.0296 -106.359911 
L 163.140365 -105.327047 
L 162.381091 -104.294183 
L 161.727584 -103.261318 
L 161.146664 -102.228454 
L 160.605557 -101.19559 
L 160.078178 -100.162726 
L 159.548065 -99.129861 
L 159.008801 -98.096997 
L 158.462966 -97.064133 
L 157.920222 -96.031268 
L 157.39465 -94.998404 
L 156.90138 -93.96554 
L 156.452921 -92.932675 
L 156.056138 -91.899811 
L 155.710856 -90.866947 
L 155.410568 -89.834082 
L 155.144921 -88.801218 
L 154.903002 -87.768354 
L 154.67631 -86.73549 
L 154.460577 -85.702625 
L 154.256102 -84.669761 
z
" id="meb97fab023" style="stroke:#4c4c4c;stroke-width:1.5;"/>
    </defs>
    <g clip-path="url(#pb90b6975f2)">
     <use style="fill:#20dfdf;stroke:#4c4c4c;stroke-width:1.5;" x="0" xlink:href="#meb97fab023" y="252"/>
    </g>
   </g>
   <g id="PolyCollection_5">
    <defs>
     <path d="M 210.843223 -68.272063 
L 210.625332 -68.272063 
L 210.589949 -69.254925 
L 210.555685 -70.237787 
L 210.522409 -71.220649 
L 210.489412 -72.203511 
L 210.455615 -73.186372 
L 210.419707 -74.169234 
L 210.380143 -75.152096 
L 210.334968 -76.134958 
L 210.281558 -77.11782 
L 210.216392 -78.100681 
L 210.134994 -79.083543 
L 210.032074 -80.066405 
L 209.901842 -81.049267 
L 209.738376 -82.032129 
L 209.535925 -83.01499 
L 209.289116 -83.997852 
L 208.993133 -84.980714 
L 208.643976 -85.963576 
L 208.238791 -86.946438 
L 207.776129 -87.929299 
L 207.255927 -88.912161 
L 206.679129 -89.895023 
L 206.047169 -90.877885 
L 205.361688 -91.860747 
L 204.624807 -92.843608 
L 203.839898 -93.82647 
L 203.012444 -94.809332 
L 202.150518 -95.792194 
L 201.264643 -96.775056 
L 200.36712 -97.757917 
L 199.470997 -98.740779 
L 198.588689 -99.723641 
L 197.730135 -100.706503 
L 196.900645 -101.689365 
L 196.099169 -102.672226 
L 195.318224 -103.655088 
L 194.546402 -104.63795 
L 193.773315 -105.620812 
L 192.995335 -106.603674 
L 192.219689 -107.586535 
L 191.464871 -108.569397 
L 190.756969 -109.552259 
L 190.123398 -110.535121 
L 189.586747 -111.517983 
L 189.161191 -112.500844 
L 188.852478 -113.483706 
L 188.660666 -114.466568 
L 188.583519 -115.44943 
L 188.618515 -116.432292 
L 188.762524 -117.415153 
L 189.009843 -118.398015 
L 189.350277 -119.380877 
L 189.768975 -120.363739 
L 190.248582 -121.346601 
L 190.772763 -122.329462 
L 191.329206 -123.312324 
L 191.910351 -124.295186 
L 192.511401 -125.278048 
L 193.126827 -126.26091 
L 193.747651 -127.243771 
L 194.361482 -128.226633 
L 194.955816 -129.209495 
L 195.523175 -130.192357 
L 196.06548 -131.175219 
L 196.595257 -132.15808 
L 197.132709 -133.140942 
L 197.699711 -134.123804 
L 198.313167 -135.106666 
L 198.980451 -136.089528 
L 199.698521 -137.072389 
L 200.456514 -138.055251 
L 201.240044 -139.038113 
L 202.034894 -140.020975 
L 202.828589 -141.003837 
L 203.609844 -141.986698 
L 204.367196 -142.96956 
L 205.088362 -143.952422 
L 205.761097 -144.935284 
L 206.375072 -145.918146 
L 206.923617 -146.901007 
L 207.404312 -147.883869 
L 207.818302 -148.866731 
L 208.169015 -149.849593 
L 208.46121 -150.832455 
L 208.700811 -151.815316 
L 208.895329 -152.798178 
L 209.054161 -153.78104 
L 209.188182 -154.763902 
L 209.308489 -155.746764 
L 209.424683 -156.729625 
L 209.543352 -157.712487 
L 209.667336 -158.695349 
L 209.79599 -159.678211 
L 209.926255 -160.661073 
L 210.054086 -161.643934 
L 210.175718 -162.626796 
L 210.288413 -163.609658 
L 210.39061 -164.59252 
L 210.481645 -165.575381 
L 210.843223 -165.575381 
L 210.843223 -165.575381 
L 210.843223 -164.59252 
L 210.843223 -163.609658 
L 210.843223 -162.626796 
L 210.843223 -161.643934 
L 210.843223 -160.661073 
L 210.843223 -159.678211 
L 210.843223 -158.695349 
L 210.843223 -157.712487 
L 210.843223 -156.729625 
L 210.843223 -155.746764 
L 210.843223 -154.763902 
L 210.843223 -153.78104 
L 210.843223 -152.798178 
L 210.843223 -151.815316 
L 210.843223 -150.832455 
L 210.843223 -149.849593 
L 210.843223 -148.866731 
L 210.843223 -147.883869 
L 210.843223 -146.901007 
L 210.843223 -145.918146 
L 210.843223 -144.935284 
L 210.843223 -143.952422 
L 210.843223 -142.96956 
L 210.843223 -141.986698 
L 210.843223 -141.003837 
L 210.843223 -140.020975 
L 210.843223 -139.038113 
L 210.843223 -138.055251 
L 210.843223 -137.072389 
L 210.843223 -136.089528 
L 210.843223 -135.106666 
L 210.843223 -134.123804 
L 210.843223 -133.140942 
L 210.843223 -132.15808 
L 210.843223 -131.175219 
L 210.843223 -130.192357 
L 210.843223 -129.209495 
L 210.843223 -128.226633 
L 210.843223 -127.243771 
L 210.843223 -126.26091 
L 210.843223 -125.278048 
L 210.843223 -124.295186 
L 210.843223 -123.312324 
L 210.843223 -122.329462 
L 210.843223 -121.346601 
L 210.843223 -120.363739 
L 210.843223 -119.380877 
L 210.843223 -118.398015 
L 210.843223 -117.415153 
L 210.843223 -116.432292 
L 210.843223 -115.44943 
L 210.843223 -114.466568 
L 210.843223 -113.483706 
L 210.843223 -112.500844 
L 210.843223 -111.517983 
L 210.843223 -110.535121 
L 210.843223 -109.552259 
L 210.843223 -108.569397 
L 210.843223 -107.586535 
L 210.843223 -106.603674 
L 210.843223 -105.620812 
L 210.843223 -104.63795 
L 210.843223 -103.655088 
L 210.843223 -102.672226 
L 210.843223 -101.689365 
L 210.843223 -100.706503 
L 210.843223 -99.723641 
L 210.843223 -98.740779 
L 210.843223 -97.757917 
L 210.843223 -96.775056 
L 210.843223 -95.792194 
L 210.843223 -94.809332 
L 210.843223 -93.82647 
L 210.843223 -92.843608 
L 210.843223 -91.860747 
L 210.843223 -90.877885 
L 210.843223 -89.895023 
L 210.843223 -88.912161 
L 210.843223 -87.929299 
L 210.843223 -86.946438 
L 210.843223 -85.963576 
L 210.843223 -84.980714 
L 210.843223 -83.997852 
L 210.843223 -83.01499 
L 210.843223 -82.032129 
L 210.843223 -81.049267 
L 210.843223 -80.066405 
L 210.843223 -79.083543 
L 210.843223 -78.100681 
L 210.843223 -77.11782 
L 210.843223 -76.134958 
L 210.843223 -75.152096 
L 210.843223 -74.169234 
L 210.843223 -73.186372 
L 210.843223 -72.203511 
L 210.843223 -71.220649 
L 210.843223 -70.237787 
L 210.843223 -69.254925 
L 210.843223 -68.272063 
z
" id="m6be2ecd842" style="stroke:#4c4c4c;stroke-width:1.5;"/>
    </defs>
    <g clip-path="url(#pb90b6975f2)">
     <use style="fill:#20df20;stroke:#4c4c4c;stroke-width:1.5;" x="0" xlink:href="#m6be2ecd842" y="252"/>
    </g>
   </g>
   <g id="PolyCollection_6">
    <defs>
     <path d="M 210.970096 -73.222312 
L 210.843223 -73.222312 
L 210.843223 -74.133686 
L 210.843223 -75.045059 
L 210.843223 -75.956433 
L 210.843223 -76.867807 
L 210.843223 -77.779181 
L 210.843223 -78.690555 
L 210.843223 -79.601929 
L 210.843223 -80.513302 
L 210.843223 -81.424676 
L 210.843223 -82.33605 
L 210.843223 -83.247424 
L 210.843223 -84.158798 
L 210.843223 -85.070172 
L 210.843223 -85.981545 
L 210.843223 -86.892919 
L 210.843223 -87.804293 
L 210.843223 -88.715667 
L 210.843223 -89.627041 
L 210.843223 -90.538415 
L 210.843223 -91.449788 
L 210.843223 -92.361162 
L 210.843223 -93.272536 
L 210.843223 -94.18391 
L 210.843223 -95.095284 
L 210.843223 -96.006658 
L 210.843223 -96.918032 
L 210.843223 -97.829405 
L 210.843223 -98.740779 
L 210.843223 -99.652153 
L 210.843223 -100.563527 
L 210.843223 -101.474901 
L 210.843223 -102.386275 
L 210.843223 -103.297648 
L 210.843223 -104.209022 
L 210.843223 -105.120396 
L 210.843223 -106.03177 
L 210.843223 -106.943144 
L 210.843223 -107.854518 
L 210.843223 -108.765891 
L 210.843223 -109.677265 
L 210.843223 -110.588639 
L 210.843223 -111.500013 
L 210.843223 -112.411387 
L 210.843223 -113.322761 
L 210.843223 -114.234134 
L 210.843223 -115.145508 
L 210.843223 -116.056882 
L 210.843223 -116.968256 
L 210.843223 -117.87963 
L 210.843223 -118.791004 
L 210.843223 -119.702377 
L 210.843223 -120.613751 
L 210.843223 -121.525125 
L 210.843223 -122.436499 
L 210.843223 -123.347873 
L 210.843223 -124.259247 
L 210.843223 -125.17062 
L 210.843223 -126.081994 
L 210.843223 -126.993368 
L 210.843223 -127.904742 
L 210.843223 -128.816116 
L 210.843223 -129.72749 
L 210.843223 -130.638864 
L 210.843223 -131.550237 
L 210.843223 -132.461611 
L 210.843223 -133.372985 
L 210.843223 -134.284359 
L 210.843223 -135.195733 
L 210.843223 -136.107107 
L 210.843223 -137.01848 
L 210.843223 -137.929854 
L 210.843223 -138.841228 
L 210.843223 -139.752602 
L 210.843223 -140.663976 
L 210.843223 -141.57535 
L 210.843223 -142.486723 
L 210.843223 -143.398097 
L 210.843223 -144.309471 
L 210.843223 -145.220845 
L 210.843223 -146.132219 
L 210.843223 -147.043593 
L 210.843223 -147.954966 
L 210.843223 -148.86634 
L 210.843223 -149.777714 
L 210.843223 -150.689088 
L 210.843223 -151.600462 
L 210.843223 -152.511836 
L 210.843223 -153.423209 
L 210.843223 -154.334583 
L 210.843223 -155.245957 
L 210.843223 -156.157331 
L 210.843223 -157.068705 
L 210.843223 -157.980079 
L 210.843223 -158.891452 
L 210.843223 -159.802826 
L 210.843223 -160.7142 
L 210.843223 -161.625574 
L 210.843223 -162.536948 
L 210.843223 -163.448322 
L 211.084886 -163.448322 
L 211.084886 -163.448322 
L 211.117471 -162.536948 
L 211.150736 -161.625574 
L 211.188799 -160.7142 
L 211.237223 -159.802826 
L 211.302129 -158.891452 
L 211.389298 -157.980079 
L 211.503518 -157.068705 
L 211.648275 -156.157331 
L 211.825781 -155.245957 
L 212.037226 -154.334583 
L 212.283203 -153.423209 
L 212.564216 -152.511836 
L 212.881166 -151.600462 
L 213.235613 -150.689088 
L 213.629544 -149.777714 
L 214.064589 -148.86634 
L 214.540878 -147.954966 
L 215.056094 -147.043593 
L 215.605321 -146.132219 
L 216.181991 -145.220845 
L 216.779724 -144.309471 
L 217.394339 -143.398097 
L 218.025188 -142.486723 
L 218.675278 -141.57535 
L 219.350158 -140.663976 
L 220.056126 -139.752602 
L 220.798437 -138.841228 
L 221.579993 -137.929854 
L 222.400534 -137.01848 
L 223.256001 -136.107107 
L 224.137899 -135.195733 
L 225.03298 -134.284359 
L 225.923959 -133.372985 
L 226.791872 -132.461611 
L 227.619802 -131.550237 
L 228.396712 -130.638864 
L 229.119649 -129.72749 
L 229.793205 -128.816116 
L 230.426346 -127.904742 
L 231.027906 -126.993368 
L 231.602331 -126.081994 
L 232.146799 -125.17062 
L 232.650081 -124.259247 
L 233.09316 -123.347873 
L 233.45176 -122.436499 
L 233.701057 -121.525125 
L 233.822397 -120.613751 
L 233.810671 -119.702377 
L 233.679741 -118.791004 
L 233.462914 -117.87963 
L 233.206633 -116.968256 
L 232.958052 -116.056882 
L 232.749964 -115.145508 
L 232.588203 -114.234134 
L 232.446393 -113.322761 
L 232.270569 -112.411387 
L 231.99286 -111.500013 
L 231.550238 -110.588639 
L 230.902471 -109.677265 
L 230.043616 -108.765891 
L 229.003482 -107.854518 
L 227.838948 -106.943144 
L 226.618583 -106.03177 
L 225.406297 -105.120396 
L 224.249724 -104.209022 
L 223.176604 -103.297648 
L 222.198672 -102.386275 
L 221.319333 -101.474901 
L 220.540281 -100.563527 
L 219.863712 -99.652153 
L 219.28986 -98.740779 
L 218.812378 -97.829405 
L 218.415097 -96.918032 
L 218.072527 -96.006658 
L 217.754159 -95.095284 
L 217.430601 -94.18391 
L 217.079004 -93.272536 
L 216.686033 -92.361162 
L 216.248101 -91.449788 
L 215.769749 -90.538415 
L 215.2614 -89.627041 
L 214.737274 -88.715667 
L 214.213668 -87.804293 
L 213.707351 -86.892919 
L 213.233853 -85.981545 
L 212.805715 -85.070172 
L 212.431043 -84.158798 
L 212.112847 -83.247424 
L 211.849399 -82.33605 
L 211.635527 -81.424676 
L 211.464383 -80.513302 
L 211.329054 -79.601929 
L 211.223553 -78.690555 
L 211.143009 -77.779181 
L 211.083265 -76.867807 
L 211.040305 -75.956433 
L 211.009922 -75.045059 
L 210.987821 -74.133686 
L 210.970096 -73.222312 
z
" id="m678eadeb7d" style="stroke:#4c4c4c;stroke-width:1.5;"/>
    </defs>
    <g clip-path="url(#pb90b6975f2)">
     <use style="fill:#20dfdf;stroke:#4c4c4c;stroke-width:1.5;" x="0" xlink:href="#m678eadeb7d" y="252"/>
    </g>
   </g>
   <g id="PolyCollection_7">
    <defs>
     <path d="M 268.291157 -51.255585 
L 267.878126 -51.255585 
L 267.798208 -52.427519 
L 267.709516 -53.599452 
L 267.610996 -54.771386 
L 267.501279 -55.94332 
L 267.378828 -57.115254 
L 267.242205 -58.287188 
L 267.090476 -59.459121 
L 266.923718 -60.631055 
L 266.74352 -61.802989 
L 266.553339 -62.974923 
L 266.358507 -64.146857 
L 266.165734 -65.31879 
L 265.98207 -66.490724 
L 265.813396 -67.662658 
L 265.66273 -68.834592 
L 265.528737 -70.006525 
L 265.404898 -71.178459 
L 265.279678 -72.350393 
L 265.137829 -73.522327 
L 264.962687 -74.694261 
L 264.738987 -75.866194 
L 264.455586 -77.038128 
L 264.107438 -78.210062 
L 263.696376 -79.381996 
L 263.230558 -80.553929 
L 262.722772 -81.725863 
L 262.188074 -82.897797 
L 261.641288 -84.069731 
L 261.094884 -85.241665 
L 260.557533 -86.413598 
L 260.033489 -87.585532 
L 259.522755 -88.757466 
L 259.021918 -89.9294 
L 258.525436 -91.101334 
L 258.027149 -92.273267 
L 257.521686 -93.445201 
L 257.005465 -94.617135 
L 256.477009 -95.789069 
L 255.936465 -96.961002 
L 255.384489 -98.132936 
L 254.820873 -99.30487 
L 254.243476 -100.476804 
L 253.647948 -101.648738 
L 253.028503 -102.820671 
L 252.379621 -103.992605 
L 251.6982 -105.164539 
L 250.985554 -106.336473 
L 250.248662 -107.508406 
L 249.500375 -108.68034 
L 248.758573 -109.852274 
L 248.044513 -111.024208 
L 247.380684 -112.196142 
L 246.788456 -113.368075 
L 246.285774 -114.540009 
L 245.885114 -115.711943 
L 245.592063 -116.883877 
L 245.404902 -118.05581 
L 245.315552 -119.227744 
L 245.311983 -120.399678 
L 245.381766 -121.571612 
L 245.516 -122.743546 
L 245.712583 -123.915479 
L 245.977792 -125.087413 
L 246.325535 -126.259347 
L 246.774262 -127.431281 
L 247.342218 -128.603215 
L 248.042291 -129.775148 
L 248.877835 -130.947082 
L 249.840632 -132.119016 
L 250.911486 -133.29095 
L 252.06314 -134.462883 
L 253.26453 -135.634817 
L 254.485061 -136.806751 
L 255.697751 -137.978685 
L 256.880675 -139.150619 
L 258.016828 -140.322552 
L 259.093102 -141.494486 
L 260.099272 -142.66642 
L 261.027613 -143.838354 
L 261.873327 -145.010287 
L 262.635409 -146.182221 
L 263.317292 -147.354155 
L 263.926686 -148.526089 
L 264.47434 -149.698023 
L 264.971946 -150.869956 
L 265.429758 -152.04189 
L 265.854635 -153.213824 
L 266.249088 -154.385758 
L 266.611548 -155.557692 
L 266.937699 -156.729625 
L 267.222404 -157.901559 
L 267.461654 -159.073493 
L 267.654024 -160.245427 
L 267.80135 -161.41736 
L 267.908581 -162.589294 
L 267.982963 -163.761228 
L 268.03286 -164.933162 
L 268.066516 -166.105096 
L 268.091032 -167.277029 
L 268.291157 -167.277029 
L 268.291157 -167.277029 
L 268.291157 -166.105096 
L 268.291157 -164.933162 
L 268.291157 -163.761228 
L 268.291157 -162.589294 
L 268.291157 -161.41736 
L 268.291157 -160.245427 
L 268.291157 -159.073493 
L 268.291157 -157.901559 
L 268.291157 -156.729625 
L 268.291157 -155.557692 
L 268.291157 -154.385758 
L 268.291157 -153.213824 
L 268.291157 -152.04189 
L 268.291157 -150.869956 
L 268.291157 -149.698023 
L 268.291157 -148.526089 
L 268.291157 -147.354155 
L 268.291157 -146.182221 
L 268.291157 -145.010287 
L 268.291157 -143.838354 
L 268.291157 -142.66642 
L 268.291157 -141.494486 
L 268.291157 -140.322552 
L 268.291157 -139.150619 
L 268.291157 -137.978685 
L 268.291157 -136.806751 
L 268.291157 -135.634817 
L 268.291157 -134.462883 
L 268.291157 -133.29095 
L 268.291157 -132.119016 
L 268.291157 -130.947082 
L 268.291157 -129.775148 
L 268.291157 -128.603215 
L 268.291157 -127.431281 
L 268.291157 -126.259347 
L 268.291157 -125.087413 
L 268.291157 -123.915479 
L 268.291157 -122.743546 
L 268.291157 -121.571612 
L 268.291157 -120.399678 
L 268.291157 -119.227744 
L 268.291157 -118.05581 
L 268.291157 -116.883877 
L 268.291157 -115.711943 
L 268.291157 -114.540009 
L 268.291157 -113.368075 
L 268.291157 -112.196142 
L 268.291157 -111.024208 
L 268.291157 -109.852274 
L 268.291157 -108.68034 
L 268.291157 -107.508406 
L 268.291157 -106.336473 
L 268.291157 -105.164539 
L 268.291157 -103.992605 
L 268.291157 -102.820671 
L 268.291157 -101.648738 
L 268.291157 -100.476804 
L 268.291157 -99.30487 
L 268.291157 -98.132936 
L 268.291157 -96.961002 
L 268.291157 -95.789069 
L 268.291157 -94.617135 
L 268.291157 -93.445201 
L 268.291157 -92.273267 
L 268.291157 -91.101334 
L 268.291157 -89.9294 
L 268.291157 -88.757466 
L 268.291157 -87.585532 
L 268.291157 -86.413598 
L 268.291157 -85.241665 
L 268.291157 -84.069731 
L 268.291157 -82.897797 
L 268.291157 -81.725863 
L 268.291157 -80.553929 
L 268.291157 -79.381996 
L 268.291157 -78.210062 
L 268.291157 -77.038128 
L 268.291157 -75.866194 
L 268.291157 -74.694261 
L 268.291157 -73.522327 
L 268.291157 -72.350393 
L 268.291157 -71.178459 
L 268.291157 -70.006525 
L 268.291157 -68.834592 
L 268.291157 -67.662658 
L 268.291157 -66.490724 
L 268.291157 -65.31879 
L 268.291157 -64.146857 
L 268.291157 -62.974923 
L 268.291157 -61.802989 
L 268.291157 -60.631055 
L 268.291157 -59.459121 
L 268.291157 -58.287188 
L 268.291157 -57.115254 
L 268.291157 -55.94332 
L 268.291157 -54.771386 
L 268.291157 -53.599452 
L 268.291157 -52.427519 
L 268.291157 -51.255585 
z
" id="mdb5fe5ff11" style="stroke:#4c4c4c;stroke-width:1.5;"/>
    </defs>
    <g clip-path="url(#pb90b6975f2)">
     <use style="fill:#20df20;stroke:#4c4c4c;stroke-width:1.5;" x="0" xlink:href="#mdb5fe5ff11" y="252"/>
    </g>
   </g>
   <g id="PolyCollection_8">
    <defs>
     <path d="M 268.99154 -58.255545 
L 268.291157 -58.255545 
L 268.291157 -59.354038 
L 268.291157 -60.452531 
L 268.291157 -61.551023 
L 268.291157 -62.649516 
L 268.291157 -63.748008 
L 268.291157 -64.846501 
L 268.291157 -65.944994 
L 268.291157 -67.043486 
L 268.291157 -68.141979 
L 268.291157 -69.240471 
L 268.291157 -70.338964 
L 268.291157 -71.437457 
L 268.291157 -72.535949 
L 268.291157 -73.634442 
L 268.291157 -74.732934 
L 268.291157 -75.831427 
L 268.291157 -76.92992 
L 268.291157 -78.028412 
L 268.291157 -79.126905 
L 268.291157 -80.225397 
L 268.291157 -81.32389 
L 268.291157 -82.422383 
L 268.291157 -83.520875 
L 268.291157 -84.619368 
L 268.291157 -85.71786 
L 268.291157 -86.816353 
L 268.291157 -87.914846 
L 268.291157 -89.013338 
L 268.291157 -90.111831 
L 268.291157 -91.210323 
L 268.291157 -92.308816 
L 268.291157 -93.407309 
L 268.291157 -94.505801 
L 268.291157 -95.604294 
L 268.291157 -96.702786 
L 268.291157 -97.801279 
L 268.291157 -98.899772 
L 268.291157 -99.998264 
L 268.291157 -101.096757 
L 268.291157 -102.195249 
L 268.291157 -103.293742 
L 268.291157 -104.392235 
L 268.291157 -105.490727 
L 268.291157 -106.58922 
L 268.291157 -107.687712 
L 268.291157 -108.786205 
L 268.291157 -109.884698 
L 268.291157 -110.98319 
L 268.291157 -112.081683 
L 268.291157 -113.180175 
L 268.291157 -114.278668 
L 268.291157 -115.377161 
L 268.291157 -116.475653 
L 268.291157 -117.574146 
L 268.291157 -118.672638 
L 268.291157 -119.771131 
L 268.291157 -120.869624 
L 268.291157 -121.968116 
L 268.291157 -123.066609 
L 268.291157 -124.165101 
L 268.291157 -125.263594 
L 268.291157 -126.362087 
L 268.291157 -127.460579 
L 268.291157 -128.559072 
L 268.291157 -129.657564 
L 268.291157 -130.756057 
L 268.291157 -131.854549 
L 268.291157 -132.953042 
L 268.291157 -134.051535 
L 268.291157 -135.150027 
L 268.291157 -136.24852 
L 268.291157 -137.347012 
L 268.291157 -138.445505 
L 268.291157 -139.543998 
L 268.291157 -140.64249 
L 268.291157 -141.740983 
L 268.291157 -142.839475 
L 268.291157 -143.937968 
L 268.291157 -145.036461 
L 268.291157 -146.134953 
L 268.291157 -147.233446 
L 268.291157 -148.331938 
L 268.291157 -149.430431 
L 268.291157 -150.528924 
L 268.291157 -151.627416 
L 268.291157 -152.725909 
L 268.291157 -153.824401 
L 268.291157 -154.922894 
L 268.291157 -156.021387 
L 268.291157 -157.119879 
L 268.291157 -158.218372 
L 268.291157 -159.316864 
L 268.291157 -160.415357 
L 268.291157 -161.51385 
L 268.291157 -162.612342 
L 268.291157 -163.710835 
L 268.291157 -164.809327 
L 268.291157 -165.90782 
L 268.291157 -167.006313 
L 268.735924 -167.006313 
L 268.735924 -167.006313 
L 268.805663 -165.90782 
L 268.882003 -164.809327 
L 268.966789 -163.710835 
L 269.062799 -162.612342 
L 269.173819 -161.51385 
L 269.304648 -160.415357 
L 269.461026 -159.316864 
L 269.649477 -158.218372 
L 269.87708 -157.119879 
L 270.151162 -156.021387 
L 270.478927 -154.922894 
L 270.867014 -153.824401 
L 271.321004 -152.725909 
L 271.844889 -151.627416 
L 272.440561 -150.528924 
L 273.107385 -149.430431 
L 273.841947 -148.331938 
L 274.638048 -147.233446 
L 275.487015 -146.134953 
L 276.378313 -145.036461 
L 277.30039 -143.937968 
L 278.24163 -142.839475 
L 279.191245 -141.740983 
L 280.139929 -140.64249 
L 281.080158 -139.543998 
L 282.006085 -138.445505 
L 282.913074 -137.347012 
L 283.796975 -136.24852 
L 284.653312 -135.150027 
L 285.476534 -134.051535 
L 286.259494 -132.953042 
L 286.99325 -131.854549 
L 287.66725 -130.756057 
L 288.269899 -129.657564 
L 288.789465 -128.559072 
L 289.21522 -127.460579 
L 289.538645 -126.362087 
L 289.754492 -125.263594 
L 289.861475 -124.165101 
L 289.862377 -123.066609 
L 289.763479 -121.968116 
L 289.57333 -120.869624 
L 289.301071 -119.771131 
L 288.954675 -118.672638 
L 288.539531 -117.574146 
L 288.057791 -116.475653 
L 287.508715 -115.377161 
L 286.890072 -114.278668 
L 286.200308 -113.180175 
L 285.441053 -112.081683 
L 284.61936 -110.98319 
L 283.749126 -109.884698 
L 282.85129 -108.786205 
L 281.95269 -107.687712 
L 281.083698 -106.58922 
L 280.275074 -105.490727 
L 279.554571 -104.392235 
L 278.943926 -103.293742 
L 278.456724 -102.195249 
L 278.097473 -101.096757 
L 277.861955 -99.998264 
L 277.738693 -98.899772 
L 277.711149 -97.801279 
L 277.760209 -96.702786 
L 277.866471 -95.604294 
L 278.011962 -94.505801 
L 278.18111 -93.407309 
L 278.360934 -92.308816 
L 278.540614 -91.210323 
L 278.710715 -90.111831 
L 278.862332 -89.013338 
L 278.986432 -87.914846 
L 279.073532 -86.816353 
L 279.113769 -85.71786 
L 279.09732 -84.619368 
L 279.015053 -83.520875 
L 278.859277 -82.422383 
L 278.624473 -81.32389 
L 278.30792 -80.225397 
L 277.910149 -79.126905 
L 277.435206 -78.028412 
L 276.890699 -76.92992 
L 276.287594 -75.831427 
L 275.639758 -74.732934 
L 274.963235 -73.634442 
L 274.2753 -72.535949 
L 273.593351 -71.437457 
L 272.933755 -70.338964 
L 272.310786 -69.240471 
L 271.735773 -68.141979 
L 271.216561 -67.043486 
L 270.757333 -65.944994 
L 270.358781 -64.846501 
L 270.01858 -63.748008 
L 269.732068 -62.649516 
L 269.493033 -61.551023 
L 269.294513 -60.452531 
L 269.129504 -59.354038 
L 268.99154 -58.255545 
z
" id="md75838a1ce" style="stroke:#4c4c4c;stroke-width:1.5;"/>
    </defs>
    <g clip-path="url(#pb90b6975f2)">
     <use style="fill:#20dfdf;stroke:#4c4c4c;stroke-width:1.5;" x="0" xlink:href="#md75838a1ce" y="252"/>
    </g>
   </g>
   <g id="PolyCollection_9">
    <defs>
     <path d="M 325.739091 -49.205873 
L 316.27419 -49.205873 
L 315.529931 -50.30085 
L 314.791258 -51.395826 
L 314.066006 -52.490803 
L 313.36205 -53.58578 
L 312.687153 -54.680757 
L 312.048807 -55.775734 
L 311.45408 -56.87071 
L 310.909472 -57.965687 
L 310.420784 -59.060664 
L 309.992993 -60.155641 
L 309.630142 -61.250617 
L 309.335256 -62.345594 
L 309.110254 -63.440571 
L 308.955902 -64.535548 
L 308.871768 -65.630525 
L 308.856209 -66.725501 
L 308.906376 -67.820478 
L 309.018246 -68.915455 
L 309.186679 -70.010432 
L 309.405506 -71.105409 
L 309.667637 -72.200385 
L 309.965206 -73.295362 
L 310.289729 -74.390339 
L 310.632296 -75.485316 
L 310.983771 -76.580293 
L 311.335003 -77.675269 
L 311.677048 -78.770246 
L 312.001374 -79.865223 
L 312.300067 -80.9602 
L 312.566004 -82.055177 
L 312.793008 -83.150153 
L 312.975959 -84.24513 
L 313.110874 -85.340107 
L 313.194942 -86.435084 
L 313.226525 -87.530061 
L 313.205108 -88.625037 
L 313.131234 -89.720014 
L 313.006393 -90.814991 
L 312.832901 -91.909968 
L 312.613767 -93.004945 
L 312.352551 -94.099921 
L 312.053229 -95.194898 
L 311.720066 -96.289875 
L 311.357503 -97.384852 
L 310.970071 -98.479829 
L 310.562312 -99.574805 
L 310.138735 -100.669782 
L 309.703785 -101.764759 
L 309.26183 -102.859736 
L 308.817165 -103.954713 
L 308.374021 -105.049689 
L 307.936587 -106.144666 
L 307.509028 -107.239643 
L 307.0955 -108.33462 
L 306.700163 -109.429597 
L 306.327178 -110.524573 
L 305.980703 -111.61955 
L 305.664868 -112.714527 
L 305.383744 -113.809504 
L 305.141298 -114.904481 
L 304.941342 -115.999457 
L 304.787471 -117.094434 
L 304.683 -118.189411 
L 304.630897 -119.284388 
L 304.633716 -120.379365 
L 304.693534 -121.474341 
L 304.811895 -122.569318 
L 304.989764 -123.664295 
L 305.227482 -124.759272 
L 305.524746 -125.854249 
L 305.880587 -126.949225 
L 306.293374 -128.044202 
L 306.760825 -129.139179 
L 307.280026 -130.234156 
L 307.847475 -131.329133 
L 308.459122 -132.424109 
L 309.110436 -133.519086 
L 309.796463 -134.614063 
L 310.511904 -135.70904 
L 311.251194 -136.804016 
L 312.008583 -137.898993 
L 312.778224 -138.99397 
L 313.554258 -140.088947 
L 314.330897 -141.183924 
L 315.102518 -142.2789 
L 315.863734 -143.373877 
L 316.609482 -144.468854 
L 317.335086 -145.563831 
L 318.03633 -146.658808 
L 318.709508 -147.753784 
L 319.351471 -148.848761 
L 319.959658 -149.943738 
L 320.532117 -151.038715 
L 321.067503 -152.133692 
L 321.565073 -153.228668 
L 322.024651 -154.323645 
L 322.446593 -155.418622 
L 322.831731 -156.513599 
L 323.181311 -157.608576 
L 325.739091 -157.608576 
L 325.739091 -157.608576 
L 325.739091 -156.513599 
L 325.739091 -155.418622 
L 325.739091 -154.323645 
L 325.739091 -153.228668 
L 325.739091 -152.133692 
L 325.739091 -151.038715 
L 325.739091 -149.943738 
L 325.739091 -148.848761 
L 325.739091 -147.753784 
L 325.739091 -146.658808 
L 325.739091 -145.563831 
L 325.739091 -144.468854 
L 325.739091 -143.373877 
L 325.739091 -142.2789 
L 325.739091 -141.183924 
L 325.739091 -140.088947 
L 325.739091 -138.99397 
L 325.739091 -137.898993 
L 325.739091 -136.804016 
L 325.739091 -135.70904 
L 325.739091 -134.614063 
L 325.739091 -133.519086 
L 325.739091 -132.424109 
L 325.739091 -131.329133 
L 325.739091 -130.234156 
L 325.739091 -129.139179 
L 325.739091 -128.044202 
L 325.739091 -126.949225 
L 325.739091 -125.854249 
L 325.739091 -124.759272 
L 325.739091 -123.664295 
L 325.739091 -122.569318 
L 325.739091 -121.474341 
L 325.739091 -120.379365 
L 325.739091 -119.284388 
L 325.739091 -118.189411 
L 325.739091 -117.094434 
L 325.739091 -115.999457 
L 325.739091 -114.904481 
L 325.739091 -113.809504 
L 325.739091 -112.714527 
L 325.739091 -111.61955 
L 325.739091 -110.524573 
L 325.739091 -109.429597 
L 325.739091 -108.33462 
L 325.739091 -107.239643 
L 325.739091 -106.144666 
L 325.739091 -105.049689 
L 325.739091 -103.954713 
L 325.739091 -102.859736 
L 325.739091 -101.764759 
L 325.739091 -100.669782 
L 325.739091 -99.574805 
L 325.739091 -98.479829 
L 325.739091 -97.384852 
L 325.739091 -96.289875 
L 325.739091 -95.194898 
L 325.739091 -94.099921 
L 325.739091 -93.004945 
L 325.739091 -91.909968 
L 325.739091 -90.814991 
L 325.739091 -89.720014 
L 325.739091 -88.625037 
L 325.739091 -87.530061 
L 325.739091 -86.435084 
L 325.739091 -85.340107 
L 325.739091 -84.24513 
L 325.739091 -83.150153 
L 325.739091 -82.055177 
L 325.739091 -80.9602 
L 325.739091 -79.865223 
L 325.739091 -78.770246 
L 325.739091 -77.675269 
L 325.739091 -76.580293 
L 325.739091 -75.485316 
L 325.739091 -74.390339 
L 325.739091 -73.295362 
L 325.739091 -72.200385 
L 325.739091 -71.105409 
L 325.739091 -70.010432 
L 325.739091 -68.915455 
L 325.739091 -67.820478 
L 325.739091 -66.725501 
L 325.739091 -65.630525 
L 325.739091 -64.535548 
L 325.739091 -63.440571 
L 325.739091 -62.345594 
L 325.739091 -61.250617 
L 325.739091 -60.155641 
L 325.739091 -59.060664 
L 325.739091 -57.965687 
L 325.739091 -56.87071 
L 325.739091 -55.775734 
L 325.739091 -54.680757 
L 325.739091 -53.58578 
L 325.739091 -52.490803 
L 325.739091 -51.395826 
L 325.739091 -50.30085 
L 325.739091 -49.205873 
z
" id="mb63b9be68b" style="stroke:#4c4c4c;stroke-width:1.5;"/>
    </defs>
    <g clip-path="url(#pb90b6975f2)">
     <use style="fill:#20df20;stroke:#4c4c4c;stroke-width:1.5;" x="0" xlink:href="#mb63b9be68b" y="252"/>
    </g>
   </g>
   <g id="PolyCollection_10">
    <defs>
     <path d="M 338.878221 -51.951714 
L 325.739091 -51.951714 
L 325.739091 -52.942779 
L 325.739091 -53.933844 
L 325.739091 -54.92491 
L 325.739091 -55.915975 
L 325.739091 -56.90704 
L 325.739091 -57.898106 
L 325.739091 -58.889171 
L 325.739091 -59.880236 
L 325.739091 -60.871302 
L 325.739091 -61.862367 
L 325.739091 -62.853432 
L 325.739091 -63.844498 
L 325.739091 -64.835563 
L 325.739091 -65.826628 
L 325.739091 -66.817694 
L 325.739091 -67.808759 
L 325.739091 -68.799824 
L 325.739091 -69.79089 
L 325.739091 -70.781955 
L 325.739091 -71.77302 
L 325.739091 -72.764086 
L 325.739091 -73.755151 
L 325.739091 -74.746216 
L 325.739091 -75.737282 
L 325.739091 -76.728347 
L 325.739091 -77.719412 
L 325.739091 -78.710478 
L 325.739091 -79.701543 
L 325.739091 -80.692608 
L 325.739091 -81.683674 
L 325.739091 -82.674739 
L 325.739091 -83.665804 
L 325.739091 -84.65687 
L 325.739091 -85.647935 
L 325.739091 -86.639 
L 325.739091 -87.630066 
L 325.739091 -88.621131 
L 325.739091 -89.612196 
L 325.739091 -90.603262 
L 325.739091 -91.594327 
L 325.739091 -92.585392 
L 325.739091 -93.576458 
L 325.739091 -94.567523 
L 325.739091 -95.558588 
L 325.739091 -96.549654 
L 325.739091 -97.540719 
L 325.739091 -98.531784 
L 325.739091 -99.52285 
L 325.739091 -100.513915 
L 325.739091 -101.50498 
L 325.739091 -102.496046 
L 325.739091 -103.487111 
L 325.739091 -104.478176 
L 325.739091 -105.469242 
L 325.739091 -106.460307 
L 325.739091 -107.451372 
L 325.739091 -108.442438 
L 325.739091 -109.433503 
L 325.739091 -110.424568 
L 325.739091 -111.415634 
L 325.739091 -112.406699 
L 325.739091 -113.397764 
L 325.739091 -114.38883 
L 325.739091 -115.379895 
L 325.739091 -116.37096 
L 325.739091 -117.362026 
L 325.739091 -118.353091 
L 325.739091 -119.344156 
L 325.739091 -120.335222 
L 325.739091 -121.326287 
L 325.739091 -122.317352 
L 325.739091 -123.308418 
L 325.739091 -124.299483 
L 325.739091 -125.290548 
L 325.739091 -126.281614 
L 325.739091 -127.272679 
L 325.739091 -128.263744 
L 325.739091 -129.25481 
L 325.739091 -130.245875 
L 325.739091 -131.23694 
L 325.739091 -132.228006 
L 325.739091 -133.219071 
L 325.739091 -134.210136 
L 325.739091 -135.201202 
L 325.739091 -136.192267 
L 325.739091 -137.183332 
L 325.739091 -138.174398 
L 325.739091 -139.165463 
L 325.739091 -140.156528 
L 325.739091 -141.147594 
L 325.739091 -142.138659 
L 325.739091 -143.129724 
L 325.739091 -144.12079 
L 325.739091 -145.111855 
L 325.739091 -146.10292 
L 325.739091 -147.093986 
L 325.739091 -148.085051 
L 325.739091 -149.076116 
L 325.739091 -150.067182 
L 330.317883 -150.067182 
L 330.317883 -150.067182 
L 330.750164 -149.076116 
L 331.204695 -148.085051 
L 331.681807 -147.093986 
L 332.181932 -146.10292 
L 332.705576 -145.111855 
L 333.25327 -144.12079 
L 333.825512 -143.129724 
L 334.422685 -142.138659 
L 335.044959 -141.147594 
L 335.69219 -140.156528 
L 336.363808 -139.165463 
L 337.05871 -138.174398 
L 337.775164 -137.183332 
L 338.510726 -136.192267 
L 339.262178 -135.201202 
L 340.025503 -134.210136 
L 340.795883 -133.219071 
L 341.567736 -132.228006 
L 342.334794 -131.23694 
L 343.090207 -130.245875 
L 343.826686 -129.25481 
L 344.536669 -128.263744 
L 345.212504 -127.272679 
L 345.846648 -126.281614 
L 346.431867 -125.290548 
L 346.961422 -124.299483 
L 347.429255 -123.308418 
L 347.830136 -122.317352 
L 348.159791 -121.326287 
L 348.414994 -120.335222 
L 348.593623 -119.344156 
L 348.694678 -118.353091 
L 348.718264 -117.362026 
L 348.665547 -116.37096 
L 348.538672 -115.379895 
L 348.340676 -114.38883 
L 348.075367 -113.397764 
L 347.747217 -112.406699 
L 347.361232 -111.415634 
L 346.922846 -110.424568 
L 346.437811 -109.433503 
L 345.912107 -108.442438 
L 345.351865 -107.451372 
L 344.763308 -106.460307 
L 344.152702 -105.469242 
L 343.52633 -104.478176 
L 342.890461 -103.487111 
L 342.251344 -102.496046 
L 341.615192 -101.50498 
L 340.988167 -100.513915 
L 340.376371 -99.52285 
L 339.785817 -98.531784 
L 339.222401 -97.540719 
L 338.691866 -96.549654 
L 338.19975 -95.558588 
L 337.751333 -94.567523 
L 337.351573 -93.576458 
L 337.005043 -92.585392 
L 336.71586 -91.594327 
L 336.487615 -90.603262 
L 336.323313 -89.612196 
L 336.225301 -88.621131 
L 336.195218 -87.630066 
L 336.23394 -86.639 
L 336.341531 -85.647935 
L 336.517207 -84.65687 
L 336.759301 -83.665804 
L 337.065237 -82.674739 
L 337.431511 -81.683674 
L 337.853674 -80.692608 
L 338.32634 -79.701543 
L 338.843187 -78.710478 
L 339.396981 -77.719412 
L 339.979622 -76.728347 
L 340.582194 -75.737282 
L 341.195056 -74.746216 
L 341.80794 -73.755151 
L 342.41009 -72.764086 
L 342.990418 -71.77302 
L 343.537694 -70.781955 
L 344.040752 -69.79089 
L 344.488721 -68.799824 
L 344.871273 -67.808759 
L 345.178868 -66.817694 
L 345.403008 -65.826628 
L 345.536472 -64.835563 
L 345.573537 -63.844498 
L 345.510157 -62.853432 
L 345.344116 -61.862367 
L 345.07512 -60.871302 
L 344.704838 -59.880236 
L 344.236888 -58.889171 
L 343.676757 -57.898106 
L 343.031668 -56.90704 
L 342.310385 -55.915975 
L 341.522976 -54.92491 
L 340.680536 -53.933844 
L 339.79488 -52.942779 
L 338.878221 -51.951714 
z
" id="mbcb34826fd" style="stroke:#4c4c4c;stroke-width:1.5;"/>
    </defs>
    <g clip-path="url(#pb90b6975f2)">
     <use style="fill:#20dfdf;stroke:#4c4c4c;stroke-width:1.5;" x="0" xlink:href="#mbcb34826fd" y="252"/>
    </g>
   </g>
   <g id="PathCollection_1">
    <defs>
     <path d="M 0 3 
C 0.795609 3 1.55874 2.683901 2.12132 2.12132 
C 2.683901 1.55874 3 0.795609 3 -0 
C 3 -0.795609 2.683901 -1.55874 2.12132 -2.12132 
C 1.55874 -2.683901 0.795609 -3 0 -3 
C -0.795609 -3 -1.55874 -2.683901 -2.12132 -2.12132 
C -2.683901 -1.55874 -3 -0.795609 -3 0 
C -3 0.795609 -2.683901 1.55874 -2.12132 2.12132 
C -1.55874 2.683901 -0.795609 3 0 3 
z
" id="C0_0_2303e8a558"/>
    </defs>
    <g clip-path="url(#pb90b6975f2)">
     <use style="fill:#0000ff;stroke:#ffffff;stroke-width:0.48;" x="377.442231" xlink:href="#C0_0_2303e8a558" y="161.529167"/>
    </g>
    <g clip-path="url(#pb90b6975f2)">
     <use style="fill:#dc143c;stroke:#ffffff;stroke-width:0.48;" x="377.442231" xlink:href="#C0_0_2303e8a558" y="163.88827"/>
    </g>
    <g clip-path="url(#pb90b6975f2)">
     <use style="fill:#008000;stroke:#ffffff;stroke-width:0.48;" x="377.442231" xlink:href="#C0_0_2303e8a558" y="158.667305"/>
    </g>
    <g clip-path="url(#pb90b6975f2)">
     <use style="stroke:#ffffff;stroke-width:0.48;" x="377.442231" xlink:href="#C0_0_2303e8a558" y="139.755809"/>
    </g>
    <g clip-path="url(#pb90b6975f2)">
     <use style="fill:#ffa500;stroke:#ffffff;stroke-width:0.48;" x="377.442231" xlink:href="#C0_0_2303e8a558" y="145.208817"/>
    </g>
   </g>
   <g id="PathCollection_2"/>
   <g id="PathCollection_3"/>
   <g id="PathCollection_4"/>
   <g id="PathCollection_5"/>
   <g id="PathCollection_6"/>
   <g id="PathCollection_7">
    <defs>
     <path d="M 0 3 
C 0.795609 3 1.55874 2.683901 2.12132 2.12132 
C 2.683901 1.55874 3 0.795609 3 -0 
C 3 -0.795609 2.683901 -1.55874 2.12132 -2.12132 
C 1.55874 -2.683901 0.795609 -3 0 -3 
C -0.795609 -3 -1.55874 -2.683901 -2.12132 -2.12132 
C -2.683901 -1.55874 -3 -0.795609 -3 0 
C -3 0.795609 -2.683901 1.55874 -2.12132 2.12132 
C -1.55874 2.683901 -0.795609 3 0 3 
z
" id="C1_0_21244688aa"/>
    </defs>
    <g clip-path="url(#pb90b6975f2)">
     <use style="fill:#0000ff;stroke:#ffffff;stroke-width:0.48;" x="388.931818" xlink:href="#C1_0_21244688aa" y="143.3138"/>
    </g>
    <g clip-path="url(#pb90b6975f2)">
     <use style="fill:#dc143c;stroke:#ffffff;stroke-width:0.48;" x="388.931818" xlink:href="#C1_0_21244688aa" y="118.36919"/>
    </g>
    <g clip-path="url(#pb90b6975f2)">
     <use style="fill:#008000;stroke:#ffffff;stroke-width:0.48;" x="388.931818" xlink:href="#C1_0_21244688aa" y="122.159223"/>
    </g>
    <g clip-path="url(#pb90b6975f2)">
     <use style="stroke:#ffffff;stroke-width:0.48;" x="388.931818" xlink:href="#C1_0_21244688aa" y="157.661785"/>
    </g>
    <g clip-path="url(#pb90b6975f2)">
     <use style="fill:#ffa500;stroke:#ffffff;stroke-width:0.48;" x="388.931818" xlink:href="#C1_0_21244688aa" y="147.761289"/>
    </g>
   </g>
   <g id="PathCollection_8"/>
   <g id="PathCollection_9"/>
   <g id="PathCollection_10"/>
   <g id="PathCollection_11"/>
   <g id="PathCollection_12"/>
   <g id="patch_3">
    <path clip-path="url(#pb90b6975f2)" d="M 95.947355 202.794127 
L 95.947355 202.794127 
L 95.947355 202.794127 
L 95.947355 202.794127 
z
" style="fill:#20df20;stroke:#4c4c4c;stroke-linejoin:miter;stroke-width:0.75;"/>
   </g>
   <g id="patch_4">
    <path clip-path="url(#pb90b6975f2)" d="M 95.947355 202.794127 
L 95.947355 202.794127 
L 95.947355 202.794127 
L 95.947355 202.794127 
z
" style="fill:#20dfdf;stroke:#4c4c4c;stroke-linejoin:miter;stroke-width:0.75;"/>
   </g>
   <g id="matplotlib.axis_1">
    <g id="xtick_1">
     <g id="line2d_1">
      <defs>
       <path d="M 0 0 
L 0 3.5 
" id="m4202cf85c3" style="stroke:#000000;stroke-width:0.8;"/>
      </defs>
      <g>
       <use style="stroke:#000000;stroke-width:0.8;" x="95.947355" xlink:href="#m4202cf85c3" y="209.68"/>
      </g>
     </g>
     <g id="text_1">
      <!-- 0 -->
      <g transform="translate(92.766105 224.278437)scale(0.1 -0.1)">
       <defs>
        <path d="M 2034 4250 
Q 1547 4250 1301 3770 
Q 1056 3291 1056 2328 
Q 1056 1369 1301 889 
Q 1547 409 2034 409 
Q 2525 409 2770 889 
Q 3016 1369 3016 2328 
Q 3016 3291 2770 3770 
Q 2525 4250 2034 4250 
z
M 2034 4750 
Q 2819 4750 3233 4129 
Q 3647 3509 3647 2328 
Q 3647 1150 3233 529 
Q 2819 -91 2034 -91 
Q 1250 -91 836 529 
Q 422 1150 422 2328 
Q 422 3509 836 4129 
Q 1250 4750 2034 4750 
z
" id="DejaVuSans-30" transform="scale(0.015625)"/>
       </defs>
       <use xlink:href="#DejaVuSans-30"/>
      </g>
     </g>
    </g>
    <g id="xtick_2">
     <g id="line2d_2">
      <g>
       <use style="stroke:#000000;stroke-width:0.8;" x="153.395289" xlink:href="#m4202cf85c3" y="209.68"/>
      </g>
     </g>
     <g id="text_2">
      <!-- 1 -->
      <g transform="translate(150.214039 224.278437)scale(0.1 -0.1)">
       <defs>
        <path d="M 794 531 
L 1825 531 
L 1825 4091 
L 703 3866 
L 703 4441 
L 1819 4666 
L 2450 4666 
L 2450 531 
L 3481 531 
L 3481 0 
L 794 0 
L 794 531 
z
" id="DejaVuSans-31" transform="scale(0.015625)"/>
       </defs>
       <use xlink:href="#DejaVuSans-31"/>
      </g>
     </g>
    </g>
    <g id="xtick_3">
     <g id="line2d_3">
      <g>
       <use style="stroke:#000000;stroke-width:0.8;" x="210.843223" xlink:href="#m4202cf85c3" y="209.68"/>
      </g>
     </g>
     <g id="text_3">
      <!-- 2 -->
      <g transform="translate(207.661973 224.278437)scale(0.1 -0.1)">
       <defs>
        <path d="M 1228 531 
L 3431 531 
L 3431 0 
L 469 0 
L 469 531 
Q 828 903 1448 1529 
Q 2069 2156 2228 2338 
Q 2531 2678 2651 2914 
Q 2772 3150 2772 3378 
Q 2772 3750 2511 3984 
Q 2250 4219 1831 4219 
Q 1534 4219 1204 4116 
Q 875 4013 500 3803 
L 500 4441 
Q 881 4594 1212 4672 
Q 1544 4750 1819 4750 
Q 2544 4750 2975 4387 
Q 3406 4025 3406 3419 
Q 3406 3131 3298 2873 
Q 3191 2616 2906 2266 
Q 2828 2175 2409 1742 
Q 1991 1309 1228 531 
z
" id="DejaVuSans-32" transform="scale(0.015625)"/>
       </defs>
       <use xlink:href="#DejaVuSans-32"/>
      </g>
     </g>
    </g>
    <g id="xtick_4">
     <g id="line2d_4">
      <g>
       <use style="stroke:#000000;stroke-width:0.8;" x="268.291157" xlink:href="#m4202cf85c3" y="209.68"/>
      </g>
     </g>
     <g id="text_4">
      <!-- 3 -->
      <g transform="translate(265.109907 224.278437)scale(0.1 -0.1)">
       <defs>
        <path d="M 2597 2516 
Q 3050 2419 3304 2112 
Q 3559 1806 3559 1356 
Q 3559 666 3084 287 
Q 2609 -91 1734 -91 
Q 1441 -91 1130 -33 
Q 819 25 488 141 
L 488 750 
Q 750 597 1062 519 
Q 1375 441 1716 441 
Q 2309 441 2620 675 
Q 2931 909 2931 1356 
Q 2931 1769 2642 2001 
Q 2353 2234 1838 2234 
L 1294 2234 
L 1294 2753 
L 1863 2753 
Q 2328 2753 2575 2939 
Q 2822 3125 2822 3475 
Q 2822 3834 2567 4026 
Q 2313 4219 1838 4219 
Q 1578 4219 1281 4162 
Q 984 4106 628 3988 
L 628 4550 
Q 988 4650 1302 4700 
Q 1616 4750 1894 4750 
Q 2613 4750 3031 4423 
Q 3450 4097 3450 3541 
Q 3450 3153 3228 2886 
Q 3006 2619 2597 2516 
z
" id="DejaVuSans-33" transform="scale(0.015625)"/>
       </defs>
       <use xlink:href="#DejaVuSans-33"/>
      </g>
     </g>
    </g>
    <g id="xtick_5">
     <g id="line2d_5">
      <g>
       <use style="stroke:#000000;stroke-width:0.8;" x="325.739091" xlink:href="#m4202cf85c3" y="209.68"/>
      </g>
     </g>
     <g id="text_5">
      <!-- 4 -->
      <g transform="translate(322.557841 224.278437)scale(0.1 -0.1)">
       <defs>
        <path d="M 2419 4116 
L 825 1625 
L 2419 1625 
L 2419 4116 
z
M 2253 4666 
L 3047 4666 
L 3047 1625 
L 3713 1625 
L 3713 1100 
L 3047 1100 
L 3047 0 
L 2419 0 
L 2419 1100 
L 313 1100 
L 313 1709 
L 2253 4666 
z
" id="DejaVuSans-34" transform="scale(0.015625)"/>
       </defs>
       <use xlink:href="#DejaVuSans-34"/>
      </g>
     </g>
    </g>
    <g id="xtick_6">
     <g id="line2d_6">
      <g>
       <use style="stroke:#000000;stroke-width:0.8;" x="383.187025" xlink:href="#m4202cf85c3" y="209.68"/>
      </g>
     </g>
     <g id="text_6">
      <!-- Patients (L|R) -->
      <g transform="translate(349.738587 224.322187)scale(0.1 -0.1)">
       <defs>
        <path d="M 1259 4147 
L 1259 2394 
L 2053 2394 
Q 2494 2394 2734 2622 
Q 2975 2850 2975 3272 
Q 2975 3691 2734 3919 
Q 2494 4147 2053 4147 
L 1259 4147 
z
M 628 4666 
L 2053 4666 
Q 2838 4666 3239 4311 
Q 3641 3956 3641 3272 
Q 3641 2581 3239 2228 
Q 2838 1875 2053 1875 
L 1259 1875 
L 1259 0 
L 628 0 
L 628 4666 
z
" id="DejaVuSans-50" transform="scale(0.015625)"/>
        <path d="M 2194 1759 
Q 1497 1759 1228 1600 
Q 959 1441 959 1056 
Q 959 750 1161 570 
Q 1363 391 1709 391 
Q 2188 391 2477 730 
Q 2766 1069 2766 1631 
L 2766 1759 
L 2194 1759 
z
M 3341 1997 
L 3341 0 
L 2766 0 
L 2766 531 
Q 2569 213 2275 61 
Q 1981 -91 1556 -91 
Q 1019 -91 701 211 
Q 384 513 384 1019 
Q 384 1609 779 1909 
Q 1175 2209 1959 2209 
L 2766 2209 
L 2766 2266 
Q 2766 2663 2505 2880 
Q 2244 3097 1772 3097 
Q 1472 3097 1187 3025 
Q 903 2953 641 2809 
L 641 3341 
Q 956 3463 1253 3523 
Q 1550 3584 1831 3584 
Q 2591 3584 2966 3190 
Q 3341 2797 3341 1997 
z
" id="DejaVuSans-61" transform="scale(0.015625)"/>
        <path d="M 1172 4494 
L 1172 3500 
L 2356 3500 
L 2356 3053 
L 1172 3053 
L 1172 1153 
Q 1172 725 1289 603 
Q 1406 481 1766 481 
L 2356 481 
L 2356 0 
L 1766 0 
Q 1100 0 847 248 
Q 594 497 594 1153 
L 594 3053 
L 172 3053 
L 172 3500 
L 594 3500 
L 594 4494 
L 1172 4494 
z
" id="DejaVuSans-74" transform="scale(0.015625)"/>
        <path d="M 603 3500 
L 1178 3500 
L 1178 0 
L 603 0 
L 603 3500 
z
M 603 4863 
L 1178 4863 
L 1178 4134 
L 603 4134 
L 603 4863 
z
" id="DejaVuSans-69" transform="scale(0.015625)"/>
        <path d="M 3597 1894 
L 3597 1613 
L 953 1613 
Q 991 1019 1311 708 
Q 1631 397 2203 397 
Q 2534 397 2845 478 
Q 3156 559 3463 722 
L 3463 178 
Q 3153 47 2828 -22 
Q 2503 -91 2169 -91 
Q 1331 -91 842 396 
Q 353 884 353 1716 
Q 353 2575 817 3079 
Q 1281 3584 2069 3584 
Q 2775 3584 3186 3129 
Q 3597 2675 3597 1894 
z
M 3022 2063 
Q 3016 2534 2758 2815 
Q 2500 3097 2075 3097 
Q 1594 3097 1305 2825 
Q 1016 2553 972 2059 
L 3022 2063 
z
" id="DejaVuSans-65" transform="scale(0.015625)"/>
        <path d="M 3513 2113 
L 3513 0 
L 2938 0 
L 2938 2094 
Q 2938 2591 2744 2837 
Q 2550 3084 2163 3084 
Q 1697 3084 1428 2787 
Q 1159 2491 1159 1978 
L 1159 0 
L 581 0 
L 581 3500 
L 1159 3500 
L 1159 2956 
Q 1366 3272 1645 3428 
Q 1925 3584 2291 3584 
Q 2894 3584 3203 3211 
Q 3513 2838 3513 2113 
z
" id="DejaVuSans-6e" transform="scale(0.015625)"/>
        <path d="M 2834 3397 
L 2834 2853 
Q 2591 2978 2328 3040 
Q 2066 3103 1784 3103 
Q 1356 3103 1142 2972 
Q 928 2841 928 2578 
Q 928 2378 1081 2264 
Q 1234 2150 1697 2047 
L 1894 2003 
Q 2506 1872 2764 1633 
Q 3022 1394 3022 966 
Q 3022 478 2636 193 
Q 2250 -91 1575 -91 
Q 1294 -91 989 -36 
Q 684 19 347 128 
L 347 722 
Q 666 556 975 473 
Q 1284 391 1588 391 
Q 1994 391 2212 530 
Q 2431 669 2431 922 
Q 2431 1156 2273 1281 
Q 2116 1406 1581 1522 
L 1381 1569 
Q 847 1681 609 1914 
Q 372 2147 372 2553 
Q 372 3047 722 3315 
Q 1072 3584 1716 3584 
Q 2034 3584 2315 3537 
Q 2597 3491 2834 3397 
z
" id="DejaVuSans-73" transform="scale(0.015625)"/>
        <path id="DejaVuSans-20" transform="scale(0.015625)"/>
        <path d="M 1984 4856 
Q 1566 4138 1362 3434 
Q 1159 2731 1159 2009 
Q 1159 1288 1364 580 
Q 1569 -128 1984 -844 
L 1484 -844 
Q 1016 -109 783 600 
Q 550 1309 550 2009 
Q 550 2706 781 3412 
Q 1013 4119 1484 4856 
L 1984 4856 
z
" id="DejaVuSans-28" transform="scale(0.015625)"/>
        <path d="M 628 4666 
L 1259 4666 
L 1259 531 
L 3531 531 
L 3531 0 
L 628 0 
L 628 4666 
z
" id="DejaVuSans-4c" transform="scale(0.015625)"/>
        <path d="M 1344 4891 
L 1344 -1509 
L 813 -1509 
L 813 4891 
L 1344 4891 
z
" id="DejaVuSans-7c" transform="scale(0.015625)"/>
        <path d="M 2841 2188 
Q 3044 2119 3236 1894 
Q 3428 1669 3622 1275 
L 4263 0 
L 3584 0 
L 2988 1197 
Q 2756 1666 2539 1819 
Q 2322 1972 1947 1972 
L 1259 1972 
L 1259 0 
L 628 0 
L 628 4666 
L 2053 4666 
Q 2853 4666 3247 4331 
Q 3641 3997 3641 3322 
Q 3641 2881 3436 2590 
Q 3231 2300 2841 2188 
z
M 1259 4147 
L 1259 2491 
L 2053 2491 
Q 2509 2491 2742 2702 
Q 2975 2913 2975 3322 
Q 2975 3731 2742 3939 
Q 2509 4147 2053 4147 
L 1259 4147 
z
" id="DejaVuSans-52" transform="scale(0.015625)"/>
        <path d="M 513 4856 
L 1013 4856 
Q 1481 4119 1714 3412 
Q 1947 2706 1947 2009 
Q 1947 1309 1714 600 
Q 1481 -109 1013 -844 
L 513 -844 
Q 928 -128 1133 580 
Q 1338 1288 1338 2009 
Q 1338 2731 1133 3434 
Q 928 4138 513 4856 
z
" id="DejaVuSans-29" transform="scale(0.015625)"/>
       </defs>
       <use xlink:href="#DejaVuSans-50"/>
       <use x="55.802734" xlink:href="#DejaVuSans-61"/>
       <use x="117.082031" xlink:href="#DejaVuSans-74"/>
       <use x="156.291016" xlink:href="#DejaVuSans-69"/>
       <use x="184.074219" xlink:href="#DejaVuSans-65"/>
       <use x="245.597656" xlink:href="#DejaVuSans-6e"/>
       <use x="308.976562" xlink:href="#DejaVuSans-74"/>
       <use x="348.185547" xlink:href="#DejaVuSans-73"/>
       <use x="400.285156" xlink:href="#DejaVuSans-20"/>
       <use x="432.072266" xlink:href="#DejaVuSans-28"/>
       <use x="471.085938" xlink:href="#DejaVuSans-4c"/>
       <use x="526.798828" xlink:href="#DejaVuSans-7c"/>
       <use x="560.490234" xlink:href="#DejaVuSans-52"/>
       <use x="629.972656" xlink:href="#DejaVuSans-29"/>
      </g>
     </g>
    </g>
    <g id="text_7">
     <!-- KL-grade -->
     <g transform="translate(208.624219 238.278437)scale(0.1 -0.1)">
      <defs>
       <path d="M 628 4666 
L 1259 4666 
L 1259 2694 
L 3353 4666 
L 4166 4666 
L 1850 2491 
L 4331 0 
L 3500 0 
L 1259 2247 
L 1259 0 
L 628 0 
L 628 4666 
z
" id="DejaVuSans-4b" transform="scale(0.015625)"/>
       <path d="M 313 2009 
L 1997 2009 
L 1997 1497 
L 313 1497 
L 313 2009 
z
" id="DejaVuSans-2d" transform="scale(0.015625)"/>
       <path d="M 2906 1791 
Q 2906 2416 2648 2759 
Q 2391 3103 1925 3103 
Q 1463 3103 1205 2759 
Q 947 2416 947 1791 
Q 947 1169 1205 825 
Q 1463 481 1925 481 
Q 2391 481 2648 825 
Q 2906 1169 2906 1791 
z
M 3481 434 
Q 3481 -459 3084 -895 
Q 2688 -1331 1869 -1331 
Q 1566 -1331 1297 -1286 
Q 1028 -1241 775 -1147 
L 775 -588 
Q 1028 -725 1275 -790 
Q 1522 -856 1778 -856 
Q 2344 -856 2625 -561 
Q 2906 -266 2906 331 
L 2906 616 
Q 2728 306 2450 153 
Q 2172 0 1784 0 
Q 1141 0 747 490 
Q 353 981 353 1791 
Q 353 2603 747 3093 
Q 1141 3584 1784 3584 
Q 2172 3584 2450 3431 
Q 2728 3278 2906 2969 
L 2906 3500 
L 3481 3500 
L 3481 434 
z
" id="DejaVuSans-67" transform="scale(0.015625)"/>
       <path d="M 2631 2963 
Q 2534 3019 2420 3045 
Q 2306 3072 2169 3072 
Q 1681 3072 1420 2755 
Q 1159 2438 1159 1844 
L 1159 0 
L 581 0 
L 581 3500 
L 1159 3500 
L 1159 2956 
Q 1341 3275 1631 3429 
Q 1922 3584 2338 3584 
Q 2397 3584 2469 3576 
Q 2541 3569 2628 3553 
L 2631 2963 
z
" id="DejaVuSans-72" transform="scale(0.015625)"/>
       <path d="M 2906 2969 
L 2906 4863 
L 3481 4863 
L 3481 0 
L 2906 0 
L 2906 525 
Q 2725 213 2448 61 
Q 2172 -91 1784 -91 
Q 1150 -91 751 415 
Q 353 922 353 1747 
Q 353 2572 751 3078 
Q 1150 3584 1784 3584 
Q 2172 3584 2448 3432 
Q 2725 3281 2906 2969 
z
M 947 1747 
Q 947 1113 1208 752 
Q 1469 391 1925 391 
Q 2381 391 2643 752 
Q 2906 1113 2906 1747 
Q 2906 2381 2643 2742 
Q 2381 3103 1925 3103 
Q 1469 3103 1208 2742 
Q 947 2381 947 1747 
z
" id="DejaVuSans-64" transform="scale(0.015625)"/>
      </defs>
      <use xlink:href="#DejaVuSans-4b"/>
      <use x="65.576172" xlink:href="#DejaVuSans-4c"/>
      <use x="119.539062" xlink:href="#DejaVuSans-2d"/>
      <use x="155.623047" xlink:href="#DejaVuSans-67"/>
      <use x="219.099609" xlink:href="#DejaVuSans-72"/>
      <use x="260.212891" xlink:href="#DejaVuSans-61"/>
      <use x="321.492188" xlink:href="#DejaVuSans-64"/>
      <use x="384.96875" xlink:href="#DejaVuSans-65"/>
     </g>
    </g>
   </g>
   <g id="matplotlib.axis_2">
    <g id="ytick_1">
     <g id="line2d_7">
      <defs>
       <path d="M 0 0 
L -3.5 0 
" id="m519a967b69" style="stroke:#000000;stroke-width:0.8;"/>
      </defs>
      <g>
       <use style="stroke:#000000;stroke-width:0.8;" x="57.17" xlink:href="#m519a967b69" y="202.794127"/>
      </g>
     </g>
     <g id="text_8">
      <!-- 0 -->
      <g transform="translate(43.8075 206.593346)scale(0.1 -0.1)">
       <use xlink:href="#DejaVuSans-30"/>
      </g>
     </g>
    </g>
    <g id="ytick_2">
     <g id="line2d_8">
      <g>
       <use style="stroke:#000000;stroke-width:0.8;" x="57.17" xlink:href="#m519a967b69" y="164.120312"/>
      </g>
     </g>
     <g id="text_9">
      <!-- 500 -->
      <g transform="translate(31.0825 167.919531)scale(0.1 -0.1)">
       <defs>
        <path d="M 691 4666 
L 3169 4666 
L 3169 4134 
L 1269 4134 
L 1269 2991 
Q 1406 3038 1543 3061 
Q 1681 3084 1819 3084 
Q 2600 3084 3056 2656 
Q 3513 2228 3513 1497 
Q 3513 744 3044 326 
Q 2575 -91 1722 -91 
Q 1428 -91 1123 -41 
Q 819 9 494 109 
L 494 744 
Q 775 591 1075 516 
Q 1375 441 1709 441 
Q 2250 441 2565 725 
Q 2881 1009 2881 1497 
Q 2881 1984 2565 2268 
Q 2250 2553 1709 2553 
Q 1456 2553 1204 2497 
Q 953 2441 691 2322 
L 691 4666 
z
" id="DejaVuSans-35" transform="scale(0.015625)"/>
       </defs>
       <use xlink:href="#DejaVuSans-35"/>
       <use x="63.623047" xlink:href="#DejaVuSans-30"/>
       <use x="127.246094" xlink:href="#DejaVuSans-30"/>
      </g>
     </g>
    </g>
    <g id="ytick_3">
     <g id="line2d_9">
      <g>
       <use style="stroke:#000000;stroke-width:0.8;" x="57.17" xlink:href="#m519a967b69" y="125.446498"/>
      </g>
     </g>
     <g id="text_10">
      <!-- 1000 -->
      <g transform="translate(24.72 129.245716)scale(0.1 -0.1)">
       <use xlink:href="#DejaVuSans-31"/>
       <use x="63.623047" xlink:href="#DejaVuSans-30"/>
       <use x="127.246094" xlink:href="#DejaVuSans-30"/>
       <use x="190.869141" xlink:href="#DejaVuSans-30"/>
      </g>
     </g>
    </g>
    <g id="ytick_4">
     <g id="line2d_10">
      <g>
       <use style="stroke:#000000;stroke-width:0.8;" x="57.17" xlink:href="#m519a967b69" y="86.772683"/>
      </g>
     </g>
     <g id="text_11">
      <!-- 1500 -->
      <g transform="translate(24.72 90.571902)scale(0.1 -0.1)">
       <use xlink:href="#DejaVuSans-31"/>
       <use x="63.623047" xlink:href="#DejaVuSans-35"/>
       <use x="127.246094" xlink:href="#DejaVuSans-30"/>
       <use x="190.869141" xlink:href="#DejaVuSans-30"/>
      </g>
     </g>
    </g>
    <g id="text_12">
     <!-- Lateral Joint Line (pixel) -->
     <g transform="translate(18.640313 193.30415)rotate(-90)scale(0.1 -0.1)">
      <defs>
       <path d="M 603 4863 
L 1178 4863 
L 1178 0 
L 603 0 
L 603 4863 
z
" id="DejaVuSans-6c" transform="scale(0.015625)"/>
       <path d="M 628 4666 
L 1259 4666 
L 1259 325 
Q 1259 -519 939 -900 
Q 619 -1281 -91 -1281 
L -331 -1281 
L -331 -750 
L -134 -750 
Q 284 -750 456 -515 
Q 628 -281 628 325 
L 628 4666 
z
" id="DejaVuSans-4a" transform="scale(0.015625)"/>
       <path d="M 1959 3097 
Q 1497 3097 1228 2736 
Q 959 2375 959 1747 
Q 959 1119 1226 758 
Q 1494 397 1959 397 
Q 2419 397 2687 759 
Q 2956 1122 2956 1747 
Q 2956 2369 2687 2733 
Q 2419 3097 1959 3097 
z
M 1959 3584 
Q 2709 3584 3137 3096 
Q 3566 2609 3566 1747 
Q 3566 888 3137 398 
Q 2709 -91 1959 -91 
Q 1206 -91 779 398 
Q 353 888 353 1747 
Q 353 2609 779 3096 
Q 1206 3584 1959 3584 
z
" id="DejaVuSans-6f" transform="scale(0.015625)"/>
       <path d="M 1159 525 
L 1159 -1331 
L 581 -1331 
L 581 3500 
L 1159 3500 
L 1159 2969 
Q 1341 3281 1617 3432 
Q 1894 3584 2278 3584 
Q 2916 3584 3314 3078 
Q 3713 2572 3713 1747 
Q 3713 922 3314 415 
Q 2916 -91 2278 -91 
Q 1894 -91 1617 61 
Q 1341 213 1159 525 
z
M 3116 1747 
Q 3116 2381 2855 2742 
Q 2594 3103 2138 3103 
Q 1681 3103 1420 2742 
Q 1159 2381 1159 1747 
Q 1159 1113 1420 752 
Q 1681 391 2138 391 
Q 2594 391 2855 752 
Q 3116 1113 3116 1747 
z
" id="DejaVuSans-70" transform="scale(0.015625)"/>
       <path d="M 3513 3500 
L 2247 1797 
L 3578 0 
L 2900 0 
L 1881 1375 
L 863 0 
L 184 0 
L 1544 1831 
L 300 3500 
L 978 3500 
L 1906 2253 
L 2834 3500 
L 3513 3500 
z
" id="DejaVuSans-78" transform="scale(0.015625)"/>
      </defs>
      <use xlink:href="#DejaVuSans-4c"/>
      <use x="55.712891" xlink:href="#DejaVuSans-61"/>
      <use x="116.992188" xlink:href="#DejaVuSans-74"/>
      <use x="156.201172" xlink:href="#DejaVuSans-65"/>
      <use x="217.724609" xlink:href="#DejaVuSans-72"/>
      <use x="258.837891" xlink:href="#DejaVuSans-61"/>
      <use x="320.117188" xlink:href="#DejaVuSans-6c"/>
      <use x="347.900391" xlink:href="#DejaVuSans-20"/>
      <use x="379.6875" xlink:href="#DejaVuSans-4a"/>
      <use x="409.179688" xlink:href="#DejaVuSans-6f"/>
      <use x="470.361328" xlink:href="#DejaVuSans-69"/>
      <use x="498.144531" xlink:href="#DejaVuSans-6e"/>
      <use x="561.523438" xlink:href="#DejaVuSans-74"/>
      <use x="600.732422" xlink:href="#DejaVuSans-20"/>
      <use x="632.519531" xlink:href="#DejaVuSans-4c"/>
      <use x="688.232422" xlink:href="#DejaVuSans-69"/>
      <use x="716.015625" xlink:href="#DejaVuSans-6e"/>
      <use x="779.394531" xlink:href="#DejaVuSans-65"/>
      <use x="840.917969" xlink:href="#DejaVuSans-20"/>
      <use x="872.705078" xlink:href="#DejaVuSans-28"/>
      <use x="911.71875" xlink:href="#DejaVuSans-70"/>
      <use x="975.195312" xlink:href="#DejaVuSans-69"/>
      <use x="1002.978516" xlink:href="#DejaVuSans-78"/>
      <use x="1059.033203" xlink:href="#DejaVuSans-65"/>
      <use x="1120.556641" xlink:href="#DejaVuSans-6c"/>
      <use x="1148.339844" xlink:href="#DejaVuSans-29"/>
     </g>
    </g>
   </g>
   <g id="line2d_11">
    <path clip-path="url(#pb90b6975f2)" d="M 95.947355 164.158986 
L 95.947355 100.927299 
" style="fill:none;stroke:#4c4c4c;stroke-linecap:square;stroke-width:1.5;"/>
   </g>
   <g id="line2d_12">
    <path clip-path="url(#pb90b6975f2)" d="M 95.947355 140.722654 
L 95.947355 124.673021 
" style="fill:none;stroke:#4c4c4c;stroke-linecap:square;stroke-width:4.5;"/>
   </g>
   <g id="line2d_13">
    <path clip-path="url(#pb90b6975f2)" d="M 153.395289 165.860634 
L 153.395289 97.214613 
" style="fill:none;stroke:#4c4c4c;stroke-linecap:square;stroke-width:1.5;"/>
   </g>
   <g id="line2d_14">
    <path clip-path="url(#pb90b6975f2)" d="M 153.395289 140.451938 
L 153.395289 123.126069 
" style="fill:none;stroke:#4c4c4c;stroke-linecap:square;stroke-width:4.5;"/>
   </g>
   <g id="line2d_15">
    <path clip-path="url(#pb90b6975f2)" d="M 210.843223 172.087118 
L 210.843223 93.115188 
" style="fill:none;stroke:#4c4c4c;stroke-linecap:square;stroke-width:1.5;"/>
   </g>
   <g id="line2d_16">
    <path clip-path="url(#pb90b6975f2)" d="M 210.843223 143.352474 
L 210.843223 123.203416 
" style="fill:none;stroke:#4c4c4c;stroke-linecap:square;stroke-width:4.5;"/>
   </g>
   <g id="line2d_17">
    <path clip-path="url(#pb90b6975f2)" d="M 268.291157 194.7113 
L 268.291157 84.722971 
" style="fill:none;stroke:#4c4c4c;stroke-linecap:square;stroke-width:1.5;"/>
   </g>
   <g id="line2d_18">
    <path clip-path="url(#pb90b6975f2)" d="M 268.291157 152.450489 
L 268.291157 123.184079 
" style="fill:none;stroke:#4c4c4c;stroke-linecap:square;stroke-width:4.5;"/>
   </g>
   <g id="line2d_19">
    <path clip-path="url(#pb90b6975f2)" d="M 325.739091 202.794127 
L 325.739091 94.391424 
" style="fill:none;stroke:#4c4c4c;stroke-linecap:square;stroke-width:1.5;"/>
   </g>
   <g id="line2d_20">
    <path clip-path="url(#pb90b6975f2)" d="M 325.739091 183.437883 
L 325.739091 130.193708 
" style="fill:none;stroke:#4c4c4c;stroke-linecap:square;stroke-width:4.5;"/>
   </g>
   <g id="line2d_21">
    <path clip-path="url(#pb90b6975f2)" d="M 383.187025 202.794127 
L 383.187025 67.435775 
" style="fill:none;stroke:#000000;stroke-linecap:square;"/>
   </g>
   <g id="patch_5">
    <path d="M 57.17 209.68 
L 57.17 58.1908 
" style="fill:none;stroke:#000000;stroke-linecap:square;stroke-linejoin:miter;stroke-width:0.8;"/>
   </g>
   <g id="patch_6">
    <path d="M 404.73 209.68 
L 404.73 58.1908 
" style="fill:none;stroke:#000000;stroke-linecap:square;stroke-linejoin:miter;stroke-width:0.8;"/>
   </g>
   <g id="patch_7">
    <path d="M 57.17 209.68 
L 404.73 209.68 
" style="fill:none;stroke:#000000;stroke-linecap:square;stroke-linejoin:miter;stroke-width:0.8;"/>
   </g>
   <g id="patch_8">
    <path d="M 57.17 58.1908 
L 404.73 58.1908 
" style="fill:none;stroke:#000000;stroke-linecap:square;stroke-linejoin:miter;stroke-width:0.8;"/>
   </g>
   <g id="PathCollection_13">
    <defs>
     <path d="M 0 1.5 
C 0.397805 1.5 0.77937 1.341951 1.06066 1.06066 
C 1.341951 0.77937 1.5 0.397805 1.5 0 
C 1.5 -0.397805 1.341951 -0.77937 1.06066 -1.06066 
C 0.77937 -1.341951 0.397805 -1.5 0 -1.5 
C -0.397805 -1.5 -0.77937 -1.341951 -1.06066 -1.06066 
C -1.341951 -0.77937 -1.5 -0.397805 -1.5 0 
C -1.5 0.397805 -1.341951 0.77937 -1.06066 1.06066 
C -0.77937 1.341951 -0.397805 1.5 0 1.5 
z
" id="m36aceeabe8" style="stroke:#4c4c4c;"/>
    </defs>
    <g clip-path="url(#pb90b6975f2)">
     <use style="fill:#ffffff;stroke:#4c4c4c;" x="95.947355" xlink:href="#m36aceeabe8" y="133.026565"/>
    </g>
   </g>
   <g id="PathCollection_14">
    <g clip-path="url(#pb90b6975f2)">
     <use style="fill:#ffffff;stroke:#4c4c4c;" x="153.395289" xlink:href="#m36aceeabe8" y="131.789003"/>
    </g>
   </g>
   <g id="PathCollection_15">
    <g clip-path="url(#pb90b6975f2)">
     <use style="fill:#ffffff;stroke:#4c4c4c;" x="210.843223" xlink:href="#m36aceeabe8" y="133.529325"/>
    </g>
   </g>
   <g id="PathCollection_16">
    <g clip-path="url(#pb90b6975f2)">
     <use style="fill:#ffffff;stroke:#4c4c4c;" x="268.291157" xlink:href="#m36aceeabe8" y="135.192299"/>
    </g>
   </g>
   <g id="PathCollection_17">
    <g clip-path="url(#pb90b6975f2)">
     <use style="fill:#ffffff;stroke:#4c4c4c;" x="325.739091" xlink:href="#m36aceeabe8" y="147.084497"/>
    </g>
   </g>
   <g id="legend_1">
    <g id="patch_9">
     <path d="M 47.057031 54.644966 
L 414.842969 54.644966 
L 414.842969 22.288716 
L 47.057031 22.288716 
z
" style="fill:#ffffff;opacity:0.8;stroke:#cccccc;stroke-linejoin:miter;"/>
    </g>
    <g id="patch_10">
     <path d="M 51.057031 33.887153 
L 71.057031 33.887153 
L 71.057031 26.887153 
L 51.057031 26.887153 
z
" style="fill:#20df20;stroke:#4c4c4c;stroke-linejoin:miter;stroke-width:0.75;"/>
    </g>
    <g id="text_13">
     <!-- Left Knee -->
     <g transform="translate(79.057031 33.887153)scale(0.1 -0.1)">
      <defs>
       <path d="M 2375 4863 
L 2375 4384 
L 1825 4384 
Q 1516 4384 1395 4259 
Q 1275 4134 1275 3809 
L 1275 3500 
L 2222 3500 
L 2222 3053 
L 1275 3053 
L 1275 0 
L 697 0 
L 697 3053 
L 147 3053 
L 147 3500 
L 697 3500 
L 697 3744 
Q 697 4328 969 4595 
Q 1241 4863 1831 4863 
L 2375 4863 
z
" id="DejaVuSans-66" transform="scale(0.015625)"/>
      </defs>
      <use xlink:href="#DejaVuSans-4c"/>
      <use x="53.962891" xlink:href="#DejaVuSans-65"/>
      <use x="115.486328" xlink:href="#DejaVuSans-66"/>
      <use x="148.941406" xlink:href="#DejaVuSans-74"/>
      <use x="188.150391" xlink:href="#DejaVuSans-20"/>
      <use x="219.9375" xlink:href="#DejaVuSans-4b"/>
      <use x="285.513672" xlink:href="#DejaVuSans-6e"/>
      <use x="348.892578" xlink:href="#DejaVuSans-65"/>
      <use x="410.416016" xlink:href="#DejaVuSans-65"/>
     </g>
    </g>
    <g id="patch_11">
     <path d="M 51.057031 48.565278 
L 71.057031 48.565278 
L 71.057031 41.565278 
L 51.057031 41.565278 
z
" style="fill:#20dfdf;stroke:#4c4c4c;stroke-linejoin:miter;stroke-width:0.75;"/>
    </g>
    <g id="text_14">
     <!-- Right Knee -->
     <g transform="translate(79.057031 48.565278)scale(0.1 -0.1)">
      <defs>
       <path d="M 3513 2113 
L 3513 0 
L 2938 0 
L 2938 2094 
Q 2938 2591 2744 2837 
Q 2550 3084 2163 3084 
Q 1697 3084 1428 2787 
Q 1159 2491 1159 1978 
L 1159 0 
L 581 0 
L 581 4863 
L 1159 4863 
L 1159 2956 
Q 1366 3272 1645 3428 
Q 1925 3584 2291 3584 
Q 2894 3584 3203 3211 
Q 3513 2838 3513 2113 
z
" id="DejaVuSans-68" transform="scale(0.015625)"/>
      </defs>
      <use xlink:href="#DejaVuSans-52"/>
      <use x="69.482422" xlink:href="#DejaVuSans-69"/>
      <use x="97.265625" xlink:href="#DejaVuSans-67"/>
      <use x="160.742188" xlink:href="#DejaVuSans-68"/>
      <use x="224.121094" xlink:href="#DejaVuSans-74"/>
      <use x="263.330078" xlink:href="#DejaVuSans-20"/>
      <use x="295.117188" xlink:href="#DejaVuSans-4b"/>
      <use x="360.693359" xlink:href="#DejaVuSans-6e"/>
      <use x="424.072266" xlink:href="#DejaVuSans-65"/>
      <use x="485.595703" xlink:href="#DejaVuSans-65"/>
     </g>
    </g>
    <g id="PathCollection_18">
     <defs>
      <path d="M 0 3 
C 0.795609 3 1.55874 2.683901 2.12132 2.12132 
C 2.683901 1.55874 3 0.795609 3 0 
C 3 -0.795609 2.683901 -1.55874 2.12132 -2.12132 
C 1.55874 -2.683901 0.795609 -3 0 -3 
C -0.795609 -3 -1.55874 -2.683901 -2.12132 -2.12132 
C -2.683901 -1.55874 -3 -0.795609 -3 0 
C -3 0.795609 -2.683901 1.55874 -2.12132 2.12132 
C -1.55874 2.683901 -0.795609 3 0 3 
z
" id="mb6cb6d3200" style="stroke:#0000ff;"/>
     </defs>
     <g>
      <use style="fill:#0000ff;stroke:#0000ff;" x="163.769531" xlink:href="#mb6cb6d3200" y="31.262153"/>
     </g>
    </g>
    <g id="text_15">
     <!-- Patient 1 -->
     <g transform="translate(181.769531 33.887153)scale(0.1 -0.1)">
      <use xlink:href="#DejaVuSans-50"/>
      <use x="55.802734" xlink:href="#DejaVuSans-61"/>
      <use x="117.082031" xlink:href="#DejaVuSans-74"/>
      <use x="156.291016" xlink:href="#DejaVuSans-69"/>
      <use x="184.074219" xlink:href="#DejaVuSans-65"/>
      <use x="245.597656" xlink:href="#DejaVuSans-6e"/>
      <use x="308.976562" xlink:href="#DejaVuSans-74"/>
      <use x="348.185547" xlink:href="#DejaVuSans-20"/>
      <use x="379.972656" xlink:href="#DejaVuSans-31"/>
     </g>
    </g>
    <g id="PathCollection_19">
     <defs>
      <path d="M 0 3 
C 0.795609 3 1.55874 2.683901 2.12132 2.12132 
C 2.683901 1.55874 3 0.795609 3 0 
C 3 -0.795609 2.683901 -1.55874 2.12132 -2.12132 
C 1.55874 -2.683901 0.795609 -3 0 -3 
C -0.795609 -3 -1.55874 -2.683901 -2.12132 -2.12132 
C -2.683901 -1.55874 -3 -0.795609 -3 0 
C -3 0.795609 -2.683901 1.55874 -2.12132 2.12132 
C -1.55874 2.683901 -0.795609 3 0 3 
z
" id="m480bba1ef3" style="stroke:#dc143c;"/>
     </defs>
     <g>
      <use style="fill:#dc143c;stroke:#dc143c;" x="163.769531" xlink:href="#m480bba1ef3" y="45.940278"/>
     </g>
    </g>
    <g id="text_16">
     <!-- Patient 2 -->
     <g transform="translate(181.769531 48.565278)scale(0.1 -0.1)">
      <use xlink:href="#DejaVuSans-50"/>
      <use x="55.802734" xlink:href="#DejaVuSans-61"/>
      <use x="117.082031" xlink:href="#DejaVuSans-74"/>
      <use x="156.291016" xlink:href="#DejaVuSans-69"/>
      <use x="184.074219" xlink:href="#DejaVuSans-65"/>
      <use x="245.597656" xlink:href="#DejaVuSans-6e"/>
      <use x="308.976562" xlink:href="#DejaVuSans-74"/>
      <use x="348.185547" xlink:href="#DejaVuSans-20"/>
      <use x="379.972656" xlink:href="#DejaVuSans-32"/>
     </g>
    </g>
    <g id="PathCollection_20">
     <defs>
      <path d="M 0 3 
C 0.795609 3 1.55874 2.683901 2.12132 2.12132 
C 2.683901 1.55874 3 0.795609 3 0 
C 3 -0.795609 2.683901 -1.55874 2.12132 -2.12132 
C 1.55874 -2.683901 0.795609 -3 0 -3 
C -0.795609 -3 -1.55874 -2.683901 -2.12132 -2.12132 
C -2.683901 -1.55874 -3 -0.795609 -3 0 
C -3 0.795609 -2.683901 1.55874 -2.12132 2.12132 
C -1.55874 2.683901 -0.795609 3 0 3 
z
" id="m7ae3f2844e" style="stroke:#008000;"/>
     </defs>
     <g>
      <use style="fill:#008000;stroke:#008000;" x="256.127344" xlink:href="#m7ae3f2844e" y="31.262153"/>
     </g>
    </g>
    <g id="text_17">
     <!-- Patient 3 -->
     <g transform="translate(274.127344 33.887153)scale(0.1 -0.1)">
      <use xlink:href="#DejaVuSans-50"/>
      <use x="55.802734" xlink:href="#DejaVuSans-61"/>
      <use x="117.082031" xlink:href="#DejaVuSans-74"/>
      <use x="156.291016" xlink:href="#DejaVuSans-69"/>
      <use x="184.074219" xlink:href="#DejaVuSans-65"/>
      <use x="245.597656" xlink:href="#DejaVuSans-6e"/>
      <use x="308.976562" xlink:href="#DejaVuSans-74"/>
      <use x="348.185547" xlink:href="#DejaVuSans-20"/>
      <use x="379.972656" xlink:href="#DejaVuSans-33"/>
     </g>
    </g>
    <g id="PathCollection_21">
     <defs>
      <path d="M 0 3 
C 0.795609 3 1.55874 2.683901 2.12132 2.12132 
C 2.683901 1.55874 3 0.795609 3 0 
C 3 -0.795609 2.683901 -1.55874 2.12132 -2.12132 
C 1.55874 -2.683901 0.795609 -3 0 -3 
C -0.795609 -3 -1.55874 -2.683901 -2.12132 -2.12132 
C -2.683901 -1.55874 -3 -0.795609 -3 0 
C -3 0.795609 -2.683901 1.55874 -2.12132 2.12132 
C -1.55874 2.683901 -0.795609 3 0 3 
z
" id="mf317207e17" style="stroke:#000000;"/>
     </defs>
     <g>
      <use style="stroke:#000000;" x="256.127344" xlink:href="#mf317207e17" y="45.940278"/>
     </g>
    </g>
    <g id="text_18">
     <!-- Patient 4 -->
     <g transform="translate(274.127344 48.565278)scale(0.1 -0.1)">
      <use xlink:href="#DejaVuSans-50"/>
      <use x="55.802734" xlink:href="#DejaVuSans-61"/>
      <use x="117.082031" xlink:href="#DejaVuSans-74"/>
      <use x="156.291016" xlink:href="#DejaVuSans-69"/>
      <use x="184.074219" xlink:href="#DejaVuSans-65"/>
      <use x="245.597656" xlink:href="#DejaVuSans-6e"/>
      <use x="308.976562" xlink:href="#DejaVuSans-74"/>
      <use x="348.185547" xlink:href="#DejaVuSans-20"/>
      <use x="379.972656" xlink:href="#DejaVuSans-34"/>
     </g>
    </g>
    <g id="PathCollection_22">
     <defs>
      <path d="M 0 3 
C 0.795609 3 1.55874 2.683901 2.12132 2.12132 
C 2.683901 1.55874 3 0.795609 3 0 
C 3 -0.795609 2.683901 -1.55874 2.12132 -2.12132 
C 1.55874 -2.683901 0.795609 -3 0 -3 
C -0.795609 -3 -1.55874 -2.683901 -2.12132 -2.12132 
C -2.683901 -1.55874 -3 -0.795609 -3 0 
C -3 0.795609 -2.683901 1.55874 -2.12132 2.12132 
C -1.55874 2.683901 -0.795609 3 0 3 
z
" id="m9600e9d938" style="stroke:#ffa500;"/>
     </defs>
     <g>
      <use style="fill:#ffa500;stroke:#ffa500;" x="348.485156" xlink:href="#m9600e9d938" y="31.262153"/>
     </g>
    </g>
    <g id="text_19">
     <!-- Patient 5 -->
     <g transform="translate(366.485156 33.887153)scale(0.1 -0.1)">
      <use xlink:href="#DejaVuSans-50"/>
      <use x="55.802734" xlink:href="#DejaVuSans-61"/>
      <use x="117.082031" xlink:href="#DejaVuSans-74"/>
      <use x="156.291016" xlink:href="#DejaVuSans-69"/>
      <use x="184.074219" xlink:href="#DejaVuSans-65"/>
      <use x="245.597656" xlink:href="#DejaVuSans-6e"/>
      <use x="308.976562" xlink:href="#DejaVuSans-74"/>
      <use x="348.185547" xlink:href="#DejaVuSans-20"/>
      <use x="379.972656" xlink:href="#DejaVuSans-35"/>
     </g>
    </g>
   </g>
  </g>
 </g>
 <defs>
  <clipPath id="pb90b6975f2">
   <rect height="151.4892" width="347.56" x="57.17" y="58.1908"/>
  </clipPath>
 </defs>
</svg>
